<?xml version="1.0" encoding="utf-8" ?>
<svg baseProfile="full" height="512" version="1.1" width="512" xmlns="http://www.w3.org/2000/svg" xmlns:ev="http://www.w3.org/2001/xml-events" xmlns:xlink="http://www.w3.org/1999/xlink"><defs /><polyline fill="none" points="33,0 33,148 115,148 115,100 116,99 155,99 156,100 156,197 155,198 155,199 154,200 154,201 153,202 153,203 152,204 152,205 151,206 151,207 150,208 150,209 149,210 149,211 148,212 148,213 147,214 147,215 146,216 146,217 145,218 145,219 144,220 144,221 143,222 143,223 142,224 142,225 141,226 141,227 140,228 140,229 139,230 139,231 138,232 138,233 137,234 137,235 136,236 136,237 135,238 135,239 134,240 134,241 133,242 133,243 132,244 132,411 131,412 116,412 115,411 115,363 33,363 33,511 115,511 115,463 116,462 212,462 214,464 214,465 216,467 216,468 224,476 225,476 227,478 228,478 230,480 231,480 232,481 233,481 234,482 235,482 236,483 237,483 238,484 240,484 241,485 244,485 245,486 252,486 253,487 258,487 259,486 266,486 267,485 270,485 271,484 273,484 274,483 275,483 276,482 277,482 278,481 279,481 280,480 281,480 283,478 284,478 286,476 287,476 295,468 295,467 297,465 297,464 299,462 395,462 396,463 396,511 478,511 478,363 396,363 396,411 395,412 380,412 379,411 379,244 378,243 378,242 377,241 377,240 376,239 376,238 375,237 375,236 374,235 374,234 373,233 373,232 372,231 372,230 371,229 371,228 370,227 370,226 369,225 369,224 368,223 368,222 367,221 367,220 366,219 366,218 365,217 365,216 364,215 364,214 363,213 363,212 362,211 362,210 361,209 361,208 360,207 360,206 359,205 359,204 358,203 358,202 357,201 357,200 356,199 356,198 355,197 355,100 356,99 395,99 396,100 396,148 478,148 478,0 396,0 396,48 395,49 322,49 321,48 321,45 320,44 320,42 319,41 319,40 318,39 318,38 317,37 317,36 312,31 311,31 309,29 308,29 307,28 306,28 305,27 304,27 303,26 302,26 301,25 300,25 299,24 298,24 297,23 296,23 295,22 294,22 293,21 292,21 291,20 290,20 289,19 288,19 287,18 286,18 285,17 284,17 283,16 228,16 227,17 226,17 225,18 224,18 223,19 222,19 221,20 220,20 219,21 218,21 217,22 216,22 215,23 214,23 213,24 212,24 211,25 210,25 209,26 208,26 207,27 206,27 205,28 204,28 203,29 202,29 200,31 199,31 194,36 194,37 193,38 193,39 192,40 192,41 191,42 191,44 190,45 190,48 189,49 116,49 115,48 115,0" stroke="rgb(242,199,49)" stroke-width="2" /></svg>