<?xml version="1.0" encoding="UTF-8"?>
<!DOCTYPE svg PUBLIC "-//W3C//DTD SVG 1.1//EN" "http://www.w3.org/Graphics/SVG/1.1/DTD/svg11.dtd">
<svg xmlns="http://www.w3.org/2000/svg" version="1.1" width="592px" height="587px" style="shape-rendering:geometricPrecision; text-rendering:geometricPrecision; image-rendering:optimizeQuality; fill-rule:evenodd; clip-rule:evenodd" xmlns:xlink="http://www.w3.org/1999/xlink">
<g><path style="opacity:1" fill="#fed233" d="M 205.5,98.5 C 221.503,98.3334 237.503,98.5001 253.5,99C 264.32,100.487 270.487,106.653 272,117.5C 272.5,125.827 272.666,134.16 272.5,142.5C 243.831,142.667 215.165,142.5 186.5,142C 184.971,131.447 185.471,120.947 188,110.5C 192.095,103.876 197.928,99.8762 205.5,98.5 Z"/></g>
<g><path style="opacity:1" fill="#fed233" d="M 185.5,163.5 C 214.835,163.333 244.169,163.5 273.5,164C 301.667,192.167 329.833,220.333 358,248.5C 373.595,265.351 385.929,284.351 395,305.5C 397.277,311.332 398.944,317.332 400,323.5C 400.5,370.165 400.667,416.832 400.5,463.5C 341.166,463.667 281.832,463.5 222.5,463C 198.821,458.658 186.654,444.492 186,420.5C 185.5,334.834 185.333,249.167 185.5,163.5 Z M 292.5,292.5 C 311.439,310.642 324.939,332.308 333,357.5C 336.268,370.181 336.268,382.848 333,395.5C 324.878,411.494 311.711,419.827 293.5,420.5C 266.778,418.444 252.444,404.111 250.5,377.5C 251.491,365.379 254.324,353.712 259,342.5C 268.037,324.317 279.203,307.65 292.5,292.5 Z"/></g>
</svg>
