<?xml version="1.0" encoding="UTF-8"?>
<!DOCTYPE svg PUBLIC "-//W3C//DTD SVG 1.1//EN" "http://www.w3.org/Graphics/SVG/1.1/DTD/svg11.dtd">
<svg xmlns="http://www.w3.org/2000/svg" version="1.1" width="677px" height="676px" style="shape-rendering:geometricPrecision; text-rendering:geometricPrecision; image-rendering:optimizeQuality; fill-rule:evenodd; clip-rule:evenodd" xmlns:xlink="http://www.w3.org/1999/xlink">
<g><path style="opacity:1" fill="#fed233" d="M 329.5,93.5 C 359.94,91.1184 379.44,104.452 388,133.5C 389.321,242.137 389.987,350.804 390,459.5C 415.197,484.293 422.197,513.626 411,547.5C 396.368,579.283 371.535,596.283 336.5,598.5C 294.325,595.489 268.159,573.489 258,532.5C 253.596,503.71 261.929,479.377 283,459.5C 283.013,350.804 283.679,242.137 285,133.5C 290.967,110.022 305.8,96.6883 329.5,93.5 Z M 329.5,333.5 C 346.071,331.189 356.905,337.855 362,353.5C 362.333,398.833 362.667,444.167 363,489.5C 375.457,502.002 378.79,516.668 373,533.5C 361.022,555.275 343.189,562.108 319.5,554C 299.647,542.455 293.147,525.622 300,503.5C 302.352,498.129 305.685,493.462 310,489.5C 310.333,444.5 310.667,399.5 311,354.5C 313.169,343.839 319.336,336.839 329.5,333.5 Z"/></g>
<g><path style="opacity:1" fill="#fed233" d="M 177.5,146.5 C 194.807,155.153 212.14,163.82 229.5,172.5C 230.498,163.859 230.831,155.192 230.5,146.5C 239.5,146.5 248.5,146.5 257.5,146.5C 257.5,252.833 257.5,359.167 257.5,465.5C 248.5,465.5 239.5,465.5 230.5,465.5C 230.831,456.808 230.498,448.141 229.5,439.5C 212.256,448.039 195.089,456.705 178,465.5C 177.183,456.255 177.35,447.089 178.5,438C 195.5,429.5 212.5,421 229.5,412.5C 230.833,386.167 230.833,359.833 229.5,333.5C 203.803,351.029 177.97,368.363 152,385.5C 151.5,394.494 151.334,403.494 151.5,412.5C 142.5,412.5 133.5,412.5 124.5,412.5C 124.5,403.833 124.5,395.167 124.5,386.5C 115.582,386.817 106.749,386.484 98,385.5C 97.5002,376.506 97.3336,367.506 97.5,358.5C 107.172,358.666 116.839,358.5 126.5,358C 160.989,340.922 195.322,323.589 229.5,306C 194.833,288.667 160.167,271.333 125.5,254C 116.173,253.5 106.839,253.334 97.5,253.5C 97.5,244.5 97.5,235.5 97.5,226.5C 106.5,226.5 115.5,226.5 124.5,226.5C 124.5,217.5 124.5,208.5 124.5,199.5C 133.5,199.5 142.5,199.5 151.5,199.5C 151.334,208.506 151.5,217.506 152,226.5C 177.747,243.957 203.58,261.291 229.5,278.5C 230.667,252.506 230.833,226.506 230,200.5C 212.911,191.705 195.744,183.039 178.5,174.5C 177.502,165.19 177.168,155.857 177.5,146.5 Z"/></g>
<g><path style="opacity:1" fill="#fed233" d="M 514.5,279.5 C 518.5,279.5 522.5,279.5 526.5,279.5C 516.175,302.983 505.175,326.15 493.5,349C 489.848,349.499 486.182,349.665 482.5,349.5C 493.161,326.177 503.827,302.844 514.5,279.5 Z"/></g>
<g><path style="opacity:1" fill="#fed233" d="M 444.5,285.5 C 449.099,285.2 453.599,285.533 458,286.5C 465.597,303.792 473.097,321.125 480.5,338.5C 475.198,339.663 469.864,339.829 464.5,339C 463.071,336.31 462.071,333.477 461.5,330.5C 454.468,330.17 447.468,330.503 440.5,331.5C 439.305,333.751 438.305,336.085 437.5,338.5C 432.167,339.833 426.833,339.833 421.5,338.5C 428.924,320.66 436.59,302.994 444.5,285.5 Z M 450.5,304.5 C 452.935,308.799 454.602,313.466 455.5,318.5C 452.102,318.82 448.768,318.487 445.5,317.5C 447.37,313.221 449.036,308.888 450.5,304.5 Z"/></g>
<g><path style="opacity:1" fill="#fed233" d="M 547.5,285.5 C 558.712,283.945 567.712,287.612 574.5,296.5C 571.172,299.658 567.672,302.658 564,305.5C 556.557,297.665 549.224,297.665 542,305.5C 537.477,320.011 542.643,326.844 557.5,326C 559.977,324.357 562.31,322.524 564.5,320.5C 568.309,323.142 571.976,325.975 575.5,329C 564.371,341.459 551.371,343.792 536.5,336C 524.512,326.076 521.679,313.91 528,299.5C 532.757,292.222 539.257,287.556 547.5,285.5 Z"/></g>
</svg>
