<?xml version="1.0" encoding="UTF-8"?>
<!DOCTYPE svg PUBLIC "-//W3C//DTD SVG 1.1//EN" "http://www.w3.org/Graphics/SVG/1.1/DTD/svg11.dtd">
<svg xmlns="http://www.w3.org/2000/svg" version="1.1" width="719px" height="703px" style="shape-rendering:geometricPrecision; text-rendering:geometricPrecision; image-rendering:optimizeQuality; fill-rule:evenodd; clip-rule:evenodd" xmlns:xlink="http://www.w3.org/1999/xlink">
<g><path style="opacity:1" fill="#fed233" d="M 286.5,139.5 C 301.398,138.36 311.564,144.694 317,158.5C 319.38,177.749 311.046,189.082 292,192.5C 273.365,189.884 264.698,179.217 266,160.5C 269.016,149.652 275.849,142.652 286.5,139.5 Z"/></g>
<g><path style="opacity:1" fill="#fed233" d="M 415.5,139.5 C 462.168,139.333 508.835,139.5 555.5,140C 561.322,141.245 566.655,143.578 571.5,147C 579.839,153.997 586.673,162.164 592,171.5C 605.517,197.718 614.85,225.384 620,254.5C 632.717,326.666 630.384,398.333 613,469.5C 606.512,494.805 595.512,517.805 580,538.5C 573.879,545.477 566.379,550.31 557.5,553C 509.5,553.667 461.5,553.667 413.5,553C 402.695,549.197 393.861,542.697 387,533.5C 376.973,519.782 369.307,504.782 364,488.5C 352.484,453.073 345.817,416.74 344,379.5C 340.469,325.671 345.469,272.671 359,220.5C 364.917,198.003 374.584,177.336 388,158.5C 395.491,149.472 404.657,143.138 415.5,139.5 Z M 548.5,191.5 C 557.442,192.266 564.608,196.266 570,203.5C 584,225.828 592.667,250.161 596,276.5C 605.481,335.422 602.814,393.755 588,451.5C 584.216,464.732 578.55,477.065 571,488.5C 557.653,505.395 543.986,505.728 530,489.5C 515.988,466.467 507.321,441.467 504,414.5C 494.84,355.514 497.84,297.181 513,239.5C 517.605,223.449 525.438,209.282 536.5,197C 540.284,194.471 544.284,192.638 548.5,191.5 Z"/></g>
<g><path style="opacity:1" fill="#fed233" d="M 212.5,148.5 C 216.99,165.264 220.99,182.264 224.5,199.5C 205.625,195.282 186.958,190.448 168.5,185C 183.357,172.969 198.023,160.802 212.5,148.5 Z"/></g>
<g><path style="opacity:1" fill="#fed233" d="M 104.5,191.5 C 127.49,190.655 137.99,201.655 136,224.5C 128.121,242.798 114.955,247.964 96.5,240C 83.5843,229.665 81.0843,217.165 89,202.5C 93.1272,197.202 98.2939,193.535 104.5,191.5 Z"/></g>
<g><path style="opacity:1" fill="#fed134" d="M 287.5,202.5 C 290.5,202.5 293.5,202.5 296.5,202.5C 296.666,210.507 296.5,218.507 296,226.5C 293.281,227.444 290.448,227.777 287.5,227.5C 287.5,219.167 287.5,210.833 287.5,202.5 Z"/></g>
<g><path style="opacity:1" fill="#fed234" d="M 129.5,247.5 C 130.675,247.281 131.675,247.614 132.5,248.5C 136.224,254.781 139.557,261.281 142.5,268C 140.536,269.987 138.203,271.487 135.5,272.5C 131.699,265.73 128.032,258.897 124.5,252C 126.207,250.491 127.873,248.991 129.5,247.5 Z"/></g>
<g><path style="opacity:1" fill="#fed233" d="M 287.5,250.5 C 290.5,250.5 293.5,250.5 296.5,250.5C 296.5,258.833 296.5,267.167 296.5,275.5C 293.5,275.5 290.5,275.5 287.5,275.5C 287.5,267.167 287.5,258.833 287.5,250.5 Z"/></g>
<g><path style="opacity:1" fill="#fed233" d="M 152.5,289.5 C 153.496,289.414 154.329,289.748 155,290.5C 158.627,296.92 162.127,303.42 165.5,310C 163.507,311.999 161.173,313.499 158.5,314.5C 154.247,307.663 150.247,300.663 146.5,293.5C 148.565,292.143 150.565,290.81 152.5,289.5 Z"/></g>
<g><path style="opacity:1" fill="#fed134" d="M 287.5,298.5 C 290.448,298.223 293.281,298.556 296,299.5C 296.5,307.493 296.666,315.493 296.5,323.5C 293.5,323.5 290.5,323.5 287.5,323.5C 287.5,315.167 287.5,306.833 287.5,298.5 Z"/></g>
<g><path style="opacity:1" fill="#fed133" d="M 174.5,331.5 C 175.675,331.281 176.675,331.614 177.5,332.5C 181.04,339.081 184.707,345.581 188.5,352C 186.083,353.626 183.583,355.126 181,356.5C 176.78,349.893 172.946,343.06 169.5,336C 171.043,334.287 172.709,332.787 174.5,331.5 Z"/></g>
<g><path style="opacity:1" fill="#fed232" d="M 287.5,347.5 C 290.5,347.5 293.5,347.5 296.5,347.5C 296.666,355.507 296.5,363.507 296,371.5C 293.281,372.444 290.448,372.777 287.5,372.5C 287.5,364.167 287.5,355.833 287.5,347.5 Z"/></g>
<g><path style="opacity:1" fill="#fed233" d="M 197.5,373.5 C 199.017,373.511 200.184,374.177 201,375.5C 203.912,381.658 207.079,387.658 210.5,393.5C 208.381,395.4 206.047,397.066 203.5,398.5C 199.12,391.575 195.12,384.409 191.5,377C 193.727,376.059 195.727,374.892 197.5,373.5 Z"/></g>
<g><path style="opacity:1" fill="#fed232" d="M 287.5,395.5 C 290.448,395.223 293.281,395.556 296,396.5C 296.5,404.493 296.666,412.493 296.5,420.5C 293.5,420.5 290.5,420.5 287.5,420.5C 287.5,412.167 287.5,403.833 287.5,395.5 Z"/></g>
<g><path style="opacity:1" fill="#fed234" d="M 219.5,415.5 C 220.822,415.33 221.989,415.663 223,416.5C 226.118,423.239 229.618,429.739 233.5,436C 231.083,437.626 228.583,439.126 226,440.5C 221.659,433.821 217.825,426.821 214.5,419.5C 216.015,417.918 217.681,416.584 219.5,415.5 Z"/></g>
<g><path style="opacity:1" fill="#fed232" d="M 287.5,444.5 C 290.5,444.5 293.5,444.5 296.5,444.5C 296.666,452.507 296.5,460.507 296,468.5C 293.281,469.444 290.448,469.777 287.5,469.5C 287.5,461.167 287.5,452.833 287.5,444.5 Z"/></g>
<g><path style="opacity:1" fill="#fed233" d="M 243.5,456.5 C 247.726,463.275 251.726,470.275 255.5,477.5C 253.21,480.41 250.377,481.41 247,480.5C 243.882,473.761 240.382,467.261 236.5,461C 239.239,459.974 241.572,458.474 243.5,456.5 Z"/></g>
<g><path style="opacity:1" fill="#fed133" d="M 287.5,492.5 C 290.448,492.223 293.281,492.556 296,493.5C 296.5,501.493 296.666,509.493 296.5,517.5C 293.5,517.5 290.5,517.5 287.5,517.5C 287.5,509.167 287.5,500.833 287.5,492.5 Z"/></g>
<g><path style="opacity:1" fill="#fed233" d="M 266.5,498.5 C 270.853,505.362 274.853,512.529 278.5,520C 276.238,521.047 274.071,522.213 272,523.5C 270.739,523.241 269.739,522.574 269,521.5C 266.088,515.342 262.921,509.342 259.5,503.5C 261.687,501.578 264.02,499.912 266.5,498.5 Z"/></g>
<g><path style="opacity:1" fill="#fed234" d="M 288.5,540.5 C 291.096,541.265 293.763,541.599 296.5,541.5C 296.832,550.857 296.498,560.19 295.5,569.5C 290.707,561.415 286.04,553.248 281.5,545C 283.898,543.476 286.231,541.976 288.5,540.5 Z"/></g>
</svg>
