<?xml version="1.0" encoding="UTF-8"?>
<svg version="1.1" xmlns="http://www.w3.org/2000/svg" width="300" height="75">
<path d="M0 0 C99 0 198 0 300 0 C300 24.75 300 49.5 300 75 C201 75 102 75 0 75 C0 50.25 0 25.5 0 0 Z " fill="#FCFDFC" transform="translate(0,0)"/>
<path d="M0 0 C1.32 0 2.64 0 4 0 C6 2 6 2 6 5 C6.515625 4.649375 7.03125 4.29875 7.5625 3.9375 C10.94006667 2.6384359 13.50468057 3.32782319 17 4 C17 4.66 17 5.32 17 6 C20.27773504 5.24849977 20.27773504 5.24849977 22 2 C24.625 1.3125 24.625 1.3125 27 1 C27 1.66 27 2.32 27 3 C28.32 3.33 29.64 3.66 31 4 C31.495 5.98 31.495 5.98 32 8 C31.01 8 30.02 8 29 8 C28.76216797 8.80050781 28.76216797 8.80050781 28.51953125 9.6171875 C23.62390671 25.25072886 23.62390671 25.25072886 17.8125 29.125 C15 30 15 30 13 30 C13.495 31.485 13.495 31.485 14 33 C12.35 33.33 10.7 33.66 9 34 C9 33.34 9 32.68 9 32 C8.25234375 32.2165625 7.5046875 32.433125 6.734375 32.65625 C5.74953125 32.9346875 4.7646875 33.213125 3.75 33.5 C2.77546875 33.7784375 1.8009375 34.056875 0.796875 34.34375 C-2 35 -2 35 -6 35 C-6.99 32.525 -6.99 32.525 -8 30 C-8.50684326 30.28657471 -9.01368652 30.57314941 -9.53588867 30.8684082 C-16.22321226 34.28088493 -21.90736881 34.45537415 -29.3125 34.1875 C-31.43349475 34.13514552 -33.55459325 34.08680044 -35.67578125 34.04296875 C-36.60302002 34.01227295 -37.53025879 33.98157715 -38.4855957 33.94995117 C-40.85236182 33.99706128 -42.72842282 34.39392731 -45 35 C-47.08674954 34.91620565 -49.17149066 34.76583244 -51.25 34.5625 C-52.32765625 34.46066406 -53.4053125 34.35882813 -54.515625 34.25390625 C-55.33546875 34.17011719 -56.1553125 34.08632813 -57 34 C-57 33.34 -57 32.68 -57 32 C-58.32 32 -59.64 32 -61 32 C-60.85831863 30.56208484 -60.71148957 29.1246763 -60.5625 27.6875 C-60.48128906 26.88699219 -60.40007812 26.08648437 -60.31640625 25.26171875 C-60 23 -60 23 -59 20 C-58.34 20 -57.68 20 -57 20 C-57.495 18.02 -57.495 18.02 -58 16 C-62.66646457 18.23519731 -64.01012719 20.39833797 -65.8125 25.1875 C-66.23144531 26.27417969 -66.65039062 27.36085938 -67.08203125 28.48046875 C-67.38496094 29.31191406 -67.68789062 30.14335938 -68 31 C-70.97 31 -73.94 31 -77 31 C-76.54177532 27.53058454 -76.10868317 24.32604951 -75 21 C-75.66 21 -76.32 21 -77 21 C-78.65 24.3 -80.3 27.6 -82 31 C-85.3 31 -88.6 31 -92 31 C-87.43653657 13.50672352 -87.43653657 13.50672352 -81.04296875 8.453125 C-73.79526632 4.62833366 -65.04673028 4.02463875 -57 5 C-55.32421875 6.453125 -55.32421875 6.453125 -54 8 C-53.01 8.33 -52.02 8.66 -51 9 C-50.67 8.01 -50.34 7.02 -50 6 C-43.42208086 3.15953492 -34.13670951 2.37553873 -27.43359375 5.0078125 C-26.63050781 5.33523437 -25.82742187 5.66265625 -25 6 C-22.33276694 6.23923539 -22.33276694 6.23923539 -19.6875 6.125 C-18.80449219 6.10695313 -17.92148438 6.08890625 -17.01171875 6.0703125 C-16.34785156 6.04710937 -15.68398437 6.02390625 -15 6 C-15 5.34 -15 4.68 -15 4 C-14.16855469 3.96261719 -13.33710938 3.92523437 -12.48046875 3.88671875 C-11.39378906 3.82097656 -10.30710937 3.75523438 -9.1875 3.6875 C-8.10855469 3.62949219 -7.02960938 3.57148438 -5.91796875 3.51171875 C-2.68513031 2.94478189 -2.1448809 2.29237987 0 0 Z " fill="#DFF7E0" transform="translate(263,19)"/>
<path d="M0 0 C0.763125 0.20625 1.52625 0.4125 2.3125 0.625 C2.3125 1.615 2.3125 2.605 2.3125 3.625 C3.97861905 3.667721 5.64632885 3.66563832 7.3125 3.625 C7.6425 3.295 7.9725 2.965 8.3125 2.625 C14.6195 2.268 14.6195 2.268 17.375 3.6875 C19.3270317 4.86689224 19.3270317 4.86689224 21.72265625 4.1875 C26.72090835 3.4043136 31.63743917 3.52014465 36.6875 3.5625 C38.22083984 3.56926758 38.22083984 3.56926758 39.78515625 3.57617188 C42.29433194 3.587897 44.8033849 3.60430824 47.3125 3.625 C43.11253855 6.81872069 40.72831802 8.625 35.3125 8.625 C34.8484375 10.048125 34.8484375 10.048125 34.375 11.5 C33.3125 14.625 33.3125 14.625 32.3125 16.625 C32.08782169 18.16168865 31.90453195 19.70468054 31.75 21.25 C31.62431641 22.47589844 31.62431641 22.47589844 31.49609375 23.7265625 C31.43550781 24.35304688 31.37492187 24.97953125 31.3125 25.625 C30.6525 25.625 29.9925 25.625 29.3125 25.625 C28.9825 26.945 28.6525 28.265 28.3125 29.625 C24.0225 29.625 19.7325 29.625 15.3125 29.625 C14.05505785 23.33778927 15.86995119 20.25348203 18.3125 14.625 C17.6525 14.625 16.9925 14.625 16.3125 14.625 C15.9825 15.285 15.6525 15.945 15.3125 16.625 C14.6525 16.625 13.9925 16.625 13.3125 16.625 C12.631875 18.3265625 12.631875 18.3265625 11.9375 20.0625 C10.3125 23.625 10.3125 23.625 8.3125 24.625 C8.085625 25.40875 7.85875 26.1925 7.625 27 C6.3125 29.625 6.3125 29.625 2.8125 31.5 C-0.6875 32.625 -0.6875 32.625 -2.6875 31.625 C-4.0609635 31.47495027 -5.4403526 31.37661994 -6.8203125 31.30859375 C-8.02880859 31.24575195 -8.02880859 31.24575195 -9.26171875 31.18164062 C-10.10347656 31.14232422 -10.94523437 31.10300781 -11.8125 31.0625 C-12.66199219 31.01931641 -13.51148438 30.97613281 -14.38671875 30.93164062 C-16.48678223 30.82545764 -18.58711948 30.72471503 -20.6875 30.625 C-21.89378008 28.29285852 -22.8529738 26.12857861 -23.6875 23.625 C-24.1825 26.1 -24.1825 26.1 -24.6875 28.625 C-25.3475 28.625 -26.0075 28.625 -26.6875 28.625 C-26.6875 29.285 -26.6875 29.945 -26.6875 30.625 C-32.52834538 31.98333613 -37.3746722 31.11969123 -43.2421875 30.10546875 C-48.40012401 29.38616468 -53.49225045 29.45650542 -58.6875 29.625 C-57.04183477 23.93997465 -54.39717216 18.85818364 -51.6875 13.625 C-49.0475 13.625 -46.4075 13.625 -43.6875 13.625 C-43.3575 14.615 -43.0275 15.605 -42.6875 16.625 C-41.965625 16.068125 -41.24375 15.51125 -40.5 14.9375 C-33.54426039 10.28377897 -22.52650519 5.48920918 -14 5.6875 C-11.04522465 5.60764121 -9.85515654 4.55180581 -7.6875 2.625 C-7.0275 2.955 -6.3675 3.285 -5.6875 3.625 C-5.6875 2.965 -5.6875 2.305 -5.6875 1.625 C-2.6875 -0.375 -2.6875 -0.375 0 0 Z " fill="#E7F4E9" transform="translate(64.6875,21.375)"/>
<path d="M0 0 C1.32 0 2.64 0 4 0 C6 2 6 2 6 5 C6.515625 4.649375 7.03125 4.29875 7.5625 3.9375 C10.94006667 2.6384359 13.50468057 3.32782319 17 4 C17 4.66 17 5.32 17 6 C20.27773504 5.24849977 20.27773504 5.24849977 22 2 C24.625 1.3125 24.625 1.3125 27 1 C27 1.66 27 2.32 27 3 C28.32 3.33 29.64 3.66 31 4 C31.495 5.98 31.495 5.98 32 8 C31.01 8 30.02 8 29 8 C28.76216797 8.80050781 28.76216797 8.80050781 28.51953125 9.6171875 C23.62390671 25.25072886 23.62390671 25.25072886 17.8125 29.125 C15 30 15 30 13 30 C13.495 31.485 13.495 31.485 14 33 C11.525 33.495 11.525 33.495 9 34 C9 33.34 9 32.68 9 32 C8.25234375 32.2165625 7.5046875 32.433125 6.734375 32.65625 C5.74953125 32.9346875 4.7646875 33.213125 3.75 33.5 C2.77546875 33.7784375 1.8009375 34.056875 0.796875 34.34375 C-2 35 -2 35 -6 35 C-6.66 33.35 -7.32 31.7 -8 30 C-9.65 30.33 -11.3 30.66 -13 31 C-12.67 29.35 -12.34 27.7 -12 26 C-14.97 26 -17.94 26 -21 26 C-20.34 24.35 -19.68 22.7 -19 21 C-16.03 21 -13.06 21 -10 21 C-9.67 19.68 -9.34 18.36 -9 17 C-11.64 16.67 -14.28 16.34 -17 16 C-16.34 14.35 -15.68 12.7 -15 11 C-14.30132812 10.97421875 -13.60265625 10.9484375 -12.8828125 10.921875 C-11.97273437 10.86515625 -11.06265625 10.8084375 -10.125 10.75 C-9.22007812 10.70359375 -8.31515625 10.6571875 -7.3828125 10.609375 C-6.59648437 10.40828125 -5.81015625 10.2071875 -5 10 C-4.34 8.68 -3.68 7.36 -3 6 C-6.96 6 -10.92 6 -15 6 C-15 5.34 -15 4.68 -15 4 C-14.16855469 3.96261719 -13.33710938 3.92523437 -12.48046875 3.88671875 C-11.39378906 3.82097656 -10.30710938 3.75523438 -9.1875 3.6875 C-8.10855469 3.62949219 -7.02960938 3.57148438 -5.91796875 3.51171875 C-2.68513031 2.94478189 -2.1448809 2.29237987 0 0 Z " fill="#DBF6E0" transform="translate(263,19)"/>
<path d="M0 0 C1.17175781 -0.05607422 1.17175781 -0.05607422 2.3671875 -0.11328125 C4.55959569 -0.14706836 6.48581729 -0.11052687 8.625 0.375 C11.55373222 3.70828473 12.21967419 6.80261204 12.04296875 11.25390625 C11.04985351 16.29373404 7.96834423 19.99271826 4.46875 23.59375 C0.62965324 25.99845896 -2.26475362 25.8305253 -6.6875 25.625 C-7.79834961 25.59792969 -7.79834961 25.59792969 -8.93164062 25.5703125 C-10.7466571 25.52347337 -12.56100166 25.45173789 -14.375 25.375 C-17.21252696 20.09780039 -17.93621455 17.26775283 -17.375 11.375 C-15.54232678 7.22737113 -12.64367309 4.47163766 -9.375 1.375 C-7.25639109 -0.74360891 -2.90950493 0.05229502 0 0 Z " fill="#309D40" transform="translate(126.375,24.625)"/>
<path d="M0 0 C0 3.3 0 6.6 0 10 C0.66 10 1.32 10 2 10 C2.12375 9.278125 2.2475 8.55625 2.375 7.8125 C2.9904931 5.04278106 3.88444374 2.6029646 5 0 C7.97 0 10.94 0 14 0 C8.57383321 18.08722265 8.57383321 18.08722265 2.97265625 22.65234375 C-0.65313008 24.54963604 -2.8234453 25 -7 25 C-7.33 21.04 -7.66 17.08 -8 13 C-8.66 13 -9.32 13 -10 13 C-10.1546875 14.0209375 -10.1546875 14.0209375 -10.3125 15.0625 C-11.14725019 18.62915989 -12.49472754 21.66222194 -14 25 C-16.97 25 -19.94 25 -23 25 C-20.93508631 17.17137092 -18.21049307 7.72373086 -11.97265625 2.20703125 C-8.03537831 0.11369921 -4.4750795 -0.44750795 0 0 Z " fill="#2D983E" transform="translate(279,25)"/>
<path d="M0 0 C0.99 0.66 1.98 1.32 3 2 C2.61560303 5.33144043 1.67036509 6.37672562 -0.625 9 C-1.40875 9.99 -2.1925 10.98 -3 12 C-2.84402344 12.62390625 -2.68804687 13.2478125 -2.52734375 13.890625 C-1.80710662 16.77157352 -2.65938893 18.11631657 -3.9375 20.75 C-4.31777344 21.54921875 -4.69804687 22.3484375 -5.08984375 23.171875 C-5.39019531 23.77515625 -5.69054687 24.3784375 -6 25 C-8.97 25 -11.94 25 -15 25 C-14.54177532 21.53058454 -14.10868317 18.32604951 -13 15 C-13.66 15 -14.32 15 -15 15 C-16.65 18.3 -18.3 21.6 -20 25 C-23.3 25 -26.6 25 -30 25 C-24.99824804 5.8266175 -24.99824804 5.8266175 -17.4375 1.3125 C-11.97291151 -0.85850899 -5.76219946 -0.67790582 0 0 Z " fill="#34943D" transform="translate(201,25)"/>
<path d="M0 0 C-0.63046603 2.78162695 -1.47315233 5.28492526 -2.62890625 7.890625 C-2.94150391 8.59960938 -3.25410156 9.30859375 -3.57617188 10.0390625 C-3.90166016 10.76867188 -4.22714844 11.49828125 -4.5625 12.25 C-4.89185547 12.99507812 -5.22121094 13.74015625 -5.56054688 14.5078125 C-6.37085066 16.33980368 -7.18504434 18.17007345 -8 20 C-6.02167397 19.47709283 -6.02167397 19.47709283 -4 18 C-2.52989809 14.81460395 -2.52989809 14.81460395 -1.3125 11.125 C0.04631723 7.55229834 1.21073923 4.6270839 4.28125 2.1875 C7.6780496 0.68761446 10.27821704 0 14 0 C13.32260562 4.92828953 11.36524862 9.1448857 9.3125 13.625 C8.98572266 14.388125 8.65894531 15.15125 8.32226562 15.9375 C6.66894855 19.54128866 5.49970519 21.63392863 2.25390625 24.01171875 C-1.75618066 25.22966831 -5.21639635 25.33414154 -9.375 25.1875 C-10.11105469 25.17396484 -10.84710938 25.16042969 -11.60546875 25.14648438 C-13.40396743 25.11144869 -15.20208422 25.05765288 -17 25 C-18.140625 23.49609375 -18.140625 23.49609375 -19 21 C-18.41365256 18.15501831 -17.7531535 15.75635132 -16.75 13.0625 C-16.34914185 11.98162109 -16.34914185 11.98162109 -15.94018555 10.87890625 C-14.05275964 6.32943101 -12.36118172 3.7910394 -7.8125 1.5 C-4.94286532 0.40680584 -3.08825631 0 0 0 Z " fill="#2B933C" transform="translate(65,25)"/>
<path d="M0 0 C0.33 1.65 0.66 3.3 1 5 C0.10796875 4.979375 -0.7840625 4.95875 -1.703125 4.9375 C-8.19693278 4.75053408 -8.19693278 4.75053408 -13.6484375 7.6015625 C-14.6656603 9.70924815 -15.35641704 11.75143236 -16 14 C-16.56722791 15.34026417 -17.1494013 16.67435421 -17.75 18 C-18.36875 19.485 -18.36875 19.485 -19 21 C-15.93600134 20.33029489 -15.93600134 20.33029489 -14.83203125 18.15234375 C-14.49558594 17.42144531 -14.15914062 16.69054687 -13.8125 15.9375 C-13.214375 14.638125 -12.61625 13.33875 -12 12 C-9.03 12 -6.06 12 -3 12 C-6.27124183 22.59259259 -6.27124183 22.59259259 -9 25 C-12.00977049 25.55028657 -14.95044641 25.46610302 -18 25.375 C-18.81984375 25.37371094 -19.6396875 25.37242188 -20.484375 25.37109375 C-26.57777256 25.28148496 -26.57777256 25.28148496 -30 23 C-29.0286302 15.69264988 -26.71665251 7.37392841 -21.09375 2.26953125 C-14.59062492 -1.09122555 -7.11503199 -0.36435441 0 0 Z " fill="#369144" transform="translate(171,25)"/>
<path d="M0 0 C-0.33 1.65 -0.66 3.3 -1 5 C-4.63 5 -8.26 5 -12 5 C-12.33 6.65 -12.66 8.3 -13 10 C-10.36 10 -7.72 10 -5 10 C-5.66 11.65 -6.32 13.3 -7 15 C-7.62648437 15.02578125 -8.25296875 15.0515625 -8.8984375 15.078125 C-9.71570313 15.13484375 -10.53296875 15.1915625 -11.375 15.25 C-12.18710938 15.29640625 -12.99921875 15.3428125 -13.8359375 15.390625 C-14.90714844 15.69226563 -14.90714844 15.69226563 -16 16 C-16.66 17.32 -17.32 18.64 -18 20 C-14.7 20 -11.4 20 -8 20 C-8.99 22.475 -8.99 22.475 -10 25 C-16.6 25 -23.2 25 -30 25 C-28.50138131 17.50690654 -26.52295684 8.40213341 -20.8359375 2.91015625 C-14.26634493 -0.7812272 -7.34354485 -0.51796163 0 0 Z " fill="#339B42" transform="translate(233,25)"/>
<path d="M0 0 C-0.66 1.65 -1.32 3.3 -2 5 C-2.69867188 5.02578125 -3.39734375 5.0515625 -4.1171875 5.078125 C-5.02726562 5.13484375 -5.93734375 5.1915625 -6.875 5.25 C-7.77992188 5.29640625 -8.68484375 5.3428125 -9.6171875 5.390625 C-10.40351563 5.59171875 -11.18984375 5.7928125 -12 6 C-12.66 7.32 -13.32 8.64 -14 10 C-11.03 10 -8.06 10 -5 10 C-5.66 11.65 -6.32 13.3 -7 15 C-7.62648437 15.02578125 -8.25296875 15.0515625 -8.8984375 15.078125 C-9.71570313 15.13484375 -10.53296875 15.1915625 -11.375 15.25 C-12.18710938 15.29640625 -12.99921875 15.3428125 -13.8359375 15.390625 C-14.90714844 15.69226563 -14.90714844 15.69226563 -16 16 C-16.66 17.32 -17.32 18.64 -18 20 C-15.03 20 -12.06 20 -9 20 C-9.33 21.65 -9.66 23.3 -10 25 C-16.6 25 -23.2 25 -30 25 C-29.14973016 19.89838096 -28.17821324 16.7949257 -26 12.25 C-25.195625 10.55617188 -25.195625 10.55617188 -24.375 8.828125 C-22.05908931 4.06471779 -20.68380827 2.9365965 -15.83203125 0.8203125 C-10.63662341 -0.68456426 -5.35472867 -0.29794472 0 0 Z " fill="#2B9C3D" transform="translate(260,25)"/>
<path d="M0 0 C3.99831798 0.71764682 5.16697715 1.16697715 8 4 C7.51789063 5.02480469 7.03578125 6.04960938 6.5390625 7.10546875 C5.90096806 8.46611131 5.26295133 9.82679033 4.625 11.1875 C4.30789062 11.86103516 3.99078125 12.53457031 3.6640625 13.22851562 C1.99988576 16.78222638 0.40908239 20.33496248 -1 24 C2.3 24 5.6 24 9 24 C9 24.33 9 24.66 9 25 C4.38 25.33 -0.24 25.66 -5 26 C-5.33 25.34 -5.66 24.68 -6 24 C-6.47953125 24.51175781 -6.9590625 25.02351563 -7.453125 25.55078125 C-11.29331919 27.73592242 -14.50368672 26.84592503 -18.75 26.1875 C-19.93916016 26.02411133 -19.93916016 26.02411133 -21.15234375 25.85742188 C-23.10376263 25.58704456 -25.0522372 25.29556663 -27 25 C-27 24.67 -27 24.34 -27 24 C-18.585 23.505 -18.585 23.505 -10 23 C-8.02 19.04 -6.04 15.08 -4 11 C-8.61390536 10.97475857 -8.61390536 10.97475857 -13 12 C-14.97538375 14.45237931 -16.02945538 17.02049588 -17 20 C-17.99 20 -18.98 20 -20 20 C-15.89320388 6.89320388 -15.89320388 6.89320388 -13 4 C-10.81360547 3.92741054 -8.62499611 3.91626217 -6.4375 3.9375 C-4.64119141 3.95103516 -4.64119141 3.95103516 -2.80859375 3.96484375 C-1.88175781 3.97644531 -0.95492187 3.98804688 0 4 C0 2.68 0 1.36 0 0 Z " fill="#F6FBF8" transform="translate(172,26)"/>
<path d="M0 0 C1.46953125 0.00966797 1.46953125 0.00966797 2.96875 0.01953125 C3.98453125 0.03628906 5.0003125 0.05304687 6.046875 0.0703125 C7.078125 0.07933594 8.109375 0.08835937 9.171875 0.09765625 C11.71377787 0.12119239 14.2552078 0.15407227 16.796875 0.1953125 C12.59691355 3.38903319 10.21269302 5.1953125 4.796875 5.1953125 C4.53132813 6.03320312 4.26578125 6.87109375 3.9921875 7.734375 C2.71745736 11.4252603 1.23219674 14.99426412 -0.328125 18.5703125 C-0.60527344 19.21097656 -0.88242188 19.85164063 -1.16796875 20.51171875 C-1.84412885 22.07388175 -2.52331207 23.63473565 -3.203125 25.1953125 C-6.833125 25.1953125 -10.463125 25.1953125 -14.203125 25.1953125 C-11.53645833 18.52864583 -8.86979167 11.86197917 -6.203125 5.1953125 C-8.513125 5.1953125 -10.823125 5.1953125 -13.203125 5.1953125 C-8.77532355 1.71632565 -5.71723566 -0.06647948 0 0 Z " fill="#379544" transform="translate(95.203125,24.8046875)"/>
<path d="M0 0 C-1.02738281 0.4846875 -2.05476563 0.969375 -3.11328125 1.46875 C-13.00790394 6.22214302 -22.15500076 11.31154965 -30.125 19 C-34.08747503 21.75650437 -37.31904185 21.46809582 -42 21 C-40.36041242 15.76727367 -38.61047965 10.84803364 -36 6 C-33.36 6 -30.72 6 -28 6 C-27.67 6.99 -27.34 7.98 -27 9 C-25.9171875 8.1646875 -25.9171875 8.1646875 -24.8125 7.3125 C-18.43039195 3.02715167 -7.71786136 -2.48074115 0 0 Z " fill="#0D0C0B" transform="translate(49,29)"/>
<path d="M0 0 C0.33 0.66 0.66 1.32 1 2 C2.485 2.495 2.485 2.495 4 3 C3.67 3.66 3.34 4.32 3 5 C2.77049681 7.204364 2.58924067 9.41392173 2.4375 11.625 C2.35371094 12.81351563 2.26992188 14.00203125 2.18359375 15.2265625 C2.09271484 16.59941406 2.09271484 16.59941406 2 18 C-3.84084538 19.35833613 -8.6871722 18.49469123 -14.5546875 17.48046875 C-19.71262401 16.76116468 -24.80475045 16.83150542 -30 17 C-29.67 16.34 -29.34 15.68 -29 15 C-27.741875 15.185625 -26.48375 15.37125 -25.1875 15.5625 C-19.15945281 15.59088955 -16.04794337 12.25701432 -11.73046875 8.40234375 C-8.07395963 5.18524345 -4.11324261 2.58981942 0 0 Z " fill="#EBFAEA" transform="translate(36,34)"/>
<path d="M0 0 C0.66 0.33 1.32 0.66 2 1 C1.34 3.97 0.68 6.94 0 10 C-0.66 10 -1.32 10 -2 10 C-1.67 12.64 -1.34 15.28 -1 18 C0.65 18 2.3 18 4 18 C4 17.34 4 16.68 4 16 C4.99 15.67 5.98 15.34 7 15 C8.23277127 13.13977928 8.23277127 13.13977928 9.1875 10.9375 C9.785625 9.638125 10.38375 8.33875 11 7 C13.97 7 16.94 7 20 7 C16.72875817 17.59259259 16.72875817 17.59259259 14 20 C10.99022951 20.55028657 8.04955359 20.46610302 5 20.375 C4.18015625 20.37371094 3.3603125 20.37242188 2.515625 20.37109375 C-3.57777256 20.28148496 -3.57777256 20.28148496 -7 18 C-6.44380331 13.3110507 -5.11817327 9.80075733 -2.9375 5.625 C-2.38964844 4.56539062 -1.84179688 3.50578125 -1.27734375 2.4140625 C-0.85582031 1.61742188 -0.43429688 0.82078125 0 0 Z " fill="#399347" transform="translate(148,30)"/>
<path d="M0 0 C0.66 0.33 1.32 0.66 2 1 C1.67 2.32 1.34 3.64 1 5 C2.32 5.33 3.64 5.66 5 6 C5 12.12892216 3.48599237 16.48758213 1 22 C-1.97 22 -4.94 22 -8 22 C-7.49202991 17.6822542 -6.80317221 13.96697886 -5 10 C-7.64 10 -10.28 10 -13 10 C-13.33 10.66 -13.66 11.32 -14 12 C-15.16095535 9.15038233 -15.06567925 8.16054927 -13.875 5.25 C-12 3 -12 3 -9.3125 2.6875 C-8.549375 2.790625 -7.78625 2.89375 -7 3 C-6.67 3.99 -6.34 4.98 -6 6 C-6.99 6.33 -7.98 6.66 -9 7 C-6.03 7.495 -6.03 7.495 -3 8 C-2.01 5.36 -1.02 2.72 0 0 Z " fill="#279733" transform="translate(194,28)"/>
<path d="M0 0 C4.95 0 9.9 0 15 0 C15.33 2.64 15.66 5.28 16 8 C14.5682384 8.69937202 13.12932968 9.38412718 11.6875 10.0625 C10.88699219 10.44535156 10.08648437 10.82820313 9.26171875 11.22265625 C7 12 7 12 4 11 C2.60560336 10.93334624 1.20830125 10.91461801 -0.1875 10.9375 C-1.445625 10.958125 -2.70375 10.97875 -4 11 C-3.52269162 9.5410574 -3.04308958 8.08286504 -2.5625 6.625 C-2.29566406 5.81289063 -2.02882813 5.00078125 -1.75390625 4.1640625 C-1 2 -1 2 0 0 Z " fill="#299F38" transform="translate(19,21)"/>
<path d="M0 0 C0.74958984 0.00902344 1.49917969 0.01804687 2.27148438 0.02734375 C4.11862654 0.05087422 5.96560412 0.08674439 7.8125 0.125 C7.4825 1.115 7.1525 2.105 6.8125 3.125 C7.1425 3.785 7.4725 4.445 7.8125 5.125 C6.925625 5.455 6.03875 5.785 5.125 6.125 C0.0755033 9.17375273 -2.46819228 13.46909458 -4 19.125 C-4.061875 19.785 -4.12375 20.445 -4.1875 21.125 C-4.8475 20.135 -5.5075 19.145 -6.1875 18.125 C-5.25359915 14.13469635 -3.82775891 11.24530598 -1.1875 8.125 C-3.1675 9.115 -3.1675 9.115 -5.1875 10.125 C-5.8475 9.135 -6.5075 8.145 -7.1875 7.125 C-8.1775 7.125 -9.1675 7.125 -10.1875 7.125 C-10.8475 8.775 -11.5075 10.425 -12.1875 12.125 C-12.8475 12.125 -13.5075 12.125 -14.1875 12.125 C-14.1875 13.445 -14.1875 14.765 -14.1875 16.125 C-14.8475 16.125 -15.5075 16.125 -16.1875 16.125 C-15.93329557 10.29100842 -15.57386822 6.38235739 -11.1875 2.125 C-7.39586973 -0.40275351 -4.37875969 -0.09943035 0 0 Z " fill="#2C9F3D" transform="translate(126.1875,24.875)"/>
<path d="M0 0 C1.65418945 0.12955078 1.65418945 0.12955078 3.34179688 0.26171875 C5.05399414 0.42220703 5.05399414 0.42220703 6.80078125 0.5859375 C7.95384766 0.66972656 9.10691406 0.75351562 10.29492188 0.83984375 C16.64802577 1.3838632 16.64802577 1.3838632 19.11328125 1.9609375 C20.10328125 3.4459375 20.10328125 3.4459375 21.11328125 4.9609375 C20.32953125 5.7034375 19.54578125 6.4459375 18.73828125 7.2109375 C14.65772401 11.48580698 13.77484043 13.9003212 13.91015625 19.921875 C14.19500171 22.7812852 15.05040759 25.30375335 16.11328125 27.9609375 C12.62904999 26.15874892 11.65134847 24.17057033 10.48828125 20.5859375 C10.02198559 19.04666043 9.56299641 17.50514015 9.11328125 15.9609375 C8.23113238 13.07878863 8.23113238 13.07878863 7.11328125 10.9609375 C6.12328125 10.6309375 5.13328125 10.3009375 4.11328125 9.9609375 C4.11328125 9.3009375 4.11328125 8.6409375 4.11328125 7.9609375 C7.41328125 6.6409375 10.71328125 5.3209375 14.11328125 3.9609375 C10.86322565 3.93395364 7.61339439 3.91410609 4.36328125 3.8984375 C3.44289063 3.89005859 2.5225 3.88167969 1.57421875 3.87304688 C0.68476562 3.86982422 -0.2046875 3.86660156 -1.12109375 3.86328125 C-2.34650879 3.85542603 -2.34650879 3.85542603 -3.59667969 3.84741211 C-5.8264001 3.95794729 -7.7480563 4.34038183 -9.88671875 4.9609375 C-10.21671875 4.3009375 -10.54671875 3.6409375 -10.88671875 2.9609375 C-7.02931164 0.2426868 -4.68458214 -0.37350907 0 0 Z " fill="#ECF9F2" transform="translate(95.88671875,22.0390625)"/>
<path d="M0 0 C-0.33 1.98 -0.66 3.96 -1 6 C5.6 6 12.2 6 19 6 C14.84126113 9.11905415 14.31173318 9.36856644 9.5 9.2578125 C8.448125 9.24363281 7.39625 9.22945312 6.3125 9.21484375 C5.219375 9.18519531 4.12625 9.15554687 3 9.125 C0.83341656 9.08156613 -1.33325619 9.0423317 -3.5 9.0078125 C-4.4590625 8.98348145 -5.418125 8.95915039 -6.40625 8.93408203 C-8.80093003 8.9949408 -10.70269274 9.38614831 -13 10 C-15.08674954 9.91620565 -17.17149066 9.76583244 -19.25 9.5625 C-20.32765625 9.46066406 -21.4053125 9.35882813 -22.515625 9.25390625 C-23.33546875 9.17011719 -24.1553125 9.08632813 -25 9 C-25 8.34 -25 7.68 -25 7 C-26.32 7 -27.64 7 -29 7 C-28.67 6.01 -28.34 5.02 -28 4 C-28 4.66 -28 5.32 -28 6 C-21.4 6 -14.8 6 -8 6 C-7.34 4.68 -6.68 3.36 -6 2 C-3.83022576 0.6438911 -2.5637264 0 0 0 Z " fill="#D2F2D8" transform="translate(231,44)"/>
<path d="M0 0 C1.15371094 -0.01417969 2.30742187 -0.02835938 3.49609375 -0.04296875 C6.5625 0.1875 6.5625 0.1875 9.5625 2.1875 C9.02023019 5.98338866 7.36122437 7.65961993 4.5625 10.1875 C2.625 9.5 2.625 9.5 0.5625 8.1875 C-0.1875 5.5625 -0.1875 5.5625 -0.4375 3.1875 C-0.7675 5.8275 -1.0975 8.4675 -1.4375 11.1875 C-4.81567425 12.03204356 -7.11215243 12.29594919 -10.4375 11.1875 C-9.7775 9.8675 -9.1175 8.5475 -8.4375 7.1875 C-8.4375 7.8475 -8.4375 8.5075 -8.4375 9.1875 C-7.7775 9.1875 -7.1175 9.1875 -6.4375 9.1875 C-7.2109375 8.32125 -7.2109375 8.32125 -8 7.4375 C-9.4375 5.1875 -9.4375 5.1875 -9.25 3 C-7.51336141 -0.87403992 -3.73830444 0.02083782 0 0 Z " fill="#3D8A43" transform="translate(194.4375,24.8125)"/>
<path d="M0 0 C1.16499023 0.02803711 1.16499023 0.02803711 2.35351562 0.05664062 C8.04195666 0.33591809 8.04195666 0.33591809 10.59765625 2.67578125 C11.5625 4.8125 11.5625 4.8125 11.5625 7.8125 C12.2225 7.8125 12.8825 7.8125 13.5625 7.8125 C13.8925 7.1525 14.2225 6.4925 14.5625 5.8125 C14.8925 7.1325 15.2225 8.4525 15.5625 9.8125 C14.5725 10.3075 14.5725 10.3075 13.5625 10.8125 C13.8925 12.7925 14.2225 14.7725 14.5625 16.8125 C15.2225 16.4825 15.8825 16.1525 16.5625 15.8125 C16.39492187 16.51117188 16.22734375 17.20984375 16.0546875 17.9296875 C15.85101563 18.83976562 15.64734375 19.74984375 15.4375 20.6875 C15.12425781 22.04488281 15.12425781 22.04488281 14.8046875 23.4296875 C14.72476563 24.21601562 14.64484375 25.00234375 14.5625 25.8125 C15.2225 26.4725 15.8825 27.1325 16.5625 27.8125 C15.2425 27.4825 13.9225 27.1525 12.5625 26.8125 C12.5625 24.8325 12.5625 22.8525 12.5625 20.8125 C10.56266466 21.60367904 10.56266466 21.60367904 8.5625 22.8125 C8.2325 23.8025 7.9025 24.7925 7.5625 25.8125 C5.9125 26.1425 4.2625 26.4725 2.5625 26.8125 C2.98402344 26.18601562 3.40554687 25.55953125 3.83984375 24.9140625 C4.38769531 24.09679687 4.93554688 23.27953125 5.5 22.4375 C6.04527344 21.62539063 6.59054688 20.81328125 7.15234375 19.9765625 C9.74607725 15.99615153 10.08491782 12.50540583 9.5625 7.8125 C8.9025 6.4925 8.2425 5.1725 7.5625 3.8125 C1.6225 3.8125 -4.3175 3.8125 -10.4375 3.8125 C-10.4375 2.8225 -10.4375 1.8325 -10.4375 0.8125 C-7.14788901 -0.8323055 -3.5903872 -0.1749239 0 0 Z " fill="#E9FAE6" transform="translate(127.4375,22.1875)"/>
<path d="M0 0 C3.8632842 0.45835575 6.35195188 1.48498403 9.6875 3.4375 C9.0275 4.0975 8.3675 4.7575 7.6875 5.4375 C9.3375 5.7675 10.9875 6.0975 12.6875 6.4375 C12.03465354 10.4132616 10.81569283 13.85501371 9.25 17.5625 C8.81816406 18.59632812 8.38632813 19.63015625 7.94140625 20.6953125 C6.6875 23.4375 6.6875 23.4375 4.6875 26.4375 C8.3175 26.4375 11.9475 26.4375 15.6875 26.4375 C16.6775 23.1375 17.6675 19.8375 18.6875 16.4375 C19.0175 16.4375 19.3475 16.4375 19.6875 16.4375 C19.6875 18.7475 19.6875 21.0575 19.6875 23.4375 C19.0275 23.4375 18.3675 23.4375 17.6875 23.4375 C17.3575 24.7575 17.0275 26.0775 16.6875 27.4375 C12.3975 27.4375 8.1075 27.4375 3.6875 27.4375 C2.58151761 21.90758803 3.01474817 20.91755403 5.25 16 C6.93696269 12.45953135 6.93696269 12.45953135 6.6875 8.4375 C4.26077433 6.64780974 4.26077433 6.64780974 1.6875 5.4375 C2.0175 4.1175 2.3475 2.7975 2.6875 1.4375 C-1.7675 2.9225 -1.7675 2.9225 -6.3125 4.4375 C-4.5483196 1.11668984 -3.81491705 0.50385697 0 0 Z " fill="#EEFCE9" transform="translate(76.3125,23.5625)"/>
<path d="M0 0 C1.74216797 0.02707031 1.74216797 0.02707031 3.51953125 0.0546875 C4.39996094 0.07789062 5.28039062 0.10109375 6.1875 0.125 C5.5275 1.775 4.8675 3.425 4.1875 5.125 C3.48882812 5.15078125 2.79015625 5.1765625 2.0703125 5.203125 C1.16023437 5.25984375 0.25015625 5.3165625 -0.6875 5.375 C-1.59242188 5.42140625 -2.49734375 5.4678125 -3.4296875 5.515625 C-4.21601563 5.71671875 -5.00234375 5.9178125 -5.8125 6.125 C-6.4725 7.445 -7.1325 8.765 -7.8125 10.125 C-4.8425 10.125 -1.8725 10.125 1.1875 10.125 C0.5275 11.775 -0.1325 13.425 -0.8125 15.125 C-6.96484375 15.22265625 -6.96484375 15.22265625 -8.8125 15.125 C-9.8125 14.125 -9.8125 14.125 -9.83984375 12.1640625 C-9.78013779 10.55978941 -9.71765542 8.95561715 -9.65234375 7.3515625 C-9.64923546 4.83518975 -9.64923546 4.83518975 -11.8125 2.125 C-7.73526266 0.17468308 -4.49557578 -0.09081971 0 0 Z " fill="#389343" transform="translate(253.8125,24.875)"/>
<path d="M0 0 C2.125 0.9375 2.125 0.9375 4 2 C3.41437029 8.00270455 1.30369964 12.69630036 -3 17 C-5.625 17.125 -5.625 17.125 -8 17 C-8.56946521 11.68499135 -8.36651929 8.91337419 -5.125 4.5625 C-3.44722836 2.49162728 -2.38655791 1.19327895 0 0 Z " fill="#E1F7E2" transform="translate(131,30)"/>
<path d="M0 0 C0.66 0 1.32 0 2 0 C2.33 3.96 2.66 7.92 3 12 C5.475 12.495 5.475 12.495 8 13 C7.67 13.66 7.34 14.32 7 15 C5.68 15 4.36 15 3 15 C3 14.34 3 13.68 3 13 C2.25234375 13.2165625 1.5046875 13.433125 0.734375 13.65625 C-0.25046875 13.9346875 -1.2353125 14.213125 -2.25 14.5 C-3.22453125 14.7784375 -4.1990625 15.056875 -5.203125 15.34375 C-8 16 -8 16 -12 16 C-12.66 14.35 -13.32 12.7 -14 11 C-15.65 11.33 -17.3 11.66 -19 12 C-18.67 10.35 -18.34 8.7 -18 7 C-17.34 7 -16.68 7 -16 7 C-16 7.66 -16 8.32 -16 9 C-15.01 9.33 -14.02 9.66 -13 10 C-13 10.66 -13 11.32 -13 12 C-10.03 12 -7.06 12 -4 12 C-3.8453125 10.9790625 -3.8453125 10.9790625 -3.6875 9.9375 C-2.85274981 6.37084011 -1.50527246 3.33777806 0 0 Z " fill="#E0F8E5" transform="translate(269,38)"/>
<path d="M0 0 C1.65 0 3.3 0 5 0 C5.68025637 1.99541868 6.34490497 3.99617991 7 6 C7.268125 6.66 7.53625 7.32 7.8125 8 C8.10971035 11.17024373 6.53118594 13.30511275 5 16 C4.34 16 3.68 16 3 16 C2.67 12.37 2.34 8.74 2 5 C0.41412493 6.58587507 0.53646269 8.50566783 0.1875 10.6875 C-0.69581271 15.38726307 -2.05480472 18.26941932 -5 22 C-5.66 21.67 -6.32 21.34 -7 21 C-6.34 19.02 -5.68 17.04 -5 15 C-4.34 15 -3.68 15 -3 15 C-3.05220703 14.12988281 -3.05220703 14.12988281 -3.10546875 13.2421875 C-3.28744524 7.990866 -2.83377711 4.60488781 0 0 Z " fill="#F5FDF0" transform="translate(99,32)"/>
<path d="M0 0 C0.33 0 0.66 0 1 0 C0.67 3.63 0.34 7.26 0 11 C0.66 11 1.32 11 2 11 C2.33 10.34 2.66 9.68 3 9 C3.99 9 4.98 9 6 9 C6.66 8.34 7.32 7.68 8 7 C10.1640625 7.0234375 10.1640625 7.0234375 12.625 7.375 C13.85089844 7.54128906 13.85089844 7.54128906 15.1015625 7.7109375 C16.04128906 7.85402344 16.04128906 7.85402344 17 8 C16.67 9.65 16.34 11.3 16 13 C9.4 13 2.8 13 -4 13 C-3.12288257 7.7372954 -2.1476409 4.66878456 0 0 Z " fill="#3A9749" transform="translate(234,37)"/>
<path d="M0 0 C0.33 0 0.66 0 1 0 C1 1.65 1 3.3 1 5 C0.34 5 -0.32 5 -1 5 C-1.04241723 7.33294775 -1.04092937 9.66702567 -1 12 C-0.67 12.33 -0.34 12.66 0 13 C0.33 12.34 0.66 11.68 1 11 C1.99 11.33 2.98 11.66 4 12 C2.68 14.97 1.36 17.94 0 21 C-2.97 21 -5.94 21 -9 21 C-7.67638087 15.80579767 -5.84603836 11.30870173 -3.375 6.5625 C-3.05015625 5.92634766 -2.7253125 5.29019531 -2.390625 4.63476562 C-1.59928647 3.08700056 -0.8004333 1.5430813 0 0 Z " fill="#34913F" transform="translate(265,29)"/>
<path d="M0 0 C2.80163026 4.2024454 2.14489712 7.00104935 2 12 C-1.96 12 -5.92 12 -10 12 C-10 10.35 -10 8.7 -10 7 C-7.8125 4.98046875 -7.8125 4.98046875 -5 3.1875 C-4.071875 2.58292969 -3.14375 1.97835937 -2.1875 1.35546875 C-1.1046875 0.68451172 -1.1046875 0.68451172 0 0 Z " fill="#328F3F" transform="translate(35,38)"/>
<path d="M0 0 C5.61 0 11.22 0 17 0 C17 2.97 17 5.94 17 9 C17.66 9 18.32 9 19 9 C19 9.66 19 10.32 19 11 C18.18015625 11.32613281 17.3603125 11.65226562 16.515625 11.98828125 C14.89914063 12.64376953 14.89914063 12.64376953 13.25 13.3125 C12.18265625 13.74175781 11.1153125 14.17101563 10.015625 14.61328125 C7.3347085 15.84608612 5.2616808 17.12807487 3 19 C2.34 18.67 1.68 18.34 1 18 C1.33 17.01 1.66 16.02 2 15 C-0.33317216 14.22227595 -2.61435923 13.57584432 -5 13 C-4.67 12.01 -4.34 11.02 -4 10 C-4 10.66 -4 11.32 -4 12 C0.455 11.505 0.455 11.505 5 11 C5 11.66 5 12.32 5 13 C5.54269531 12.71125 6.08539063 12.4225 6.64453125 12.125 C7.35996094 11.75375 8.07539063 11.3825 8.8125 11 C9.52019531 10.62875 10.22789063 10.2575 10.95703125 9.875 C13 9 13 9 16 9 C15.67 6.36 15.34 3.72 15 1 C10.05 1 5.1 1 0 1 C0 0.67 0 0.34 0 0 Z " fill="#BDE0C4" transform="translate(19,20)"/>
<path d="M0 0 C2 1 2 1 3 2 C3.66 2.33 4.32 2.66 5 3 C4.86722656 3.64066406 4.73445312 4.28132813 4.59765625 4.94140625 C3.57506994 9.94983993 2.66115853 14.93111794 2 20 C0.35 20 -1.3 20 -3 20 C-3.73080266 18.02253397 -4.39421747 16.01927511 -5 14 C-4.67 13.34 -4.34 12.68 -4 12 C-3.34 12 -2.68 12 -2 12 C-1.80508548 10.54263913 -1.61930642 9.08405407 -1.4375 7.625 C-1.33308594 6.81289063 -1.22867188 6.00078125 -1.12109375 5.1640625 C-0.81762672 2.95100814 -0.81762672 2.95100814 -2 1 C-1.34 0.67 -0.68 0.34 0 0 Z " fill="#329C3C" transform="translate(150,28)"/>
<path d="M0 0 C0.9796875 0.00644531 1.959375 0.01289063 2.96875 0.01953125 C3.98453125 0.03628906 5.0003125 0.05304687 6.046875 0.0703125 C7.078125 0.07933594 8.109375 0.08835937 9.171875 0.09765625 C11.71377787 0.12119239 14.2552078 0.15407227 16.796875 0.1953125 C12.59691355 3.38903319 10.21269302 5.1953125 4.796875 5.1953125 C4.466875 5.8553125 4.136875 6.5153125 3.796875 7.1953125 C3.136875 6.8653125 2.476875 6.5353125 1.796875 6.1953125 C1.796875 5.5353125 1.796875 4.8753125 1.796875 4.1953125 C-0.513125 3.8653125 -2.823125 3.5353125 -5.203125 3.1953125 C-5.533125 4.1853125 -5.863125 5.1753125 -6.203125 6.1953125 C-8.513125 5.8653125 -10.823125 5.5353125 -13.203125 5.1953125 C-8.77532355 1.71632565 -5.71723566 -0.06647948 0 0 Z " fill="#3A8D45" transform="translate(95.203125,24.8046875)"/>
<path d="M0 0 C3.05496644 2.92214182 3.92474867 4.27257048 4.375 8.625 C4.31034463 13.70506443 2.15952364 17.14025761 -1 21 C-3.8125 23.5 -3.8125 23.5 -6 25 C-8.475 24.01 -8.475 24.01 -11 23 C-11 22.67 -11 22.34 -11 22 C-10.0925 21.814375 -9.185 21.62875 -8.25 21.4375 C-4.07576561 19.59120402 -2.65962373 17.06820586 -1 13 C0.14603837 9.96548029 0.14603837 9.96548029 0 7 C-1.81088845 4.13034253 -1.81088845 4.13034253 -4 2 C-2.68 1.34 -1.36 0.68 0 0 Z " fill="#338340" transform="translate(134,25)"/>
<path d="M0 0 C0.33 0.66 0.66 1.32 1 2 C3.02463255 2.65213292 3.02463255 2.65213292 5 3 C5.33 4.32 5.66 5.64 6 7 C5.34 7 4.68 7 4 7 C4 6.34 4 5.68 4 5 C1.03 5 -1.94 5 -5 5 C-5.12375 5.721875 -5.2475 6.44375 -5.375 7.1875 C-5.9904931 9.95721894 -6.88444374 12.3970354 -8 15 C-8.66 15 -9.32 15 -10 15 C-10 11.7 -10 8.4 -10 5 C-12.31 5.33 -14.62 5.66 -17 6 C-17 3 -17 3 -16 2 C-13.66055264 2.28730055 -11.3260857 2.61936779 -9 3 C-9 3.66 -9 4.32 -9 5 C-5.72226496 4.24849977 -5.72226496 4.24849977 -4 1 C-1.875 0.3125 -1.875 0.3125 0 0 Z " fill="#E2FDE6" transform="translate(289,20)"/>
<path d="M0 0 C0.625 1.875 0.625 1.875 1 4 C0.34 4.66 -0.32 5.32 -1 6 C-2.47956318 9.36211914 -2.47956318 9.36211914 0 14 C4.29 14 8.58 14 13 14 C12.67 14.99 12.34 15.98 12 17 C5.4 17 -1.2 17 -8 17 C-7.18049925 12.90249625 -6.26346144 9.98504886 -4.5625 6.25 C-3.91474609 4.80367187 -3.91474609 4.80367187 -3.25390625 3.328125 C-2 1 -2 1 0 0 Z " fill="#309242" transform="translate(211,33)"/>
<path d="M0 0 C0.99 0.33 1.98 0.66 3 1 C2.01 4.3 1.02 7.6 0 11 C2.97 11 5.94 11 9 11 C9.1546875 9.88625 9.1546875 9.88625 9.3125 8.75 C10.04253504 5.82985982 11.06789398 4.26812446 13 2 C13.43200679 6.75207471 11.98489083 9.78210698 10 14 C6.04 14 2.08 14 -2 14 C-1.67 12.68 -1.34 11.36 -1 10 C-2.32 10.33 -3.64 10.66 -5 11 C-3.77472971 6.94718288 -2.30119506 3.55639236 0 0 Z " fill="#D4EED8" transform="translate(186,39)"/>
<path d="M0 0 C-0.65707956 4.98783119 -2.74630067 9.18976433 -4.875 13.6875 C-5.22691406 14.45900391 -5.57882813 15.23050781 -5.94140625 16.02539062 C-6.28816406 16.76337891 -6.63492188 17.50136719 -6.9921875 18.26171875 C-7.46180908 19.26658325 -7.46180908 19.26658325 -7.94091797 20.29174805 C-9 22 -9 22 -12 24 C-12.99 23.67 -13.98 23.34 -15 23 C-14.01 22.67 -13.02 22.34 -12 22 C-11.19787372 20.12612784 -11.19787372 20.12612784 -10.8125 17.9375 C-10.65394531 17.20402344 -10.49539062 16.47054687 -10.33203125 15.71484375 C-10.22246094 15.14894531 -10.11289063 14.58304688 -10 14 C-9.34 14 -8.68 14 -8 14 C-7.34 11.03 -6.68 8.06 -6 5 C-7.32 4.34 -8.64 3.68 -10 3 C-3.375 0 -3.375 0 0 0 Z " fill="#358C40" transform="translate(79,25)"/>
<path d="M0 0 C-1.59328125 0.77923828 -1.59328125 0.77923828 -3.21875 1.57421875 C-10.35875038 5.09023028 -17.3659683 8.5773122 -24 13 C-24.66 11.35 -25.32 9.7 -26 8 C-7.15992869 -2.00271827 -7.15992869 -2.00271827 0 0 Z " fill="#191917" transform="translate(49,29)"/>
<path d="M0 0 C0.33 0.99 0.66 1.98 1 3 C1.66 3 2.32 3 3 3 C3 3.66 3 4.32 3 5 C2.34 5 1.68 5 1 5 C-0.20465156 9.65798604 -1.28547412 14.23649415 -2 19 C-2.99 19.33 -3.98 19.66 -5 20 C-5.66 20.66 -6.32 21.32 -7 22 C-8.36884358 17.48281619 -7.47075246 14.41225737 -6 10 C-5.34 10 -4.68 10 -4 10 C-2.83968404 5.93274061 -2.83968404 5.93274061 -4 2 C-2.68 2 -1.36 2 0 2 C0 1.34 0 0.68 0 0 Z " fill="#279E3A" transform="translate(94,26)"/>
<path d="M0 0 C1.79244141 0.01740234 1.79244141 0.01740234 3.62109375 0.03515625 C5.41740234 0.04869141 5.41740234 0.04869141 7.25 0.0625 C8.17683594 0.07410156 9.10367188 0.08570312 10.05859375 0.09765625 C6.70531736 2.33317384 6.15115718 2.27049153 2.37109375 1.72265625 C1.56285156 1.61179687 0.75460938 1.5009375 -0.078125 1.38671875 C-0.69300781 1.29132812 -1.30789062 1.1959375 -1.94140625 1.09765625 C-1.61140625 2.41765625 -1.28140625 3.73765625 -0.94140625 5.09765625 C2.52359375 4.60265625 2.52359375 4.60265625 6.05859375 4.09765625 C6.05859375 5.08765625 6.05859375 6.07765625 6.05859375 7.09765625 C5.15367187 7.06671875 5.15367187 7.06671875 4.23046875 7.03515625 C1.62891371 7.10229315 -0.46514411 7.27507692 -2.94140625 8.09765625 C-4.91679 10.55003556 -5.97086163 13.11815213 -6.94140625 16.09765625 C-7.93140625 16.09765625 -8.92140625 16.09765625 -9.94140625 16.09765625 C-4.94895713 0.16430801 -4.94895713 0.16430801 0 0 Z " fill="#DDFAE3" transform="translate(161.94140625,29.90234375)"/>
<path d="M0 0 C1.65418945 0.12955078 1.65418945 0.12955078 3.34179688 0.26171875 C5.05399414 0.42220703 5.05399414 0.42220703 6.80078125 0.5859375 C7.95384766 0.66972656 9.10691406 0.75351562 10.29492188 0.83984375 C16.64802577 1.3838632 16.64802577 1.3838632 19.11328125 1.9609375 C20.10328125 3.4459375 20.10328125 3.4459375 21.11328125 4.9609375 C19.46328125 6.2809375 17.81328125 7.6009375 16.11328125 8.9609375 C14.79328125 7.6409375 13.47328125 6.3209375 12.11328125 4.9609375 C12.77328125 4.6309375 13.43328125 4.3009375 14.11328125 3.9609375 C10.86330013 3.93183987 7.61335268 3.91410589 4.36328125 3.8984375 C3.44289063 3.89005859 2.5225 3.88167969 1.57421875 3.87304688 C0.68476562 3.86982422 -0.2046875 3.86660156 -1.12109375 3.86328125 C-2.34650879 3.85542603 -2.34650879 3.85542603 -3.59667969 3.84741211 C-5.8264001 3.95794729 -7.7480563 4.34038183 -9.88671875 4.9609375 C-10.21671875 4.3009375 -10.54671875 3.6409375 -10.88671875 2.9609375 C-7.02931164 0.2426868 -4.68458214 -0.37350907 0 0 Z " fill="#C8F0D0" transform="translate(95.88671875,22.0390625)"/>
<path d="M0 0 C0.33 0 0.66 0 1 0 C1 1.98 1 3.96 1 6 C1.99 5.34 2.98 4.68 4 4 C6 3 6 3 8 3 C8.33 2.34 8.66 1.68 9 1 C11.97 1.495 11.97 1.495 15 2 C15 2.99 15 3.98 15 5 C13.5682384 5.69937202 12.12932968 6.38412718 10.6875 7.0625 C9.88699219 7.44535156 9.08648437 7.82820313 8.26171875 8.22265625 C6 9 6 9 3 8 C1.60560336 7.93334624 0.20830125 7.91461801 -1.1875 7.9375 C-2.445625 7.958125 -3.70375 7.97875 -5 8 C-5 6 -5 6 -3.0625 4 C-2.381875 3.34 -1.70125 2.68 -1 2 C-0.67 1.34 -0.34 0.68 0 0 Z " fill="#3A954A" transform="translate(20,24)"/>
<path d="M0 0 C3 1 3 1 6 3 C6 4.32 6 5.64 6 7 C5.01 7 4.02 7 3 7 C2.67 7.66 2.34 8.32 2 9 C1.34 9 0.68 9 0 9 C-0.99 11.31 -1.98 13.62 -3 16 C-3.66 16 -4.32 16 -5 16 C-4.70887831 9.58076669 -3.54784971 5.37899794 0 0 Z " fill="#EAF8ED" transform="translate(78,29)"/>
<path d="M0 0 C0.42483659 4.67320245 -1.07875109 7.78803123 -3 12 C-3.68836513 13.99263591 -4.36281399 15.99041337 -5 18 C-5.33 17.01 -5.66 16.02 -6 15 C-6.66 15 -7.32 15 -8 15 C-8 16.65 -8 18.3 -8 20 C-8.33 20 -8.66 20 -9 20 C-9.04241723 17.66705225 -9.04092937 15.33297433 -9 13 C-8.67 12.67 -8.34 12.34 -8 12 C-7.938125 10.741875 -7.87625 9.48375 -7.8125 8.1875 C-7.41028543 4.39032176 -7.17760777 4.14800647 -4 1.5 C-1 0 -1 0 0 0 Z " fill="#F0FAEF" transform="translate(206,34)"/>
<path d="M0 0 C0.66 0.33 1.32 0.66 2 1 C1.67 2.32 1.34 3.64 1 5 C2.32 5.66 3.64 6.32 5 7 C3.68 7 2.36 7 1 7 C1 7.99 1 8.98 1 10 C-0.32 9.34 -1.64 8.68 -3 8 C-2.01 5.36 -1.02 2.72 0 0 Z M-9.3125 2.6875 C-8.549375 2.790625 -7.78625 2.89375 -7 3 C-6.67 3.99 -6.34 4.98 -6 6 C-6.99 6.33 -7.98 6.66 -9 7 C-7.02 7.66 -5.04 8.32 -3 9 C-3.66 10.32 -4.32 11.64 -5 13 C-5 12.01 -5 11.02 -5 10 C-7.64 10 -10.28 10 -13 10 C-13.33 10.66 -13.66 11.32 -14 12 C-15.16095535 9.15038233 -15.06567925 8.16054927 -13.875 5.25 C-12 3 -12 3 -9.3125 2.6875 Z " fill="#229730" transform="translate(194,28)"/>
<path d="M0 0 C3.99831798 0.71764682 5.16697715 1.16697715 8 4 C7.51789063 5.02480469 7.03578125 6.04960938 6.5390625 7.10546875 C5.90096806 8.46611131 5.26295133 9.82679033 4.625 11.1875 C4.30789062 11.86103516 3.99078125 12.53457031 3.6640625 13.22851562 C1.99988576 16.78222638 0.40908239 20.33496248 -1 24 C2.3 24 5.6 24 9 24 C9 24.33 9 24.66 9 25 C5.37 25 1.74 25 -2 25 C-2.40652968 19.57960425 -1.03993514 15.92984325 1 11 C1.66 11 2.32 11 3 11 C2.67 9.02 2.34 7.04 2 5 C2.66 4.67 3.32 4.34 4 4 C2.68 3.67 1.36 3.34 0 3 C0 2.01 0 1.02 0 0 Z " fill="#CFEFD5" transform="translate(172,26)"/>
<path d="M0 0 C1.74216797 0.02707031 1.74216797 0.02707031 3.51953125 0.0546875 C4.39996094 0.07789062 5.28039062 0.10109375 6.1875 0.125 C6.5175 0.785 6.8475 1.445 7.1875 2.125 C6.42566406 2.16238281 5.66382813 2.19976563 4.87890625 2.23828125 C-1.79928001 2.66348412 -7.59568166 3.62885324 -13.8125 6.125 C-13.915625 6.8675 -14.01875 7.61 -14.125 8.375 C-14.85503504 11.29514018 -15.88039398 12.85687554 -17.8125 15.125 C-17.62156267 7.00148456 -17.62156267 7.00148456 -14.5625 3.6875 C-9.50612669 0.81456062 -5.8591726 -0.11836712 0 0 Z " fill="#D3F6DD" transform="translate(161.8125,22.875)"/>
<path d="M0 0 C0.66 0 1.32 0 2 0 C4 2 4 2 4 5 C4.99 5.33 5.98 5.66 7 6 C3.67692308 9.93846154 3.67692308 9.93846154 0.25 10.25 C-0.4925 10.1675 -1.235 10.085 -2 10 C-2.33 10.66 -2.66 11.32 -3 12 C-4.13084944 8.50464719 -4.08940511 7.21132116 -2.625 3.75 C-1 1 -1 1 0 0 Z " fill="#E3FAF1" transform="translate(265,19)"/>
<path d="M0 0 C0.33 0.66 0.66 1.32 1 2 C0.12361812 4.54947455 -0.61794183 5.74529456 -2.875 7.25 C-6.60919632 8.56795164 -10.3873577 7.90659393 -14.25 7.5 C-15.14203125 7.4071875 -16.0340625 7.314375 -16.953125 7.21875 C-17.62859375 7.1465625 -18.3040625 7.074375 -19 7 C-19 6.34 -19 5.68 -19 5 C-20.32 5 -21.64 5 -23 5 C-22.67 4.01 -22.34 3.02 -22 2 C-22 2.66 -22 3.32 -22 4 C-15.4 4 -8.8 4 -2 4 C-1.34 2.68 -0.68 1.36 0 0 Z " fill="#CCF0D0" transform="translate(225,46)"/>
<path d="M0 0 C2.31 0 4.62 0 7 0 C6.01 2.97 5.02 5.94 4 9 C-0.75 10.125 -0.75 10.125 -3 9 C-2.67 7.02 -2.34 5.04 -2 3 C-1.34 3 -0.68 3 0 3 C0 2.01 0 1.02 0 0 Z " fill="#309842" transform="translate(160,39)"/>
<path d="M0 0 C1.98 0 3.96 0 6 0 C5.35522931 1.62542193 4.70914857 3.25032424 4.0625 4.875 C3.70285156 5.77992187 3.34320313 6.68484375 2.97265625 7.6171875 C2 10 2 10 1 12 C-1.0625 12.625 -1.0625 12.625 -3 13 C-4.12509213 9.62472362 -3.90597042 9.08116594 -2.625 5.9375 C-2.34914063 5.24527344 -2.07328125 4.55304687 -1.7890625 3.83984375 C-1.23249348 2.54210114 -0.63149109 1.26298217 0 0 Z " fill="#299C3B" transform="translate(69,29)"/>
<path d="M0 0 C0.66 0 1.32 0 2 0 C1.77183594 0.74765625 1.54367188 1.4953125 1.30859375 2.265625 C1.02113281 3.25046875 0.73367187 4.2353125 0.4375 5.25 C0.14746094 6.22453125 -0.14257812 7.1990625 -0.44140625 8.203125 C-0.99249836 10.96243932 -0.93789609 12.3912824 0 15 C-5.5 20 -5.5 20 -10 20 C-9.60886675 17.26206722 -9.18174525 16.1696289 -7.125 14.25 C-4.61252768 11.58973519 -3.57904575 9.14645026 -2.25 5.75 C-1.82203125 4.67234375 -1.3940625 3.5946875 -0.953125 2.484375 C-0.63859375 1.66453125 -0.3240625 0.8446875 0 0 Z " fill="#359745" transform="translate(67,29)"/>
<path d="M0 0 C0.33 0 0.66 0 1 0 C1 3.63 1 7.26 1 11 C-4.86480401 13.93240201 -8.30754152 14.04287412 -14.75 13.0625 C-15.44738281 12.96259766 -16.14476562 12.86269531 -16.86328125 12.75976562 C-18.57651726 12.51334127 -20.28840725 12.25759045 -22 12 C-22 11.67 -22 11.34 -22 11 C-13.585 10.505 -13.585 10.505 -5 10 C-3.35 6.7 -1.7 3.4 0 0 Z " fill="#D7F5D9" transform="translate(167,39)"/>
<path d="M0 0 C1.32 0.33 2.64 0.66 4 1 C3.21494099 3.12744999 2.4217394 5.25189674 1.625 7.375 C1.18414062 8.55835938 0.74328125 9.74171875 0.2890625 10.9609375 C-1 14 -1 14 -3 16 C-3.99 16 -4.98 16 -6 16 C-4.25192871 10.53262809 -2.34205919 5.24175152 0 0 Z " fill="#C2F5CB" transform="translate(63,29)"/>
<path d="M0 0 C0.66 0.33 1.32 0.66 2 1 C2 4.96 2 8.92 2 13 C0.35 13 -1.3 13 -3 13 C-3.103125 13.639375 -3.20625 14.27875 -3.3125 14.9375 C-3.539375 15.618125 -3.76625 16.29875 -4 17 C-4.99 17.33 -5.98 17.66 -7 18 C-5.06375702 11.79522136 -2.74390859 5.89174281 0 0 Z " fill="#D9F5DB" transform="translate(292,27)"/>
<path d="M0 0 C0.33 1.32 0.66 2.64 1 4 C1.33 3.67 1.66 3.34 2 3 C2.66 2.67 3.32 2.34 4 2 C3.67 3.32 3.34 4.64 3 6 C2.01 6 1.02 6 0 6 C0 6.66 0 7.32 0 8 C0.99 8 1.98 8 3 8 C3 9.98 3 11.96 3 14 C0.69 13.67 -1.62 13.34 -4 13 C-4 11.68 -4 10.36 -4 9 C-3.34 8.67 -2.68 8.34 -2 8 C-1.62599214 5.67284 -1.29235267 3.33882138 -1 1 C-0.67 0.67 -0.34 0.34 0 0 Z " fill="#279D38" transform="translate(53,35)"/>
<path d="M0 0 C0 3.3 0 6.6 0 10 C0.66 10.33 1.32 10.66 2 11 C0.68 11.33 -0.64 11.66 -2 12 C-2 12.66 -2 13.32 -2 14 C-2.66 14 -3.32 14 -4 14 C-4 10.33333333 -4 6.66666667 -4 3 C-4.66 3 -5.32 3 -6 3 C-6.66 2.34 -7.32 1.68 -8 1 C-5.29120665 -0.35439668 -2.99066732 -0.06501451 0 0 Z " fill="#399049" transform="translate(279,25)"/>
<path d="M0 0 C-0.33 0.66 -0.66 1.32 -1 2 C-3.97 2 -6.94 2 -10 2 C-10 2.66 -10 3.32 -10 4 C-12.64 4.33 -15.28 4.66 -18 5 C-18 3.35 -18 1.7 -18 0 C-15.3753399 -0.19430855 -12.75053235 -0.38073238 -10.125 -0.5625 C-9.00544922 -0.64661133 -9.00544922 -0.64661133 -7.86328125 -0.73242188 C-2.2265625 -1.11328125 -2.2265625 -1.11328125 0 0 Z " fill="#D9F2D6" transform="translate(130,50)"/>
<path d="M0 0 C0.66 0.66 1.32 1.32 2 2 C2.66 1.34 3.32 0.68 4 0 C4.66 1.32 5.32 2.64 6 4 C5.34 4 4.68 4 4 4 C4 4.66 4 5.32 4 6 C4.99 5.67 5.98 5.34 7 5 C6.34 6.98 5.68 8.96 5 11 C3 11 1 11 -1 11 C-0.67 7.37 -0.34 3.74 0 0 Z " fill="#249C37" transform="translate(235,37)"/>
<path d="M0 0 C0.97089821 2.52433535 0.97586461 4.22687266 0.6875 6.9375 C-1.90553813 11.64338402 -6.17508427 12.98813477 -11 15 C-11 14.34 -11 13.68 -11 13 C-9.68 12.67 -8.36 12.34 -7 12 C-7 10.68 -7 9.36 -7 8 C-6.01 8 -5.02 8 -4 8 C-3.896875 7.236875 -3.79375 6.47375 -3.6875 5.6875 C-2.95635961 2.82940576 -2.23048087 1.84257115 0 0 Z " fill="#369147" transform="translate(286,35)"/>
<path d="M0 0 C1.46726798 3.81489674 0.43336419 6.29011622 -1 10 C-6.25081557 11.14702282 -11.06516538 10.93088566 -16.375 10.5625 C-17.20644531 10.51029297 -18.03789063 10.45808594 -18.89453125 10.40429688 C-20.93008108 10.27561269 -22.96510441 10.13864593 -25 10 C-25 9.01 -25 8.02 -25 7 C-24.67 7.33 -24.34 7.66 -24 8 C-21.40404848 8.12742684 -18.84647942 8.18521437 -16.25 8.1875 C-15.17492187 8.20586914 -15.17492187 8.20586914 -14.078125 8.22460938 C-9.95943356 8.23596606 -6.62167717 8.04351617 -3 6 C-1.15725024 2.98303591 -1.15725024 2.98303591 0 0 Z " fill="#C5EBC8" transform="translate(72,41)"/>
<path d="M0 0 C1.89168696 5.68867015 0.55213348 12.80130666 -2.02734375 18.1171875 C-3.125 19.75 -3.125 19.75 -5 22 C-5.66 21.67 -6.32 21.34 -7 21 C-6.34 19.02 -5.68 17.04 -5 15 C-4.34 15 -3.68 15 -3 15 C-3.05220703 14.12988281 -3.05220703 14.12988281 -3.10546875 13.2421875 C-3.28744524 7.990866 -2.83377711 4.60488781 0 0 Z " fill="#F5FBF1" transform="translate(99,32)"/>
<path d="M0 0 C4.81938524 -0.23509196 8.46298506 0.54815522 13 2 C13 3.65 13 5.3 13 7 C12.01 6.67 11.02 6.34 10 6 C10 5.34 10 4.68 10 4 C6.37 4 2.74 4 -1 4 C-0.67 2.68 -0.34 1.36 0 0 Z " fill="#F3FDFA" transform="translate(243,41)"/>
<path d="M0 0 C0.33 0 0.66 0 1 0 C1 2.31 1 4.62 1 7 C0.34 7 -0.32 7 -1 7 C-1.33 8.32 -1.66 9.64 -2 11 C-6.29 11 -10.58 11 -15 11 C-15.33 9.35 -15.66 7.7 -16 6 C-14.0625 3.1875 -14.0625 3.1875 -12 1 C-11.34 1.33 -10.68 1.66 -10 2 C-11.32 4.64 -12.64 7.28 -14 10 C-10.37 10 -6.74 10 -3 10 C-2.01 6.7 -1.02 3.4 0 0 Z " fill="#BEE9C3" transform="translate(95,40)"/>
<path d="M0 0 C0.80179688 0.05220703 1.60359375 0.10441406 2.4296875 0.15820312 C4.41179103 0.28798371 6.39344499 0.42459735 8.375 0.5625 C9.035 1.8825 9.695 3.2025 10.375 4.5625 C9.385 4.2325 8.395 3.9025 7.375 3.5625 C5.96675107 3.48228001 4.55502769 3.45484023 3.14453125 3.46484375 C1.94086914 3.46967773 1.94086914 3.46967773 0.71289062 3.47460938 C-0.12048828 3.48298828 -0.95386719 3.49136719 -1.8125 3.5 C-3.0799707 3.50676758 -3.0799707 3.50676758 -4.37304688 3.51367188 C-6.45706155 3.52544597 -8.54103977 3.5433811 -10.625 3.5625 C-10.625 2.5725 -10.625 1.5825 -10.625 0.5625 C-7.2967269 -1.10163655 -3.62766027 -0.25617406 0 0 Z " fill="#CAF1CF" transform="translate(127.625,22.4375)"/>
<path d="M0 0 C1 2 2 4 3 6 C4.26457031 6.04898438 5.52914062 6.09796875 6.83203125 6.1484375 C8.49220947 6.2234738 10.15236464 6.29902127 11.8125 6.375 C13.06256836 6.42140625 13.06256836 6.42140625 14.33789062 6.46875 C15.14033203 6.50742187 15.94277344 6.54609375 16.76953125 6.5859375 C17.87711792 6.63306885 17.87711792 6.63306885 19.00708008 6.68115234 C21 7 21 7 24 9 C20.25 10.125 20.25 10.125 18 9 C16.6265365 8.84995027 15.2471474 8.75161994 13.8671875 8.68359375 C13.06152344 8.64169922 12.25585938 8.59980469 11.42578125 8.55664062 C10.58402344 8.51732422 9.74226563 8.47800781 8.875 8.4375 C8.02550781 8.39431641 7.17601562 8.35113281 6.30078125 8.30664062 C4.20071777 8.20045764 2.10038052 8.09971503 0 8 C-1.0546875 6.140625 -1.0546875 6.140625 -2 4 C-1.125 1.75 -1.125 1.75 0 0 Z M22 6 C22.99 6 23.98 6 25 6 C24.67 6.66 24.34 7.32 24 8 C23.34 7.34 22.68 6.68 22 6 Z " fill="#EDFDEC" transform="translate(44,44)"/>
<path d="M0 0 C3.3 0 6.6 0 10 0 C9.690625 0.886875 9.38125 1.77375 9.0625 2.6875 C8.1709329 5.46709155 7.50622993 8.13136375 7 11 C6.01 10.67 5.02 10.34 4 10 C4.33 8.02 4.66 6.04 5 4 C4.01 4 3.02 4 2 4 C2 3.34 2 2.68 2 2 C1.34 2 0.68 2 0 2 C0 1.34 0 0.68 0 0 Z " fill="#F8FCF9" transform="translate(251,31)"/>
<path d="M0 0 C3.3 0 6.6 0 10 0 C10 1.65 10 3.3 10 5 C6.37 5 2.74 5 -1 5 C-0.67 3.35 -0.34 1.7 0 0 Z " fill="#D9FBE7" transform="translate(221,30)"/>
<path d="M0 0 C1.32 0.33 2.64 0.66 4 1 C3.54625 1.556875 3.0925 2.11375 2.625 2.6875 C0.96266232 5.05313439 -0.02144543 7.29015658 -1 10 C-1.66 10 -2.32 10 -3 10 C-3 11.32 -3 12.64 -3 14 C-3.66 14 -4.32 14 -5 14 C-4.7444669 8.13551546 -4.34242429 4.34242429 0 0 Z " fill="#34933A" transform="translate(115,27)"/>
<path d="M0 0 C0.33 0.66 0.66 1.32 1 2 C1.99 2.33 2.98 2.66 4 3 C3.67 3.66 3.34 4.32 3 5 C2.77141886 7.0374763 2.58975722 9.08040303 2.4375 11.125 C2.293125 13.06375 2.14875 15.0025 2 17 C-1.96 17 -5.92 17 -10 17 C-10 16.67 -10 16.34 -10 16 C-6.37 16 -2.74 16 1 16 C0.67 12.04 0.34 8.08 0 4 C-1.32 3.67 -2.64 3.34 -4 3 C-2.68 2.01 -1.36 1.02 0 0 Z " fill="#C4E8CB" transform="translate(36,34)"/>
<path d="M0 0 C0.66 0 1.32 0 2 0 C2.625 1.8125 2.625 1.8125 3 4 C2.01 5.485 2.01 5.485 1 7 C2.32 7 3.64 7 5 7 C5.33 6.01 5.66 5.02 6 4 C6.66 4.66 7.32 5.32 8 6 C7.67 6.99 7.34 7.98 7 9 C4.03 9 1.06 9 -2 9 C-1.125 2.25 -1.125 2.25 0 0 Z " fill="#338041" transform="translate(188,41)"/>
<path d="M0 0 C2.97 0 5.94 0 9 0 C9 0.66 9 1.32 9 2 C8.01 2 7.02 2 6 2 C6 2.66 6 3.32 6 4 C6.66 4.33 7.32 4.66 8 5 C4.7 5 1.4 5 -2 5 C-1.34 3.35 -0.68 1.7 0 0 Z " fill="#D4FADE" transform="translate(217,40)"/>
<path d="M0 0 C3.93809611 3.76687454 3.93809611 3.76687454 4.09765625 6.9453125 C4.04882812 9.97265625 4.04882812 9.97265625 4 13 C3.34 13 2.68 13 2 13 C1.81824219 12.45730469 1.63648438 11.91460937 1.44921875 11.35546875 C1.07216797 10.28232422 1.07216797 10.28232422 0.6875 9.1875 C0.44386719 8.47980469 0.20023438 7.77210937 -0.05078125 7.04296875 C-1.06724258 4.85527627 -2.20820594 3.59103282 -4 2 C-2.68 1.34 -1.36 0.68 0 0 Z " fill="#439354" transform="translate(134,25)"/>
<path d="M0 0 C1.28132812 0.00902344 2.56265625 0.01804687 3.8828125 0.02734375 C4.87023437 0.03894531 5.85765625 0.05054687 6.875 0.0625 C7.205 1.3825 7.535 2.7025 7.875 4.0625 C3.12292529 4.49450679 0.09289302 3.04739083 -4.125 1.0625 C-4.455 2.0525 -4.785 3.0425 -5.125 4.0625 C-6.445 3.7325 -7.765 3.4025 -9.125 3.0625 C-9.125 2.4025 -9.125 1.7425 -9.125 1.0625 C-6.12186252 -0.43906874 -3.33432478 -0.03031204 0 0 Z " fill="#368A3F" transform="translate(164.125,24.9375)"/>
<path d="M0 0 C2.97 0 5.94 0 9 0 C8.67 1.32 8.34 2.64 8 4 C1.4 4 -5.2 4 -12 4 C-11.67 3.34 -11.34 2.68 -11 2 C-6.71 2.33 -2.42 2.66 2 3 C2 2.34 2 1.68 2 1 C1.34 0.67 0.68 0.34 0 0 Z " fill="#317E37" transform="translate(242,46)"/>
<path d="M0 0 C0.66 0.33 1.32 0.66 2 1 C2.6328125 3.28515625 2.6328125 3.28515625 3.125 6.0625 C3.29257813 6.98160156 3.46015625 7.90070312 3.6328125 8.84765625 C3.75398437 9.55792969 3.87515625 10.26820312 4 11 C2.35 11 0.7 11 -1 11 C-1.73080266 9.02253397 -2.39421747 7.01927511 -3 5 C-2.67 4.34 -2.34 3.68 -2 3 C-1.34 3 -0.68 3 0 3 C0 2.01 0 1.02 0 0 Z " fill="#26A139" transform="translate(148,37)"/>
<path d="M0 0 C2.97 0 5.94 0 9 0 C8 2 8 2 7 3 C5.33382885 3.04063832 3.66611905 3.042721 2 3 C1.67 4.98 1.34 6.96 1 9 C-0.32 9 -1.64 9 -3 9 C-2.01 6.03 -1.02 3.06 0 0 Z " fill="#459153" transform="translate(284,25)"/>
<path d="M0 0 C0.33 0.66 0.66 1.32 1 2 C3.02463255 2.65213292 3.02463255 2.65213292 5 3 C5.33 4.32 5.66 5.64 6 7 C5.34 7 4.68 7 4 7 C4 6.34 4 5.68 4 5 C-2.435 5.495 -2.435 5.495 -9 6 C-3.85714286 0.42857143 -3.85714286 0.42857143 0 0 Z " fill="#E1F9E5" transform="translate(289,20)"/>
<path d="M0 0 C0 3 0 3 -1.5 4.8125 C-3.45108103 7.6578265 -3.23018911 9.623893 -3 13 C-2.34 13.33 -1.68 13.66 -1 14 C-1 13.34 -1 12.68 -1 12 C-0.34 12 0.32 12 1 12 C0.34 13.32 -0.32 14.64 -1 16 C-2.65 16 -4.3 16 -6 16 C-6.57934159 10.59281183 -6.34220083 7.89350344 -3 3.5 C-2.01808825 2.31806919 -1.02387802 1.14576826 0 0 Z " fill="#BFF2CA" transform="translate(129,31)"/>
<path d="M0 0 C3.3 0.33 6.6 0.66 10 1 C8 3 8 3 5.5 3.3125 C4.675 3.539375 3.85 3.76625 3 4 C1.62533375 6.47636012 1.62533375 6.47636012 1 9 C0.01 8.67 -0.98 8.34 -2 8 C-2 6.02 -2 4.04 -2 2 C-1.34 2 -0.68 2 0 2 C0 1.34 0 0.68 0 0 Z " fill="#F1F2F1" transform="translate(10,32)"/>
<path d="M0 0 C2 3 2 3 1.8125 5.3125 C0.87281219 8.42069813 -0.4707351 11.14093953 -2 14 C-2.99 14 -3.98 14 -5 14 C-3.45730076 9.27934033 -1.92205381 4.58335908 0 0 Z " fill="#B8F4BF" transform="translate(157,32)"/>
<path d="M0 0 C-1.91476346 2.12751496 -3.65323171 3.40500366 -6.125 4.9375 C-9.11319137 6.68492003 -9.11319137 6.68492003 -9.875 9.25 C-9.91625 9.8275 -9.9575 10.405 -10 11 C-10.66 11 -11.32 11 -12 11 C-12.4375 8.3125 -12.4375 8.3125 -12 5 C-8.66879335 1.35825714 -5.02352322 -0.76113988 0 0 Z " fill="#CFF1D5" transform="translate(35,38)"/>
<path d="M0 0 C0.66 0.33 1.32 0.66 2 1 C1.01 2.98 0.02 4.96 -1 7 C-1.66 7 -2.32 7 -3 7 C-3.04898438 7.69867188 -3.09796875 8.39734375 -3.1484375 9.1171875 C-3.22320312 10.02726562 -3.29796875 10.93734375 -3.375 11.875 C-3.44460937 12.77992187 -3.51421875 13.68484375 -3.5859375 14.6171875 C-4 17 -4 17 -6 19 C-6.66 18.67 -7.32 18.34 -8 18 C-3.6 3.6 -3.6 3.6 0 0 Z " fill="#2F8C3D" transform="translate(91,29)"/>
<path d="M0 0 C4.95 0 9.9 0 15 0 C15 1.65 15 3.3 15 5 C14.34 4.67 13.68 4.34 13 4 C13.33 3.01 13.66 2.02 14 1 C7.56610744 0.84617585 7.56610744 0.84617585 2 3.625 C0.54457134 5.36031879 -0.7765262 7.09516071 -2 9 C-2.33 8.34 -2.66 7.68 -3 7 C-2.06421005 4.64018187 -1.06652192 2.30368736 0 0 Z " fill="#2C8237" transform="translate(19,21)"/>
<path d="M0 0 C0.66 0 1.32 0 2 0 C2.66 0.66 3.32 1.32 4 2 C6.44012949 2.24287489 6.44012949 2.24287489 9.125 2.125 C10.03507812 2.10695313 10.94515625 2.08890625 11.8828125 2.0703125 C12.58148438 2.04710937 13.28015625 2.02390625 14 2 C14.33 1.34 14.66 0.68 15 0 C15 0.66 15 1.32 15 2 C16.65 1.67 18.3 1.34 20 1 C19.67 2.65 19.34 4.3 19 6 C18.34 6 17.68 6 17 6 C17 5.34 17 4.68 17 4 C11.39 4 5.78 4 0 4 C0 2.68 0 1.36 0 0 Z " fill="#EFF8EF" transform="translate(20,16)"/>
<path d="M0 0 C-0.33 0.99 -0.66 1.98 -1 3 C-7.6 3 -14.2 3 -21 3 C-21 2.67 -21 2.34 -21 2 C-18.81347261 1.66034526 -16.62571975 1.32857523 -14.4375 1 C-13.21933594 0.814375 -12.00117188 0.62875 -10.74609375 0.4375 C-7.12372152 0.01444923 -3.64287954 -0.07501425 0 0 Z " fill="#34833A" transform="translate(224,47)"/>
<path d="M0 0 C2.31 0 4.62 0 7 0 C7.33 1.98 7.66 3.96 8 6 C4.62182575 6.84454356 2.32534757 7.10844919 -1 6 C-0.34 4.68 0.32 3.36 1 2 C1 2.66 1 3.32 1 4 C1.66 4 2.32 4 3 4 C2.01 2.68 1.02 1.36 0 0 Z " fill="#5DBB6D" transform="translate(185,30)"/>
<path d="M0 0 C0 4 0 4 -2 7 C-2 5.68 -2 4.36 -2 3 C-5.00259517 2.66781808 -5.00259517 2.66781808 -6.6875 4.5 C-7.120625 4.995 -7.55375 5.49 -8 6 C-8 5.34 -8 4.68 -8 4 C-8.99 3.67 -9.98 3.34 -11 3 C-11 2.34 -11 1.68 -11 1 C-6.87831311 -0.62950412 -4.29299643 -1.26264601 0 0 Z " fill="#E5FBE3" transform="translate(111,29)"/>
<path d="M0 0 C3.8632842 0.45835575 6.35195188 1.48498403 9.6875 3.4375 C7.7075 4.4275 7.7075 4.4275 5.6875 5.4375 C5.6875 6.0975 5.6875 6.7575 5.6875 7.4375 C4.3675 6.7775 3.0475 6.1175 1.6875 5.4375 C2.0175 4.1175 2.3475 2.7975 2.6875 1.4375 C-1.7675 2.9225 -1.7675 2.9225 -6.3125 4.4375 C-4.5483196 1.11668984 -3.81491705 0.50385697 0 0 Z " fill="#D9F4DE" transform="translate(76.3125,23.5625)"/>
<path d="M0 0 C0.66 0.33 1.32 0.66 2 1 C1.34 2.65 0.68 4.3 0 6 C-4.95 6 -9.9 6 -15 6 C-15 5.34 -15 4.68 -15 4 C-14.16855469 3.96261719 -13.33710938 3.92523437 -12.48046875 3.88671875 C-11.39378906 3.82097656 -10.30710938 3.75523438 -9.1875 3.6875 C-8.10855469 3.62949219 -7.02960938 3.57148438 -5.91796875 3.51171875 C-2.82502483 2.96931493 -1.86977097 2.44710376 0 0 Z " fill="#E0FBE4" transform="translate(263,19)"/>
<path d="M0 0 C0.33 0 0.66 0 1 0 C1 2.64 1 5.28 1 8 C2.98 7.67 4.96 7.34 7 7 C7 7.99 7 8.98 7 10 C3.7 10 0.4 10 -3 10 C-2.01 6.7 -1.02 3.4 0 0 Z " fill="#37863B" transform="translate(174,40)"/>
<path d="M0 0 C5.5952381 0.5952381 5.5952381 0.5952381 8 3 C6 5 6 5 3.8359375 5.1953125 C2.61777344 5.16050781 2.61777344 5.16050781 1.375 5.125 C0.55773437 5.10695313 -0.25953125 5.08890625 -1.1015625 5.0703125 C-1.72804688 5.04710937 -2.35453125 5.02390625 -3 5 C-1.125 1.125 -1.125 1.125 0 0 Z " fill="#040403" transform="translate(10,45)"/>
<path d="M0 0 C0.99 0.33 1.98 0.66 3 1 C2.01 4.3 1.02 7.6 0 11 C-1.65 11 -3.3 11 -5 11 C-3.77472971 6.94718288 -2.30119506 3.55639236 0 0 Z " fill="#B7EFC3" transform="translate(186,39)"/>
<path d="M0 0 C0.66 0.33 1.32 0.66 2 1 C1.01 3.31 0.02 5.62 -1 8 C-1.99 8 -2.98 8 -4 8 C-4.33 8.66 -4.66 9.32 -5 10 C-5.99 9.34 -6.98 8.68 -8 8 C-8 6.68 -8 5.36 -8 4 C-7.34 4 -6.68 4 -6 4 C-5.67 3.34 -5.34 2.68 -5 2 C-5 2.66 -5 3.32 -5 4 C-3.68 4 -2.36 4 -1 4 C-0.67 2.68 -0.34 1.36 0 0 Z " fill="#1E9F2C" transform="translate(283,35)"/>
<path d="M0 0 C-0.34879632 3.25543229 -1.02133261 4.01873107 -3.5625 6.25 C-4.7690625 7.11625 -4.7690625 7.11625 -6 8 C-6.33 6.68 -6.66 5.36 -7 4 C-7.66 4 -8.32 4 -9 4 C-9 3.34 -9 2.68 -9 2 C-3.375 -1.125 -3.375 -1.125 0 0 Z " fill="#F6FBFA" transform="translate(232,40)"/>
<path d="M0 0 C5.28 0 10.56 0 16 0 C15.67 0.99 15.34 1.98 15 3 C15.33 3.66 15.66 4.32 16 5 C14.35 5.33 12.7 5.66 11 6 C10.34 4.35 9.68 2.7 9 1 C5.7 1.33 2.4 1.66 -1 2 C-0.67 1.34 -0.34 0.68 0 0 Z " fill="#24842C" transform="translate(118,25)"/>
<path d="M0 0 C1.11084961 0.0918457 1.11084961 0.0918457 2.24414062 0.18554688 C4.05991672 0.33783777 5.87395401 0.51062066 7.6875 0.6875 C7.6875 1.0175 7.6875 1.3475 7.6875 1.6875 C6.02460937 1.88666016 6.02460937 1.88666016 4.328125 2.08984375 C2.8645673 2.26809757 1.40102651 2.44649028 -0.0625 2.625 C-0.79210937 2.71201172 -1.52171875 2.79902344 -2.2734375 2.88867188 C-5.68834442 3.30777409 -8.98853543 3.804774 -12.3125 4.6875 C-12.6425 4.0275 -12.9725 3.3675 -13.3125 2.6875 C-8.92598797 -0.67808812 -5.26749388 -0.53192744 0 0 Z " fill="#DEF8DB" transform="translate(98.3125,22.3125)"/>
<path d="M0 0 C4.08276326 0.40158327 8.05208447 0.84852464 12 2 C7.63799813 4.44697666 3.97306516 5.50269348 -1 6 C-1.042721 4.33388095 -1.04063832 2.66617115 -1 1 C-0.67 0.67 -0.34 0.34 0 0 Z " fill="#E4F7E6" transform="translate(235,24)"/>
<path d="M0 0 C0.33 0.99 0.66 1.98 1 3 C1.66 3.66 2.32 4.32 3 5 C1.54077307 4.88590407 0.08259402 4.75834456 -1.375 4.625 C-2.59316406 4.52058594 -2.59316406 4.52058594 -3.8359375 4.4140625 C-6 4 -6 4 -8 2 C-7 0 -7 0 -5.125 -0.6875 C-3 -1 -3 -1 0 0 Z " fill="#F3F5F7" transform="translate(177,22)"/>
<path d="M0 0 C0.99 0 1.98 0 3 0 C2.67 1.65 2.34 3.3 2 5 C0.02013918 4.88652381 -1.95891598 4.7589065 -3.9375 4.625 C-5.03964844 4.55539063 -6.14179688 4.48578125 -7.27734375 4.4140625 C-8.17582031 4.27742188 -9.07429687 4.14078125 -10 4 C-10.33 3.34 -10.66 2.68 -11 2 C-10.28972656 1.93941406 -9.57945312 1.87882812 -8.84765625 1.81640625 C-7.46900391 1.69072266 -7.46900391 1.69072266 -6.0625 1.5625 C-5.14597656 1.48128906 -4.22945312 1.40007813 -3.28515625 1.31640625 C-1.03840268 1.23955024 -1.03840268 1.23955024 0 0 Z " fill="#E7FBEA" transform="translate(182,49)"/>
<path d="M0 0 C2.97 0 5.94 0 9 0 C9 0.66 9 1.32 9 2 C6.36 2 3.72 2 1 2 C1 2.99 1 3.98 1 5 C0.34 5 -0.32 5 -1 5 C-1.33 6.32 -1.66 7.64 -2 9 C-2.66 8.67 -3.32 8.34 -4 8 C-2.68 5.36 -1.36 2.72 0 0 Z " fill="#489151" transform="translate(159,37)"/>
<path d="M0 0 C2.31 0 4.62 0 7 0 C6.67 1.32 6.34 2.64 6 4 C3.36 4 0.72 4 -2 4 C-2 3.01 -2 2.02 -2 1 C-1.34 1.33 -0.68 1.66 0 2 C0 1.34 0 0.68 0 0 Z " fill="#2D8B39" transform="translate(220,36)"/>
<path d="M0 0 C1.65 0 3.3 0 5 0 C5 0.66 5 1.32 5 2 C6.98 1.67 8.96 1.34 11 1 C10.67 1.99 10.34 2.98 10 4 C5.48382401 4.07654536 1.40914783 4.10228696 -3 3 C-2.01 2.67 -1.02 2.34 0 2 C0 1.34 0 0.68 0 0 Z " fill="#32873F" transform="translate(152,46)"/>
<path d="M0 0 C0.66 0.33 1.32 0.66 2 1 C2 1.66 2 2.32 2 3 C2.185625 3.61875 2.37125 4.2375 2.5625 4.875 C3.05492515 7.2667793 2.73924706 8.70012027 2 11 C0.68 11 -0.64 11 -2 11 C-1.85957123 9.35369672 -1.71250671 7.70795821 -1.5625 6.0625 C-1.48128906 5.14597656 -1.40007812 4.22945312 -1.31640625 3.28515625 C-1 1 -1 1 0 0 Z " fill="#2AA13A" transform="translate(191,37)"/>
<path d="M0 0 C2.31 0 4.62 0 7 0 C6.34 2.31 5.68 4.62 5 7 C3.68 6.67 2.36 6.34 1 6 C0.67 4.02 0.34 2.04 0 0 Z " fill="#31A23F" transform="translate(194,27)"/>
<path d="M0 0 C-0.57344937 2.86724686 -0.8614515 3.8614515 -3 6 C-4.8125 5.625 -4.8125 5.625 -7 5 C-8.66623639 4.96213099 -10.33397597 4.95372155 -12 5 C-4.5 0 -4.5 0 0 0 Z " fill="#42894A" transform="translate(65,25)"/>
<path d="M0 0 C-4.13312472 3.24745514 -6.63932628 5 -12 5 C-12.33 5.66 -12.66 6.32 -13 7 C-13.66 6.67 -14.32 6.34 -15 6 C-15 5.34 -15 4.68 -15 4 C-11.25 2.875 -11.25 2.875 -9 4 C-8.67 3.01 -8.34 2.02 -8 1 C-5.29120665 -0.35439668 -2.99066732 -0.06501451 0 0 Z " fill="#478A52" transform="translate(112,25)"/>
<path d="M0 0 C3.3 0 6.6 0 10 0 C10 0.66 10 1.32 10 2 C8.02 2.99 8.02 2.99 6 4 C6 4.33 6 4.66 6 5 C4.35 5 2.7 5 1 5 C1.33 3.68 1.66 2.36 2 1 C1.34 0.67 0.68 0.34 0 0 Z " fill="#EBFAEF" transform="translate(81,51)"/>
<path d="M0 0 C0.33 0 0.66 0 1 0 C1 1.98 1 3.96 1 6 C1.66 6 2.32 6 3 6 C3 6.66 3 7.32 3 8 C0.36 8 -2.28 8 -5 8 C-5 6 -5 6 -3.0625 4 C-2.381875 3.34 -1.70125 2.68 -1 2 C-0.67 1.34 -0.34 0.68 0 0 Z " fill="#309042" transform="translate(20,24)"/>
<path d="M0 0 C-0.8125 2.9375 -0.8125 2.9375 -2 6 C-2.99 6.33 -3.98 6.66 -5 7 C-5 6.34 -5 5.68 -5 5 C-6.32 4.34 -7.64 3.68 -9 3 C-2.25 0 -2.25 0 0 0 Z " fill="#F0F8F3" transform="translate(255,49)"/>
<path d="M0 0 C2.64 0 5.28 0 8 0 C7.43628586 3.26954202 6.50037734 4.82575883 4 7 C4 5.35 4 3.7 4 2 C2.35 2.33 0.7 2.66 -1 3 C-0.67 2.01 -0.34 1.02 0 0 Z " fill="#1D1917" transform="translate(13,35)"/>
<path d="M0 0 C0.99 0.66 1.98 1.32 3 2 C2.375 3.875 2.375 3.875 1 6 C-2.125 7.25 -2.125 7.25 -5 8 C-5.66 7.34 -6.32 6.68 -7 6 C-6.21625 5.566875 -5.4325 5.13375 -4.625 4.6875 C-1.78301625 3.10779753 -1.78301625 3.10779753 0 0 Z " fill="#D2F4D7" transform="translate(203,30)"/>
<path d="M0 0 C-0.42152344 0.59167969 -0.84304687 1.18335938 -1.27734375 1.79296875 C-2.09912109 2.97826172 -2.09912109 2.97826172 -2.9375 4.1875 C-3.48277344 4.96480469 -4.02804688 5.74210937 -4.58984375 6.54296875 C-6.0456289 9.07950299 -6.59613435 11.1218182 -7 14 C-7.66 13.01 -8.32 12.02 -9 11 C-8.06609915 7.00969635 -6.64025891 4.12030598 -4 1 C-4.66 0.67 -5.32 0.34 -6 0 C-3 -1 -3 -1 0 0 Z " fill="#2B8739" transform="translate(129,32)"/>
<path d="M0 0 C3.96 0 7.92 0 12 0 C11.67 1.32 11.34 2.64 11 4 C9.68 3.67 8.36 3.34 7 3 C7 2.34 7 1.68 7 1 C6.34 1 5.68 1 5 1 C4.67 1.66 4.34 2.32 4 3 C2.68 3 1.36 3 0 3 C0 2.01 0 1.02 0 0 Z " fill="#35833C" transform="translate(221,25)"/>
<path d="M0 0 C1.76923828 0.04060547 1.76923828 0.04060547 3.57421875 0.08203125 C4.47785156 0.11683594 5.38148438 0.15164062 6.3125 0.1875 C5.9825 1.5075 5.6525 2.8275 5.3125 4.1875 C3.3325 4.1875 1.3525 4.1875 -0.6875 4.1875 C0.3025 3.5275 1.2925 2.8675 2.3125 2.1875 C-3.77158472 1.98935739 -3.77158472 1.98935739 -9.6875 3.1875 C-6.99455929 -0.5165087 -4.35133403 -0.12924755 0 0 Z " fill="#378343" transform="translate(253.6875,24.8125)"/>
<path d="M0 0 C1.32 0 2.64 0 4 0 C4 0.66 4 1.32 4 2 C4.66 2 5.32 2 6 2 C6 2.66 6 3.32 6 4 C2.7 4.33 -0.6 4.66 -4 5 C-3.67 4.01 -3.34 3.02 -3 2 C-2.01 2.33 -1.02 2.66 0 3 C0 2.01 0 1.02 0 0 Z " fill="#F2F8F6" transform="translate(202,51)"/>
<path d="M0 0 C0 0.66 0 1.32 0 2 C1.32 2.66 2.64 3.32 4 4 C0.37 4 -3.26 4 -7 4 C-6.67 3.01 -6.34 2.02 -6 1 C-4 0 -4 0 0 0 Z " fill="#43934D" transform="translate(228,26)"/>
<path d="M0 0 C0.598125 0.185625 1.19625 0.37125 1.8125 0.5625 C4.16408762 1.22093687 4.16408762 1.22093687 7 0 C7.625 1.875 7.625 1.875 8 4 C7.34 4.66 6.68 5.32 6 6 C6 5.34 6 4.68 6 4 C5.401875 4.226875 4.80375 4.45375 4.1875 4.6875 C3.465625 4.790625 2.74375 4.89375 2 5 C0.25 3.5625 0.25 3.5625 -1 2 C-0.67 1.34 -0.34 0.68 0 0 Z " fill="#3C9B46" transform="translate(186,26)"/>
<path d="M0 0 C0.66 0 1.32 0 2 0 C2 0.66 2 1.32 2 2 C2.99 2.33 3.98 2.66 5 3 C5 3.66 5 4.32 5 5 C7.64 5 10.28 5 13 5 C13 5.33 13 5.66 13 6 C10.03 6 7.06 6 4 6 C4 5.34 4 4.68 4 4 C2.35 4.33 0.7 4.66 -1 5 C-0.67 3.35 -0.34 1.7 0 0 Z " fill="#C9EDCD" transform="translate(251,45)"/>
<path d="M0 0 C0.99 0.33 1.98 0.66 3 1 C1.68 3.97 0.36 6.94 -1 10 C-2.65 9.67 -4.3 9.34 -6 9 C-5.01 8.67 -4.02 8.34 -3 8 C-3.33 7.01 -3.66 6.02 -4 5 C-2.68 4.67 -1.36 4.34 0 4 C0 2.68 0 1.36 0 0 Z " fill="#3C8E46" transform="translate(266,40)"/>
<path d="M0 0 C1.32 0 2.64 0 4 0 C3.67 1.98 3.34 3.96 3 6 C1.68 6.33 0.36 6.66 -1 7 C-2 4 -2 4 -1.0625 1.8125 C-0.5365625 0.9153125 -0.5365625 0.9153125 0 0 Z " fill="#24A133" transform="translate(67,35)"/>
<path d="M0 0 C1.65 0 3.3 0 5 0 C4.01 0.495 4.01 0.495 3 1 C3 1.66 3 2.32 3 3 C3.66 3 4.32 3 5 3 C5 3.66 5 4.32 5 5 C2.69 5 0.38 5 -2 5 C-1.34 3.35 -0.68 1.7 0 0 Z " fill="#C8F7D1" transform="translate(248,30)"/>
<path d="M0 0 C-0.33 1.65 -0.66 3.3 -1 5 C-3.97 4.67 -6.94 4.34 -10 4 C-4 0 -4 0 0 0 Z " fill="#418E57" transform="translate(79,25)"/>
<path d="M0 0 C0 1.65 0 3.3 0 5 C-0.639375 5.103125 -1.27875 5.20625 -1.9375 5.3125 C-2.618125 5.539375 -3.29875 5.76625 -4 6 C-4.33 6.99 -4.66 7.98 -5 9 C-5.33 7.02 -5.66 5.04 -6 3 C-1.125 0 -1.125 0 0 0 Z " fill="#F7FBFA" transform="translate(206,34)"/>
<path d="M0 0 C0.66 0.33 1.32 0.66 2 1 C0.25 8.625 0.25 8.625 -2 12 C-3.06106444 8.81680668 -2.96156637 7.98060942 -2.125 4.875 C-1.94195312 4.17117187 -1.75890625 3.46734375 -1.5703125 2.7421875 C-1 1 -1 1 0 0 Z " fill="#37984B" transform="translate(155,30)"/>
<path d="M0 0 C0.66 0 1.32 0 2 0 C3.46726798 3.81489674 2.43336419 6.29011622 1 10 C-1 8 -1 8 -1.1875 5 C-1 2 -1 2 0 0 Z " fill="#249A32" transform="translate(268,30)"/>
<path d="M0 0 C0.66 0.66 1.32 1.32 2 2 C-0.625 6.875 -0.625 6.875 -4 8 C-6.1875 6.5625 -6.1875 6.5625 -8 5 C-7.05125 4.731875 -6.1025 4.46375 -5.125 4.1875 C-1.74732727 3.25013412 -1.74732727 3.25013412 0 0 Z " fill="#408A4E" transform="translate(131,42)"/>
<path d="M0 0 C2.64 0.33 5.28 0.66 8 1 C8 1.99 8 2.98 8 4 C6.02 4.99 6.02 4.99 4 6 C3.34 5.34 2.68 4.68 2 4 C2.33 3.01 2.66 2.02 3 1 C2.01 0.67 1.02 0.34 0 0 Z " fill="#E7F6E0" transform="translate(62,24)"/>
<path d="M0 0 C2.125 0.375 2.125 0.375 4 1 C4 1.66 4 2.32 4 3 C3.34 3 2.68 3 2 3 C2 3.66 2 4.32 2 5 C1.34 5 0.68 5 0 5 C-0.33 5.66 -0.66 6.32 -1 7 C-1.625 4.625 -1.625 4.625 -2 2 C-1.34 1.34 -0.68 0.68 0 0 Z " fill="#F8FBF3" transform="translate(263,24)"/>
<path d="M0 0 C0.99 0.33 1.98 0.66 3 1 C0.72228105 3.80844958 -0.36197888 4.91735478 -4.015625 5.390625 C-5.61664063 5.32101563 -5.61664063 5.32101563 -7.25 5.25 C-8.32765625 5.21390625 -9.4053125 5.1778125 -10.515625 5.140625 C-11.33546875 5.09421875 -12.1553125 5.0478125 -13 5 C-12.67 4.34 -12.34 3.68 -12 3 C-11.07767578 3.05220703 -11.07767578 3.05220703 -10.13671875 3.10546875 C-8.92435547 3.14607422 -8.92435547 3.14607422 -7.6875 3.1875 C-6.88699219 3.22230469 -6.08648437 3.25710937 -5.26171875 3.29296875 C-2.52148416 2.93801608 -1.70828921 2.10633718 0 0 Z " fill="#CAC8C7" transform="translate(19,46)"/>
<path d="M0 0 C1.32 0 2.64 0 4 0 C3.67 2.31 3.34 4.62 3 7 C2.01 6.67 1.02 6.34 0 6 C0 4.02 0 2.04 0 0 Z " fill="#F6FAF8" transform="translate(125,38)"/>
<path d="M0 0 C0.75 1.6875 0.75 1.6875 1 4 C-0.75 6.75 -0.75 6.75 -3 9 C-3.99 9 -4.98 9 -6 9 C-4.47291037 5.56404834 -2.40072955 2.88087546 0 0 Z " fill="#29983A" transform="translate(67,41)"/>
<path d="M0 0 C1.32 0.33 2.64 0.66 4 1 C4 3.42797311 3.49914315 5.62907005 3 8 C2.34 7.67 1.68 7.34 1 7 C1 6.01 1 5.02 1 4 C0.01 3.67 -0.98 3.34 -2 3 C-1.34 3 -0.68 3 0 3 C0 2.01 0 1.02 0 0 Z " fill="#499B4C" transform="translate(195,35)"/>
<path d="M0 0 C0.66 0 1.32 0 2 0 C1.71890887 1.64767247 1.42481474 3.29313145 1.125 4.9375 C0.96257812 5.85402344 0.80015625 6.77054688 0.6328125 7.71484375 C0.42398438 8.46894531 0.21515625 9.22304688 0 10 C-0.99 10.495 -0.99 10.495 -2 11 C-3.14947895 7.44706507 -3.0868937 6.20023331 -1.5625 2.6875 C-1.046875 1.800625 -0.53125 0.91375 0 0 Z " fill="#3E934F" transform="translate(238,29)"/>
<path d="M0 0 C3.3 0 6.6 0 10 0 C6.91330796 3.08669204 6.08072342 3.44855089 2 4 C2 3.34 2 2.68 2 2 C1.34 2 0.68 2 0 2 C0 1.34 0 0.68 0 0 Z " fill="#EDFBF1" transform="translate(251,31)"/>
<path d="M0 0 C1.0625 1.8125 1.0625 1.8125 2 4 C1.67 4.99 1.34 5.98 1 7 C-1 7 -1 7 -3.125 5 C-3.74375 4.34 -4.3625 3.68 -5 3 C-3.7124791 0.4249582 -2.85933002 0 0 0 Z " fill="#1F9B35" transform="translate(122,28)"/>
<path d="M0 0 C0.66 0 1.32 0 2 0 C2.33 3.96 2.66 7.92 3 12 C2.67 12 2.34 12 2 12 C1.71125 11.030625 1.4225 10.06125 1.125 9.0625 C0.35785318 5.89335797 0.35785318 5.89335797 -2 5 C-1.34 3.35 -0.68 1.7 0 0 Z " fill="#A8E5AF" transform="translate(269,38)"/>
<path d="M0 0 C0.33 0.66 0.66 1.32 1 2 C0.35561283 3.67540664 -0.31246699 5.34183216 -1 7 C-1 7.99 -1 8.98 -1 10 C-0.34 10.66 0.32 11.32 1 12 C-0.32 11.67 -1.64 11.34 -3 11 C-3.36923077 3.49230769 -3.36923077 3.49230769 -1.5 1 C-1.005 0.67 -0.51 0.34 0 0 Z " fill="#CBF2D9" transform="translate(143,38)"/>
<path d="M0 0 C0.33 0.66 0.66 1.32 1 2 C1.66 2 2.32 2 3 2 C3 3.65 3 5.3 3 7 C1.68 7.33 0.36 7.66 -1 8 C-2.2077558 4.37673261 -1.54311128 3.35853631 0 0 Z " fill="#399749" transform="translate(49,37)"/>
<path d="M0 0 C2 2 2 2 2 6 C0.35 6.66 -1.3 7.32 -3 8 C-2.67 6.35 -2.34 4.7 -2 3 C-1.34 3 -0.68 3 0 3 C0 2.01 0 1.02 0 0 Z " fill="#279D3D" transform="translate(178,36)"/>
<path d="M0 0 C3 0 3 0 5 1 C3.515 4.465 3.515 4.465 2 8 C1.34 8 0.68 8 0 8 C0 5.36 0 2.72 0 0 Z " fill="#C1F7C9" transform="translate(279,27)"/>
<path d="M0 0 C3.3 0.33 6.6 0.66 10 1 C10 1.33 10 1.66 10 2 C7.69 2.33 5.38 2.66 3 3 C3 3.66 3 4.32 3 5 C1.68 5 0.36 5 -1 5 C-0.67 3.35 -0.34 1.7 0 0 Z " fill="#4BA056" transform="translate(241,44)"/>
<path d="M0 0 C2.0625 0.4375 2.0625 0.4375 4 1 C3.67 2.32 3.34 3.64 3 5 C1.68 5.33 0.36 5.66 -1 6 C-1.042721 4.33388095 -1.04063832 2.66617115 -1 1 C-0.67 0.67 -0.34 0.34 0 0 Z " fill="#4A9653" transform="translate(26,44)"/>
<path d="M0 0 C0.66 0 1.32 0 2 0 C2.98120464 3.05263664 2.98120464 4.94736336 2 8 C0.68 7.34 -0.64 6.68 -2 6 C-1.34 4.02 -0.68 2.04 0 0 Z " fill="#3B8F4B" transform="translate(188,41)"/>
<path d="M0 0 C2.64 0 5.28 0 8 0 C7 2 7 2 6 3 C4.00041636 3.04080783 1.99954746 3.04254356 0 3 C0 2.01 0 1.02 0 0 Z " fill="#3A8B4E" transform="translate(285,25)"/>
<path d="M0 0 C0.33 0 0.66 0 1 0 C1 2.31 1 4.62 1 7 C0.34 7 -0.32 7 -1 7 C-1.33 8.32 -1.66 9.64 -2 11 C-2.66 10.67 -3.32 10.34 -4 10 C-2.68 6.7 -1.36 3.4 0 0 Z " fill="#CAF3D1" transform="translate(95,40)"/>
<path d="M0 0 C-0.33 0.99 -0.66 1.98 -1 3 C-4.0625 4.1875 -4.0625 4.1875 -7 5 C-6.6875 3.0625 -6.6875 3.0625 -6 1 C-3 0 -3 0 0 0 Z " fill="#E1F2E8" transform="translate(29,32)"/>
<path d="M0 0 C-3.3 1.32 -6.6 2.64 -10 4 C-10.33 3.01 -10.66 2.02 -11 1 C-4.5 -1.125 -4.5 -1.125 0 0 Z " fill="#262B26" transform="translate(49,29)"/>
<path d="M0 0 C0.33 0.99 0.66 1.98 1 3 C-2.80504787 4.79682816 -3.70600835 5.07349791 -8 4 C-5.36 2.68 -2.72 1.36 0 0 Z " fill="#D5F6E1" transform="translate(284,45)"/>
<path d="M0 0 C1 4 1 4 0.375 6.1875 C-1 8 -1 8 -6 9 C-4.02 6.03 -2.04 3.06 0 0 Z " fill="#D2F5D0" transform="translate(136,40)"/>
<path d="M0 0 C0.66 0.33 1.32 0.66 2 1 C1.34 3.97 0.68 6.94 0 10 C-0.99 9.01 -1.98 8.02 -3 7 C-2.01 4.69 -1.02 2.38 0 0 Z " fill="#348A42" transform="translate(148,30)"/>
<path d="M0 0 C3 1 3 1 4 3 C4.66 3.33 5.32 3.66 6 4 C4.68 4.33 3.36 4.66 2 5 C2 5.66 2 6.32 2 7 C1.34 7 0.68 7 0 7 C0 4.69 0 2.38 0 0 Z " fill="#3AA548" transform="translate(275,32)"/>
<path d="M0 0 C2 3 2 3 1.75 5.625 C1.5025 6.40875 1.255 7.1925 1 8 C0.01 8.495 0.01 8.495 -1 9 C-2.0326802 6.21176345 -2.04509293 5.1322726 -1.0625 2.25 C-0.711875 1.5075 -0.36125 0.765 0 0 Z " fill="#C1F2CC" transform="translate(157,32)"/>
<path d="M0 0 C0.66 0 1.32 0 2 0 C1.39009109 3.55780196 0.4216319 6.6828589 -1 10 C-1.33 10 -1.66 10 -2 10 C-2.17942163 6.05272412 -2.09350689 3.4019487 0 0 Z " fill="#C7EFC5" transform="translate(87,30)"/>
<path d="M0 0 C0.66 0 1.32 0 2 0 C1.01 3.3 0.02 6.6 -1 10 C-1.66 8.68 -2.32 7.36 -3 6 C-1.625 2.75 -1.625 2.75 0 0 Z " fill="#438E50" transform="translate(67,29)"/>
<path d="M0 0 C0.66 0 1.32 0 2 0 C1.34 2.31 0.68 4.62 0 7 C-0.99 6.67 -1.98 6.34 -3 6 C-1.125 1.125 -1.125 1.125 0 0 Z " fill="#DCFBE1" transform="translate(229,44)"/>
<path d="M0 0 C0.33 0 0.66 0 1 0 C1 2.64 1 5.28 1 8 C-0.32 8.33 -1.64 8.66 -3 9 C-2.01 6.03 -1.02 3.06 0 0 Z " fill="#40934C" transform="translate(174,40)"/>
<path d="M0 0 C2 2 2 2 2 5 C-1.3 5 -4.6 5 -8 5 C-8 4.67 -8 4.34 -8 4 C-5.69 4 -3.38 4 -1 4 C-0.67 2.68 -0.34 1.36 0 0 Z " fill="#31823D" transform="translate(90,45)"/>
<path d="M0 0 C0.66 0.33 1.32 0.66 2 1 C2 1.99 2 2.98 2 4 C2.99 4 3.98 4 5 4 C5 4.66 5 5.32 5 6 C3.35 5.67 1.7 5.34 0 5 C-0.33 4.01 -0.66 3.02 -1 2 C-0.67 1.34 -0.34 0.68 0 0 Z " fill="#2C8B42" transform="translate(47,44)"/>
<path d="M0 0 C0.66 0 1.32 0 2 0 C2.33 1.65 2.66 3.3 3 5 C1.68 5 0.36 5 -1 5 C-0.67 3.35 -0.34 1.7 0 0 Z " fill="#259F3F" transform="translate(159,43)"/>
<path d="M0 0 C1.0625 1.875 1.0625 1.875 2 4 C1.67 4.66 1.34 5.32 1 6 C-0.65 6 -2.3 6 -4 6 C-4 5.34 -4 4.68 -4 4 C-3.01 4 -2.02 4 -1 4 C-0.67 2.68 -0.34 1.36 0 0 Z " fill="#379A49" transform="translate(57,37)"/>
<path d="M0 0 C0.33 0.99 0.66 1.98 1 3 C-0.4375 5.6875 -0.4375 5.6875 -2 8 C-2.66 7.34 -3.32 6.68 -4 6 C-3.625 3.875 -3.625 3.875 -3 2 C-2.34 2 -1.68 2 -1 2 C-0.67 1.34 -0.34 0.68 0 0 Z " fill="#1E9A32" transform="translate(93,34)"/>
<path d="M0 0 C0.98120464 3.05263664 0.98120464 4.94736336 0 8 C-0.99 8 -1.98 8 -3 8 C-1.125 1.125 -1.125 1.125 0 0 Z " fill="#D4F3D9" transform="translate(99,32)"/>
<path d="M0 0 C1.32 0 2.64 0 4 0 C3.1875 2.9375 3.1875 2.9375 2 6 C1.01 6.33 0.02 6.66 -1 7 C-0.67 4.69 -0.34 2.38 0 0 Z " fill="#36934B" transform="translate(73,30)"/>
<path d="M0 0 C2.31 0.33 4.62 0.66 7 1 C4.08235 2.9451 2.37462715 3.45276317 -1 4 C-0.67 2.68 -0.34 1.36 0 0 Z " fill="#F5F9F2" transform="translate(153,51)"/>
<path d="M0 0 C0.33 0 0.66 0 1 0 C1.20140476 3.62528568 0.85776765 5.86501708 -1 9 C-1.66 9 -2.32 9 -3 9 C-2.44271087 5.65626525 -1.64826111 2.96687001 0 0 Z " fill="#C5F1C9" transform="translate(198,41)"/>
<path d="M0 0 C0.99 0.33 1.98 0.66 3 1 C2.34 2.98 1.68 4.96 1 7 C0.34 7 -0.32 7 -1 7 C-1.04254356 5.00045254 -1.04080783 2.99958364 -1 1 C-0.67 0.67 -0.34 0.34 0 0 Z " fill="#DEF4E1" transform="translate(24,42)"/>
<path d="M0 0 C0.99 0.33 1.98 0.66 3 1 C3 1.66 3 2.32 3 3 C4.65 3 6.3 3 8 3 C8 3.33 8 3.66 8 4 C5.03 4 2.06 4 -1 4 C-0.67 2.68 -0.34 1.36 0 0 Z " fill="#CAF9D9" transform="translate(243,41)"/>
<path d="M0 0 C0.99 0.33 1.98 0.66 3 1 C2.67 2.32 2.34 3.64 2 5 C0.68 4.67 -0.64 4.34 -2 4 C-1.34 2.68 -0.68 1.36 0 0 Z " fill="#FCF4F6" transform="translate(229,39)"/>
<path d="M0 0 C2.9375 0.375 2.9375 0.375 6 1 C6.33 1.66 6.66 2.32 7 3 C4.69 3 2.38 3 0 3 C0 2.01 0 1.02 0 0 Z " fill="#259A31" transform="translate(160,26)"/>
<path d="M0 0 C1.093125 0.0825 2.18625 0.165 3.3125 0.25 C2.9825 0.91 2.6525 1.57 2.3125 2.25 C0 2.8125 0 2.8125 -2.6875 3.25 C-4.02292939 3.57483418 -5.35711551 3.9050855 -6.6875 4.25 C-4.79150483 0.68106792 -4.16790733 0.28256999 0 0 Z " fill="#C9F4D5" transform="translate(76.6875,23.75)"/>
</svg>
