<?xml version="1.0" encoding="UTF-8"?>
<!DOCTYPE svg PUBLIC "-//W3C//DTD SVG 1.1//EN" "http://www.w3.org/Graphics/SVG/1.1/DTD/svg11.dtd">
<svg xmlns="http://www.w3.org/2000/svg" version="1.1" width="642px" height="634px" style="shape-rendering:geometricPrecision; text-rendering:geometricPrecision; image-rendering:optimizeQuality; fill-rule:evenodd; clip-rule:evenodd" xmlns:xlink="http://www.w3.org/1999/xlink">
<g><path style="opacity:1" fill="#fed233" d="M 210.5,107.5 C 214.514,107.334 218.514,107.501 222.5,108C 225,109.167 226.833,111 228,113.5C 228.667,138.5 228.667,163.5 228,188.5C 226.833,191 225,192.833 222.5,194C 218.5,194.667 214.5,194.667 210.5,194C 207.244,192.413 205.077,189.913 204,186.5C 203.333,162.833 203.333,139.167 204,115.5C 204.583,111.428 206.75,108.761 210.5,107.5 Z"/></g>
<g><path style="opacity:1" fill="#fed233" d="M 158.5,129.5 C 162.637,129.146 166.637,129.646 170.5,131C 178.963,141.132 187.796,150.965 197,160.5C 196.037,169.515 196.371,178.515 198,187.5C 201.517,199.341 209.35,204.175 221.5,202C 225.579,199.925 229.079,197.092 232,193.5C 242.333,204.5 252.667,215.5 263,226.5C 267.339,241.159 262.006,249.825 247,252.5C 243.193,251.158 239.36,250.324 235.5,250C 213.202,269.296 191.202,288.963 169.5,309C 162.721,314.557 155.721,314.891 148.5,310C 129,289.833 109.5,269.667 90,249.5C 83.1866,241.025 82.8533,232.358 89,223.5C 108.412,202.759 127.079,181.426 145,159.5C 144.513,155.51 143.68,151.51 142.5,147.5C 144.689,138.647 150.023,132.647 158.5,129.5 Z"/></g>
<g><path style="opacity:1" fill="#fed233" d="M 257.5,198.5 C 303.064,206.565 325.398,233.731 324.5,280C 324.322,286.913 323.489,293.746 322,300.5C 319.574,310.265 313.408,314.432 303.5,313C 287.904,309.904 280.238,300.404 280.5,284.5C 281.38,273.822 282.38,263.155 283.5,252.5C 282.881,244.597 280.048,237.597 275,231.5C 268.333,223.5 261.667,215.5 255,207.5C 252.4,203.261 253.233,200.261 257.5,198.5 Z"/></g>
<g><path style="opacity:1" fill="#fed233" d="M 315.5,227.5 C 338.502,227.333 361.502,227.5 384.5,228C 407.918,230.213 428.251,239.213 445.5,255C 464.504,274.662 482.004,295.496 498,317.5C 507.756,327.919 516.756,338.919 525,350.5C 528.256,357.266 530.922,364.266 533,371.5C 533.5,389.164 533.667,406.83 533.5,424.5C 494.716,422.927 460.716,434.76 431.5,460C 423.833,467.667 416.167,475.333 408.5,483C 404.796,485.852 400.796,488.185 396.5,490C 328.5,490.667 260.5,490.667 192.5,490C 184.972,489.83 179.805,486.33 177,479.5C 176.732,421.165 177.065,362.832 178,304.5C 183.591,300.287 189.091,295.954 194.5,291.5C 195.333,313.492 195.833,335.492 196,357.5C 197.399,358.227 198.899,358.727 200.5,359C 295.833,359.667 391.167,359.667 486.5,359C 491.634,357.698 494.968,354.532 496.5,349.5C 495.474,345.116 493.641,341.116 491,337.5C 472.095,315.352 453.429,293.018 435,270.5C 424.098,259.297 410.931,252.13 395.5,249C 371.5,248.667 347.5,248.333 323.5,248C 320.341,241.357 317.675,234.523 315.5,227.5 Z M 211.5,383.5 C 230.503,383.333 249.503,383.5 268.5,384C 271.864,386.729 272.197,389.729 269.5,393C 250.167,393.667 230.833,393.667 211.5,393C 208.888,389.836 208.888,386.669 211.5,383.5 Z"/></g>
<g><path style="opacity:1" fill="#fed233" d="M 188.5,496.5 C 259.834,496.333 331.167,496.5 402.5,497C 397.538,507.759 392.705,518.592 388,529.5C 385.5,533.333 382.333,536.5 378.5,539C 313.167,539.667 247.833,539.667 182.5,539C 179.943,538.315 178.109,536.815 177,534.5C 176.333,525.5 176.333,516.5 177,507.5C 178.754,501.577 182.588,497.911 188.5,496.5 Z"/></g>
</svg>
