<?xml version="1.0" encoding="UTF-8"?>
<!DOCTYPE svg PUBLIC "-//W3C//DTD SVG 1.1//EN" "http://www.w3.org/Graphics/SVG/1.1/DTD/svg11.dtd">
<svg xmlns="http://www.w3.org/2000/svg" version="1.1" width="713px" height="705px" style="shape-rendering:geometricPrecision; text-rendering:geometricPrecision; image-rendering:optimizeQuality; fill-rule:evenodd; clip-rule:evenodd" xmlns:xlink="http://www.w3.org/1999/xlink">
<g><path style="opacity:1" fill="#424346" d="M 233.5,119.5 C 238.599,119.175 243.599,119.675 248.5,121C 250.378,122.543 251.878,124.376 253,126.5C 253.667,153.5 253.667,180.5 253,207.5C 250.625,213.194 246.291,215.861 240,215.5C 233.673,215.846 229.339,213.179 227,207.5C 226.333,180.5 226.333,153.5 227,126.5C 228.694,123.642 230.861,121.309 233.5,119.5 Z"/></g>
<g><path style="opacity:1" fill="#424346" d="M 178.5,143.5 C 182.308,143.163 185.974,143.663 189.5,145C 199.45,155.739 209.283,166.572 219,177.5C 218.512,185.469 218.512,193.469 219,201.5C 221.9,219.849 232.067,226.349 249.5,221C 252.667,219.167 255.167,216.667 257,213.5C 268.333,225.5 279.667,237.5 291,249.5C 295.937,265.961 289.937,275.628 273,278.5C 269.209,276.835 265.376,275.668 261.5,275C 236.833,297 212.167,319 187.5,341C 179.62,345.913 171.953,345.579 164.5,340C 143.698,317.53 122.531,295.364 101,273.5C 95.0513,264.472 95.0513,255.472 101,246.5C 121.805,223.541 142.138,200.208 162,176.5C 161.378,172.219 160.545,167.886 159.5,163.5C 159.944,159.378 161.444,155.712 164,152.5C 168.343,148.585 173.177,145.585 178.5,143.5 Z"/></g>
<g><path style="opacity:1" fill="#424346" d="M 283.5,219.5 C 334.095,226.43 358.762,255.43 357.5,306.5C 358.718,318.243 356.551,329.243 351,339.5C 344.142,345.151 336.642,345.984 328.5,342C 314.609,336.905 308.609,326.905 310.5,312C 311.968,297.861 312.468,283.694 312,269.5C 310.444,264.72 308.111,260.387 305,256.5C 297.667,247.833 290.333,239.167 283,230.5C 279.623,226.374 279.789,222.708 283.5,219.5 Z"/></g>
<g><path style="opacity:1" fill="#424346" d="M 348.5,251.5 C 377.87,251.049 407.203,251.549 436.5,253C 457.555,257.692 475.888,267.359 491.5,282C 497.551,288.596 503.718,295.096 510,301.5C 531.288,328.457 552.955,355.123 575,381.5C 579.851,390.722 583.518,400.388 586,410.5C 586.5,428.83 586.667,447.164 586.5,465.5C 547.39,464.149 512.39,475.316 481.5,499C 470.809,508.691 460.476,518.691 450.5,529C 445.783,533.027 440.449,536.027 434.5,538C 360.493,538.875 286.493,538.542 212.5,537C 204.769,536.406 199.603,532.572 197,525.5C 196.917,461.832 197.417,398.165 198.5,334.5C 204.214,329.451 210.214,324.785 216.5,320.5C 217.333,344.493 217.833,368.493 218,392.5C 219.067,393.191 220.234,393.691 221.5,394C 326.167,394.667 430.833,394.667 535.5,394C 542.666,392.186 545.833,387.686 545,380.5C 543.667,377.833 542.333,375.167 541,372.5C 520.333,347.833 499.667,323.167 479,298.5C 466.891,285.526 452.058,277.359 434.5,274C 408.5,273.667 382.5,273.333 356.5,273C 353.536,265.942 350.87,258.776 348.5,251.5 Z M 236.5,420.5 C 256.169,420.333 275.836,420.5 295.5,421C 300.414,424.171 300.747,427.837 296.5,432C 276.5,432.667 256.5,432.667 236.5,432C 231.248,428.173 231.248,424.34 236.5,420.5 Z"/></g>
<g><path style="opacity:1" fill="#424346" d="M 208.5,544.5 C 286.5,544.5 364.5,544.5 442.5,544.5C 437.414,558.67 431.248,572.337 424,585.5C 421.766,587.7 419.266,589.533 416.5,591C 381.167,591.167 345.833,591.333 310.5,591.5C 274.108,591.657 237.775,591.157 201.5,590C 199.333,589.167 197.833,587.667 197,585.5C 196.333,575.833 196.333,566.167 197,556.5C 198.683,550.319 202.517,546.319 208.5,544.5 Z"/></g>
</svg>
