<?xml version="1.0" encoding="UTF-8"?>
<!DOCTYPE svg PUBLIC "-//W3C//DTD SVG 1.1//EN" "http://www.w3.org/Graphics/SVG/1.1/DTD/svg11.dtd">
<svg xmlns="http://www.w3.org/2000/svg" version="1.1" width="512px" height="512px" style="shape-rendering:geometricPrecision; text-rendering:geometricPrecision; image-rendering:optimizeQuality; fill-rule:evenodd; clip-rule:evenodd" xmlns:xlink="http://www.w3.org/1999/xlink">
<g><path style="opacity:1" fill="#414245" d="M 332.5,20.5 C 388.95,16.4814 433.783,37.1481 467,82.5C 492.062,122.276 497.395,164.609 483,209.5C 473.353,235.814 457.52,257.648 435.5,275C 346.008,337.247 256.341,399.247 166.5,461C 158.167,467.333 149.833,473.667 141.5,480C 101.85,499.337 67.0167,492.837 37,460.5C 17.1379,432.212 14.8046,402.546 30,371.5C 100.739,271.691 170.739,171.357 240,70.5C 264.694,42.4039 295.528,25.7372 332.5,20.5 Z M 346.5,31.5 C 354.003,31.5006 357.503,35.1673 357,42.5C 354.983,47.9242 351.15,49.7575 345.5,48C 340.931,45.4586 339.431,41.6253 341,36.5C 342.73,34.5981 344.563,32.9314 346.5,31.5 Z M 326.5,32.5 C 327.978,32.238 329.311,32.5713 330.5,33.5C 328.72,39.6576 329.387,45.4909 332.5,51C 323.266,52.8917 314.266,55.5584 305.5,59C 297.247,62.9577 289.247,67.1243 281.5,71.5C 280.116,65.1081 276.45,60.4415 270.5,57.5C 287.27,44.7787 305.937,36.4454 326.5,32.5 Z M 367.5,32.5 C 389.652,35.4926 409.652,43.6593 427.5,57C 425,58.8333 422.5,60.6667 420,62.5C 418.139,65.5686 416.306,68.5686 414.5,71.5C 399.604,61.1996 383.271,54.1996 365.5,50.5C 368.631,44.7826 369.298,38.7826 367.5,32.5 Z M 338.5,61.5 C 387.591,59.5257 422.257,80.6924 442.5,125C 457.637,171.232 446.97,210.232 410.5,242C 378.426,264.628 344.092,268.628 307.5,254C 261.043,229.25 242.21,190.75 251,138.5C 264.256,94.6398 293.423,68.9731 338.5,61.5 Z M 259.5,67.5 C 268.817,67.3064 272.317,71.6397 270,80.5C 264.6,85.9523 259.6,85.619 255,79.5C 253.474,74.2389 254.974,70.2389 259.5,67.5 Z M 431.5,67.5 C 440.874,67.3565 444.374,71.6898 442,80.5C 436.6,85.9523 431.6,85.619 427,79.5C 425.474,74.2389 426.974,70.2389 431.5,67.5 Z M 338.5,82.5 C 373.817,79.9073 400.651,93.574 419,123.5C 436.435,161.735 429.935,195.235 399.5,224C 370.66,244.614 340.327,246.947 308.5,231C 275.034,208.207 263.2,177.04 273,137.5C 284.405,106.584 306.238,88.2506 338.5,82.5 Z M 243.5,83.5 C 245.934,86.4376 248.601,89.2709 251.5,92C 253.65,93.4114 255.984,94.2447 258.5,94.5C 253.776,102.945 249.276,111.612 245,120.5C 242.199,128.705 239.866,137.038 238,145.5C 232.459,142.465 226.625,141.799 220.5,143.5C 221.074,132.527 223.574,121.86 228,111.5C 232.43,101.629 237.597,92.296 243.5,83.5 Z M 452.5,83.5 C 463.075,95.9739 470.575,110.307 475,126.5C 476.598,132.091 477.765,137.758 478.5,143.5C 472.028,141.697 465.862,142.364 460,145.5C 458.108,136.266 455.442,127.266 452,118.5C 448.042,110.247 443.876,102.247 439.5,94.5C 445.982,93.3497 450.315,89.683 452.5,83.5 Z M 207.5,136.5 C 200.992,189.423 217.659,234.256 257.5,271C 292.585,298.688 332.252,309.022 376.5,302C 309.5,348.5 242.5,395 175.5,441.5C 185.862,411.115 181.029,383.115 161,357.5C 135.101,331.584 104.601,324.084 69.5,335C 115.889,269.037 161.889,202.87 207.5,136.5 Z M 223.5,153.5 C 234.411,153.161 237.744,157.995 233.5,168C 224.266,172.47 219.433,169.637 219,159.5C 219.979,157.032 221.479,155.032 223.5,153.5 Z M 467.5,153.5 C 474.226,152.517 477.893,155.351 478.5,162C 478.35,167.483 475.517,170.317 470,170.5C 462.762,168.777 460.429,164.444 463,157.5C 464.397,155.93 465.897,154.596 467.5,153.5 Z M 236.5,178.5 C 237.497,178.47 238.164,178.97 238.5,180C 241.612,197.548 248.279,213.548 258.5,228C 252.329,230.661 247.496,234.828 244,240.5C 230.667,222.681 222.5,202.681 219.5,180.5C 225.585,182.306 231.252,181.64 236.5,178.5 Z M 459.5,178.5 C 465.534,181.604 471.868,182.27 478.5,180.5C 475.615,202.837 467.281,222.837 453.5,240.5C 450.088,234.753 445.422,230.419 439.5,227.5C 450.072,212.79 456.738,196.457 459.5,178.5 Z M 259.5,239.5 C 268.817,239.306 272.317,243.64 270,252.5C 264.6,257.952 259.6,257.619 255,251.5C 253.474,246.239 254.974,242.239 259.5,239.5 Z M 431.5,239.5 C 440.817,239.306 444.317,243.64 442,252.5C 436.6,257.952 431.6,257.619 427,251.5C 425.474,246.239 426.974,242.239 431.5,239.5 Z M 281.5,252.5 C 296.519,262.17 312.853,268.836 330.5,272.5C 329.416,278.337 329.416,284.337 330.5,290.5C 308.106,288.589 288.106,280.589 270.5,266.5C 276.45,263.559 280.116,258.892 281.5,252.5 Z M 413.5,252.5 C 414.239,252.369 414.906,252.536 415.5,253C 417.889,258.891 421.889,263.391 427.5,266.5C 409.821,280.285 389.821,288.619 367.5,291.5C 369.298,285.217 368.631,279.217 365.5,273.5C 379.924,270.413 393.591,265.246 406.5,258C 409.266,256.629 411.599,254.796 413.5,252.5 Z M 344.5,275.5 C 356.479,274.694 359.813,279.528 354.5,290C 349.306,293.389 344.806,292.555 341,287.5C 339.745,282.738 340.912,278.738 344.5,275.5 Z M 91.5,341.5 C 126.039,339.676 150.539,354.343 165,385.5C 175.407,418.941 166.907,446.441 139.5,468C 118.992,480.557 97.3255,482.89 74.5,475C 40.9975,458.499 27.1641,431.666 33,394.5C 41.965,365.028 61.465,347.361 91.5,341.5 Z M 95.5,393.5 C 111.315,392.481 118.482,399.815 117,415.5C 114.323,423.337 108.823,427.671 100.5,428.5C 84.3763,424.945 79.5429,415.612 86,400.5C 88.529,397.115 91.6956,394.782 95.5,393.5 Z"/></g>
<g><path style="opacity:1" fill="#414245" d="M 337.5,71.5 C 384.607,68.9491 417.107,89.2824 435,132.5C 446.048,170.816 437.215,203.65 408.5,231C 378.153,254.702 345.153,259.036 309.5,244C 281.072,229.329 264.238,206.162 259,174.5C 255.644,127.02 275.81,94.1863 319.5,76C 325.581,74.29 331.581,72.79 337.5,71.5 Z M 338.5,82.5 C 306.238,88.2506 284.405,106.584 273,137.5C 263.2,177.04 275.034,208.207 308.5,231C 340.327,246.947 370.66,244.614 399.5,224C 429.935,195.235 436.435,161.735 419,123.5C 400.651,93.574 373.817,79.9073 338.5,82.5 Z"/></g>
<g><path style="opacity:1" fill="#414345" d="M 311.5,319.5 C 316.863,319.688 319.03,322.355 318,327.5C 315.353,331.908 311.519,333.741 306.5,333C 303.913,331.475 303.08,329.308 304,326.5C 306.015,323.588 308.515,321.255 311.5,319.5 Z"/></g>
<g><path style="opacity:1" fill="#414245" d="M 292.5,333.5 C 299.582,334.402 301.249,337.902 297.5,344C 269.885,363.948 242.551,384.281 215.5,405C 207.812,405.829 205.479,402.829 208.5,396C 236.683,375.303 264.683,354.47 292.5,333.5 Z"/></g>
<g><path style="opacity:1" fill="#414245" d="M 93.5,382.5 C 118.312,381.144 129.812,392.811 128,417.5C 122.941,432.548 112.441,439.715 96.5,439C 79.2184,435.05 71.0518,424.217 72,406.5C 74.5094,394.165 81.6761,386.165 93.5,382.5 Z M 95.5,393.5 C 91.6956,394.782 88.529,397.115 86,400.5C 79.5429,415.612 84.3763,424.945 100.5,428.5C 108.823,427.671 114.323,423.337 117,415.5C 118.482,399.815 111.315,392.481 95.5,393.5 Z"/></g>
</svg>
