<?xml version="1.0" encoding="UTF-8"?>
<!DOCTYPE svg PUBLIC "-//W3C//DTD SVG 1.1//EN" "http://www.w3.org/Graphics/SVG/1.1/DTD/svg11.dtd">
<svg xmlns="http://www.w3.org/2000/svg" version="1.1" width="622px" height="610px" style="shape-rendering:geometricPrecision; text-rendering:geometricPrecision; image-rendering:optimizeQuality; fill-rule:evenodd; clip-rule:evenodd" xmlns:xlink="http://www.w3.org/1999/xlink">
<g><path style="opacity:1" fill="#424346" d="M 271.5,96.5 C 324.685,93.4957 369.185,111.496 405,150.5C 433.725,184.847 446.559,224.514 443.5,269.5C 474.167,269.5 504.833,269.5 535.5,269.5C 538.174,261.337 543.841,256.503 552.5,255C 572.855,255.195 581.355,265.362 578,285.5C 572.703,297.499 563.536,302.332 550.5,300C 543.312,297.48 537.978,292.813 534.5,286C 503.168,285.5 471.835,285.333 440.5,285.5C 439.297,292.977 437.464,300.31 435,307.5C 430.196,318.762 425.196,329.762 420,340.5C 456.333,378.833 492.667,417.167 529,455.5C 534.179,463.058 535.846,471.391 534,480.5C 532.732,485.637 531.066,490.637 529,495.5C 518.161,502.934 506.328,505.101 493.5,502C 490.567,500.729 487.901,499.062 485.5,497C 447.318,460.65 408.984,424.484 370.5,388.5C 321.677,417.798 271.011,421.298 218.5,399C 163.128,370.784 132.795,325.618 127.5,263.5C 97.1667,263.5 66.8333,263.5 36.5,263.5C 36.5,257.833 36.5,252.167 36.5,246.5C 66.8333,246.5 97.1667,246.5 127.5,246.5C 134.069,176.18 170.403,128.68 236.5,104C 248.094,100.516 259.761,98.0163 271.5,96.5 Z M 278.5,119.5 C 338.882,119.784 382.382,146.784 409,200.5C 429.786,254.558 421.452,303.558 384,347.5C 339.926,390.045 289.093,400.545 231.5,379C 180.02,353.82 153.02,312.486 150.5,255C 153.02,197.514 180.02,156.18 231.5,131C 246.681,124.669 262.348,120.836 278.5,119.5 Z"/></g>
<g><path style="opacity:1" fill="#424346" d="M 275.5,141.5 C 322.682,139.913 358.849,158.913 384,198.5C 396.016,220.411 400.516,243.744 397.5,268.5C 383.937,269.822 370.437,269.822 357,268.5C 340.422,235.011 323.589,201.678 306.5,168.5C 291.571,212.12 276.738,255.787 262,299.5C 247.342,263.534 232.676,227.534 218,191.5C 208.833,209.833 199.667,228.167 190.5,246.5C 184.537,247.496 178.537,247.829 172.5,247.5C 177.957,196.395 204.957,162.561 253.5,146C 260.882,144.024 268.216,142.524 275.5,141.5 Z"/></g>
<g><path style="opacity:1" fill="#424346" d="M 308.5,207.5 C 322.187,233.037 335.52,258.87 348.5,285C 363.844,285.167 379.178,285.667 394.5,286.5C 374.29,341.947 334.624,369.114 275.5,368C 226.404,361.548 193.571,335.048 177,288.5C 174.311,280.034 172.811,271.367 172.5,262.5C 181.506,262.666 190.506,262.5 199.5,262C 205.039,251.088 210.706,240.255 216.5,229.5C 232.284,267.346 247.784,305.346 263,343.5C 278.859,298.423 294.026,253.09 308.5,207.5 Z"/></g>
</svg>
