<?xml version="1.0" encoding="UTF-8"?>
<!DOCTYPE svg PUBLIC "-//W3C//DTD SVG 1.1//EN" "http://www.w3.org/Graphics/SVG/1.1/DTD/svg11.dtd">
<svg xmlns="http://www.w3.org/2000/svg" version="1.1" width="512px" height="512px" style="shape-rendering:geometricPrecision; text-rendering:geometricPrecision; image-rendering:optimizeQuality; fill-rule:evenodd; clip-rule:evenodd" xmlns:xlink="http://www.w3.org/1999/xlink">
<g><path style="opacity:1" fill="#424246" d="M 511.5,88.5 C 511.5,98.1667 511.5,107.833 511.5,117.5C 502.5,117.5 493.5,117.5 484.5,117.5C 484.5,146.5 484.5,175.5 484.5,204.5C 443.5,204.5 402.5,204.5 361.5,204.5C 361.5,175.5 361.5,146.5 361.5,117.5C 331.5,117.5 301.5,117.5 271.5,117.5C 271.5,158.5 271.5,199.5 271.5,240.5C 280.5,240.5 289.5,240.5 298.5,240.5C 298.5,250.5 298.5,260.5 298.5,270.5C 289.5,270.5 280.5,270.5 271.5,270.5C 271.5,311.5 271.5,352.5 271.5,393.5C 301.5,393.5 331.5,393.5 361.5,393.5C 361.5,364.5 361.5,335.5 361.5,306.5C 402.5,306.5 443.5,306.5 484.5,306.5C 484.5,335.5 484.5,364.5 484.5,393.5C 493.5,393.5 502.5,393.5 511.5,393.5C 511.5,403.167 511.5,412.833 511.5,422.5C 502.582,422.183 493.749,422.516 485,423.5C 484.5,452.498 484.333,481.498 484.5,510.5C 443.5,510.5 402.5,510.5 361.5,510.5C 361.5,481.167 361.5,451.833 361.5,422.5C 290.833,422.5 220.167,422.5 149.5,422.5C 149.5,451.833 149.5,481.167 149.5,510.5C 108.5,510.5 67.5,510.5 26.5,510.5C 26.6666,481.498 26.5,452.498 26,423.5C 17.2511,422.516 8.4178,422.183 -0.5,422.5C -0.5,412.833 -0.5,403.167 -0.5,393.5C 8.5,393.5 17.5,393.5 26.5,393.5C 26.5,364.5 26.5,335.5 26.5,306.5C 67.5,306.5 108.5,306.5 149.5,306.5C 149.5,335.5 149.5,364.5 149.5,393.5C 180.5,393.5 211.5,393.5 242.5,393.5C 242.5,352.5 242.5,311.5 242.5,270.5C 233.833,270.5 225.167,270.5 216.5,270.5C 216.5,260.5 216.5,250.5 216.5,240.5C 225.167,240.5 233.833,240.5 242.5,240.5C 242.5,199.5 242.5,158.5 242.5,117.5C 211.5,117.5 180.5,117.5 149.5,117.5C 149.5,146.5 149.5,175.5 149.5,204.5C 108.5,204.5 67.5,204.5 26.5,204.5C 26.5,175.5 26.5,146.5 26.5,117.5C 17.5,117.5 8.5,117.5 -0.5,117.5C -0.5,107.833 -0.5,98.1667 -0.5,88.5C 8.4178,88.8172 17.2511,88.4839 26,87.5C 26.5,58.5019 26.6666,29.5019 26.5,0.5C 67.5,0.5 108.5,0.5 149.5,0.5C 149.5,29.8333 149.5,59.1667 149.5,88.5C 220.167,88.5 290.833,88.5 361.5,88.5C 361.5,59.1667 361.5,29.8333 361.5,0.5C 402.5,0.5 443.5,0.5 484.5,0.5C 484.333,29.5019 484.5,58.5019 485,87.5C 493.749,88.4839 502.582,88.8172 511.5,88.5 Z M 55.5,29.5 C 76.8333,29.5 98.1667,29.5 119.5,29.5C 119.5,78.1667 119.5,126.833 119.5,175.5C 98.1667,175.5 76.8333,175.5 55.5,175.5C 55.5,126.833 55.5,78.1667 55.5,29.5 Z M 391.5,29.5 C 412.833,29.5 434.167,29.5 455.5,29.5C 455.5,78.1667 455.5,126.833 455.5,175.5C 434.167,175.5 412.833,175.5 391.5,175.5C 391.5,126.833 391.5,78.1667 391.5,29.5 Z M 55.5,335.5 C 76.8333,335.5 98.1667,335.5 119.5,335.5C 119.5,384.167 119.5,432.833 119.5,481.5C 98.1667,481.5 76.8333,481.5 55.5,481.5C 55.5,432.833 55.5,384.167 55.5,335.5 Z M 391.5,335.5 C 412.833,335.5 434.167,335.5 455.5,335.5C 455.5,384.167 455.5,432.833 455.5,481.5C 434.167,481.5 412.833,481.5 391.5,481.5C 391.5,432.833 391.5,384.167 391.5,335.5 Z"/></g>
</svg>
