<?xml version="1.0" encoding="UTF-8"?>
<!DOCTYPE svg PUBLIC "-//W3C//DTD SVG 1.1//EN" "http://www.w3.org/Graphics/SVG/1.1/DTD/svg11.dtd">
<svg xmlns="http://www.w3.org/2000/svg" version="1.1" width="512px" height="512px" style="shape-rendering:geometricPrecision; text-rendering:geometricPrecision; image-rendering:optimizeQuality; fill-rule:evenodd; clip-rule:evenodd" xmlns:xlink="http://www.w3.org/1999/xlink">
<g><path style="opacity:1" fill="#fdd131" d="M 73.5,9.5 C 89.1702,9.33341 104.837,9.50008 120.5,10C 130,11.5 135.5,17 137,26.5C 137.5,41.8297 137.667,57.163 137.5,72.5C 152.167,72.5 166.833,72.5 181.5,72.5C 181.334,67.4889 181.501,62.4889 182,57.5C 182.833,55.3333 184.333,53.8333 186.5,53C 232.5,52.3333 278.5,52.3333 324.5,53C 326.667,53.8333 328.167,55.3333 329,57.5C 329.499,62.4889 329.666,67.4889 329.5,72.5C 344.167,72.5 358.833,72.5 373.5,72.5C 373.333,57.163 373.5,41.8297 374,26.5C 375.5,17 381,11.5 390.5,10C 406.167,9.33333 421.833,9.33333 437.5,10C 444.934,10.7663 450.101,14.5996 453,21.5C 454.14,43.7932 454.64,66.1265 454.5,88.5C 454.64,110.873 454.14,133.207 453,155.5C 450.101,162.4 444.934,166.234 437.5,167C 421.833,167.667 406.167,167.667 390.5,167C 381,165.5 375.5,160 374,150.5C 373.5,135.17 373.333,119.837 373.5,104.5C 358.833,104.5 344.167,104.5 329.5,104.5C 329.904,110.29 329.404,115.956 328,121.5C 327.097,122.701 325.931,123.535 324.5,124C 321.574,124.218 318.74,124.718 316,125.5C 312.905,134.186 309.405,142.686 305.5,151C 294.244,152.433 282.91,152.933 271.5,152.5C 271.5,231.167 271.5,309.833 271.5,388.5C 277.621,388.09 283.621,388.59 289.5,390C 290.701,390.903 291.535,392.069 292,393.5C 292.499,397.821 292.666,402.154 292.5,406.5C 319.5,406.5 346.5,406.5 373.5,406.5C 373.333,391.163 373.5,375.83 374,360.5C 375.5,351 381,345.5 390.5,344C 406.167,343.333 421.833,343.333 437.5,344C 444.934,344.766 450.101,348.6 453,355.5C 454.14,377.793 454.64,400.127 454.5,422.5C 454.64,444.873 454.14,467.207 453,489.5C 450.101,496.4 444.934,500.234 437.5,501C 421.833,501.667 406.167,501.667 390.5,501C 381,499.5 375.5,494 374,484.5C 373.5,469.17 373.333,453.837 373.5,438.5C 346.5,438.5 319.5,438.5 292.5,438.5C 292.665,442.182 292.499,445.848 292,449.5C 291.167,451.667 289.667,453.167 287.5,454C 266.167,454.667 244.833,454.667 223.5,454C 221.333,453.167 219.833,451.667 219,449.5C 218.501,445.848 218.335,442.182 218.5,438.5C 191.5,438.5 164.5,438.5 137.5,438.5C 137.667,453.837 137.5,469.17 137,484.5C 135.5,494 130,499.5 120.5,501C 104.833,501.667 89.1667,501.667 73.5,501C 66.0659,500.234 60.8992,496.4 58,489.5C 56.8602,467.207 56.3602,444.873 56.5,422.5C 56.3602,400.127 56.8602,377.793 58,355.5C 60.8992,348.6 66.0659,344.766 73.5,344C 89.1667,343.333 104.833,343.333 120.5,344C 130,345.5 135.5,351 137,360.5C 137.5,375.83 137.667,391.163 137.5,406.5C 164.5,406.5 191.5,406.5 218.5,406.5C 218.334,402.154 218.501,397.821 219,393.5C 219.465,392.069 220.299,390.903 221.5,390C 227.379,388.59 233.379,388.09 239.5,388.5C 239.5,309.833 239.5,231.167 239.5,152.5C 228.09,152.933 216.756,152.433 205.5,151C 201.359,142.757 197.692,134.257 194.5,125.5C 191.893,124.682 189.226,124.182 186.5,124C 185.069,123.535 183.903,122.701 183,121.5C 181.596,115.956 181.096,110.29 181.5,104.5C 166.833,104.5 152.167,104.5 137.5,104.5C 137.667,119.837 137.5,135.17 137,150.5C 135.5,160 130,165.5 120.5,167C 104.833,167.667 89.1667,167.667 73.5,167C 64,165.5 58.5,160 57,150.5C 56.3333,109.167 56.3333,67.8333 57,26.5C 58.68,16.9882 64.18,11.3215 73.5,9.5 Z M 71.5,21.5 C 88.5033,21.3334 105.503,21.5001 122.5,22C 123.667,22.5 124.5,23.3333 125,24.5C 125.667,67.1667 125.667,109.833 125,152.5C 124.5,153.667 123.667,154.5 122.5,155C 105.5,155.667 88.5,155.667 71.5,155C 70.3333,154.5 69.5,153.667 69,152.5C 68.3333,109.833 68.3333,67.1667 69,24.5C 69.6979,23.3094 70.5313,22.3094 71.5,21.5 Z M 388.5,21.5 C 405.503,21.3334 422.503,21.5001 439.5,22C 440.667,22.5 441.5,23.3333 442,24.5C 442.667,67.1667 442.667,109.833 442,152.5C 441.5,153.667 440.667,154.5 439.5,155C 422.5,155.667 405.5,155.667 388.5,155C 387.333,154.5 386.5,153.667 386,152.5C 385.333,109.833 385.333,67.1667 386,24.5C 386.698,23.3094 387.531,22.3094 388.5,21.5 Z M 193.5,64.5 C 234.833,64.5 276.167,64.5 317.5,64.5C 317.5,80.5 317.5,96.5 317.5,112.5C 276.167,112.5 234.833,112.5 193.5,112.5C 193.5,96.5 193.5,80.5 193.5,64.5 Z M 137.5,84.5 C 152.167,84.5 166.833,84.5 181.5,84.5C 181.5,87.1667 181.5,89.8333 181.5,92.5C 166.833,92.5 152.167,92.5 137.5,92.5C 137.5,89.8333 137.5,87.1667 137.5,84.5 Z M 329.5,84.5 C 344.167,84.5 358.833,84.5 373.5,84.5C 373.5,87.1667 373.5,89.8333 373.5,92.5C 358.833,92.5 344.167,92.5 329.5,92.5C 329.5,89.8333 329.5,87.1667 329.5,84.5 Z M 206.5,124.5 C 239.173,124.167 271.84,124.5 304.5,125.5C 302.5,130.167 300.5,134.833 298.5,139.5C 269.839,140.667 241.172,140.833 212.5,140C 210.204,134.944 208.204,129.778 206.5,124.5 Z M 251.5,152.5 C 254.167,152.5 256.833,152.5 259.5,152.5C 259.5,231.167 259.5,309.833 259.5,388.5C 256.833,388.5 254.167,388.5 251.5,388.5C 251.5,309.833 251.5,231.167 251.5,152.5 Z M 71.5,355.5 C 88.5033,355.333 105.503,355.5 122.5,356C 123.667,356.5 124.5,357.333 125,358.5C 125.667,401.167 125.667,443.833 125,486.5C 124.5,487.667 123.667,488.5 122.5,489C 105.5,489.667 88.5,489.667 71.5,489C 70.3333,488.5 69.5,487.667 69,486.5C 68.3333,443.833 68.3333,401.167 69,358.5C 69.6979,357.309 70.5313,356.309 71.5,355.5 Z M 388.5,355.5 C 405.503,355.333 422.503,355.5 439.5,356C 440.667,356.5 441.5,357.333 442,358.5C 442.667,401.167 442.667,443.833 442,486.5C 441.5,487.667 440.667,488.5 439.5,489C 422.5,489.667 405.5,489.667 388.5,489C 387.333,488.5 386.5,487.667 386,486.5C 385.333,443.833 385.333,401.167 386,358.5C 386.698,357.309 387.531,356.309 388.5,355.5 Z M 230.5,400.5 C 247.167,400.5 263.833,400.5 280.5,400.5C 280.5,414.5 280.5,428.5 280.5,442.5C 263.833,442.5 247.167,442.5 230.5,442.5C 230.5,428.5 230.5,414.5 230.5,400.5 Z M 137.5,418.5 C 164.5,418.5 191.5,418.5 218.5,418.5C 218.5,421.167 218.5,423.833 218.5,426.5C 191.5,426.5 164.5,426.5 137.5,426.5C 137.5,423.833 137.5,421.167 137.5,418.5 Z M 292.5,418.5 C 319.5,418.5 346.5,418.5 373.5,418.5C 373.5,421.167 373.5,423.833 373.5,426.5C 346.5,426.5 319.5,426.5 292.5,426.5C 292.5,423.833 292.5,421.167 292.5,418.5 Z"/></g>
</svg>
