<?xml version="1.0" encoding="UTF-8"?>
<!DOCTYPE svg PUBLIC "-//W3C//DTD SVG 1.1//EN" "http://www.w3.org/Graphics/SVG/1.1/DTD/svg11.dtd">
<svg xmlns="http://www.w3.org/2000/svg" version="1.1" width="512px" height="512px" style="shape-rendering:geometricPrecision; text-rendering:geometricPrecision; image-rendering:optimizeQuality; fill-rule:evenodd; clip-rule:evenodd" xmlns:xlink="http://www.w3.org/1999/xlink">
<g><path style="opacity:1" fill="#f1c730" d="M 25.5,-0.5 C 66.8333,-0.5 108.167,-0.5 149.5,-0.5C 149.5,28.8333 149.5,58.1667 149.5,87.5C 220.167,87.5 290.833,87.5 361.5,87.5C 361.5,58.1667 361.5,28.8333 361.5,-0.5C 402.833,-0.5 444.167,-0.5 485.5,-0.5C 485.5,28.8333 485.5,58.1667 485.5,87.5C 494.167,87.5 502.833,87.5 511.5,87.5C 511.5,97.8333 511.5,108.167 511.5,118.5C 502.833,118.5 494.167,118.5 485.5,118.5C 485.5,147.5 485.5,176.5 485.5,205.5C 444.167,205.5 402.833,205.5 361.5,205.5C 361.5,176.5 361.5,147.5 361.5,118.5C 331.833,118.5 302.167,118.5 272.5,118.5C 272.5,159.167 272.5,199.833 272.5,240.5C 281.5,240.5 290.5,240.5 299.5,240.5C 299.5,250.5 299.5,260.5 299.5,270.5C 290.5,270.5 281.5,270.5 272.5,270.5C 272.5,311.167 272.5,351.833 272.5,392.5C 302.167,392.5 331.833,392.5 361.5,392.5C 361.5,363.5 361.5,334.5 361.5,305.5C 402.833,305.5 444.167,305.5 485.5,305.5C 485.5,334.5 485.5,363.5 485.5,392.5C 494.167,392.5 502.833,392.5 511.5,392.5C 511.5,402.833 511.5,413.167 511.5,423.5C 502.833,423.5 494.167,423.5 485.5,423.5C 485.5,452.833 485.5,482.167 485.5,511.5C 444.167,511.5 402.833,511.5 361.5,511.5C 361.5,482.167 361.5,452.833 361.5,423.5C 290.833,423.5 220.167,423.5 149.5,423.5C 149.5,452.833 149.5,482.167 149.5,511.5C 108.167,511.5 66.8333,511.5 25.5,511.5C 25.5,482.167 25.5,452.833 25.5,423.5C 16.8333,423.5 8.16667,423.5 -0.5,423.5C -0.5,413.167 -0.5,402.833 -0.5,392.5C 8.16667,392.5 16.8333,392.5 25.5,392.5C 25.5,363.5 25.5,334.5 25.5,305.5C 66.8333,305.5 108.167,305.5 149.5,305.5C 149.5,334.5 149.5,363.5 149.5,392.5C 180.167,392.5 210.833,392.5 241.5,392.5C 241.5,351.833 241.5,311.167 241.5,270.5C 232.833,270.5 224.167,270.5 215.5,270.5C 215.5,260.5 215.5,250.5 215.5,240.5C 224.167,240.5 232.833,240.5 241.5,240.5C 241.5,199.833 241.5,159.167 241.5,118.5C 210.833,118.5 180.167,118.5 149.5,118.5C 149.5,147.5 149.5,176.5 149.5,205.5C 108.167,205.5 66.8333,205.5 25.5,205.5C 25.5,176.5 25.5,147.5 25.5,118.5C 16.8333,118.5 8.16667,118.5 -0.5,118.5C -0.5,108.167 -0.5,97.8333 -0.5,87.5C 8.16667,87.5 16.8333,87.5 25.5,87.5C 25.5,58.1667 25.5,28.8333 25.5,-0.5 Z M 56.5,30.5 C 77.1667,30.5 97.8333,30.5 118.5,30.5C 118.5,78.5 118.5,126.5 118.5,174.5C 97.8333,174.5 77.1667,174.5 56.5,174.5C 56.5,126.5 56.5,78.5 56.5,30.5 Z M 392.5,30.5 C 413.167,30.5 433.833,30.5 454.5,30.5C 454.5,78.5 454.5,126.5 454.5,174.5C 433.833,174.5 413.167,174.5 392.5,174.5C 392.5,126.5 392.5,78.5 392.5,30.5 Z M 56.5,336.5 C 77.1667,336.5 97.8333,336.5 118.5,336.5C 118.5,384.5 118.5,432.5 118.5,480.5C 97.8333,480.5 77.1667,480.5 56.5,480.5C 56.5,432.5 56.5,384.5 56.5,336.5 Z M 392.5,336.5 C 413.167,336.5 433.833,336.5 454.5,336.5C 454.5,384.5 454.5,432.5 454.5,480.5C 433.833,480.5 413.167,480.5 392.5,480.5C 392.5,432.5 392.5,384.5 392.5,336.5 Z"/></g>
</svg>
