<?xml version="1.0" encoding="UTF-8"?>
<svg version="1.1" xmlns="http://www.w3.org/2000/svg" width="467" height="534">
<path d="M0 0 C31.21939445 3.1411711 61.17178844 13.55439309 86 33 C86.85464844 33.65097656 87.70929688 34.30195313 88.58984375 34.97265625 C101.4857844 45.10382842 112.54724761 56.75958827 121.80957031 70.28027344 C123.04832473 72.06981119 124.33123376 73.82228511 125.6171875 75.578125 C129.05985486 80.39008078 131.47105855 85.66708634 134 91 C134.43441406 91.91136719 134.86882812 92.82273437 135.31640625 93.76171875 C136.5873069 96.49076873 137.80346375 99.23757869 139 102 C139.41121094 102.92554688 139.82242187 103.85109375 140.24609375 104.8046875 C144.56967122 115.1758858 146.7739376 126.02254142 149 137 C149.25007813 138.16917969 149.50015625 139.33835937 149.7578125 140.54296875 C157.27954075 182.33623344 144.40365559 225.56319249 121 260 C116.15955749 266.75992834 110.6800377 272.93773754 105 279 C104.10410156 279.96164062 103.20820313 280.92328125 102.28515625 281.9140625 C75.46115369 310.08842013 35.64615928 327.76054166 -3.15258789 329.10961914 C-48.35707399 329.91738528 -88.39822074 317.61774814 -123 288 C-123.65484375 287.46761719 -124.3096875 286.93523437 -124.984375 286.38671875 C-129.50645349 282.67501273 -133.24660681 278.47554248 -137 274 C-137.51175781 273.41476562 -138.02351563 272.82953125 -138.55078125 272.2265625 C-142 268.24295775 -142 268.24295775 -142 266 C-142.66 266 -143.32 266 -144 266 C-145.51549225 264.09351075 -146.89250635 262.20280624 -148.25 260.1875 C-148.65404053 259.59291992 -149.05808105 258.99833984 -149.47436523 258.38574219 C-160.57900748 241.82063504 -168.81116548 223.17157599 -173.6875 203.875 C-173.90237061 203.05870117 -174.11724121 202.24240234 -174.33862305 201.40136719 C-176.42690199 192.73429986 -176.45209374 185.31440646 -177 176 C-159.84 176 -142.68 176 -125 176 C-124.01 181.28 -123.02 186.56 -122 192 C-115.77342075 216.94896479 -101.14684231 240.04881149 -80 255 C-78.86691406 255.85658203 -78.86691406 255.85658203 -77.7109375 256.73046875 C-60.46923719 269.4511369 -40.20335778 275.60296686 -19 277 C-18.12730469 277.05929687 -17.25460938 277.11859375 -16.35546875 277.1796875 C-13.87781661 277.2556632 -11.47428007 277.16190168 -9 277 C-7.71222656 276.92007812 -6.42445313 276.84015625 -5.09765625 276.7578125 C22.73797413 274.57858792 47.19176709 262.62003117 67 243 C67.33 242.34 67.66 241.68 68 241 C68.66 241 69.32 241 70 241 C70.24621094 240.44699219 70.49242187 239.89398438 70.74609375 239.32421875 C72.24441568 236.54695535 74.09108523 234.2776377 76.0625 231.8125 C87.49351565 217.00110618 93.87862317 200.31755351 97 182 C97.1340625 181.22140625 97.268125 180.4428125 97.40625 179.640625 C101.01013574 153.81277719 94.92397526 125.96493105 81 104 C79.67028573 102.33044452 78.3381383 100.66281131 77 99 C77 98.34 77 97.68 77 97 C76.34 97 75.68 97 75 97 C73.84375 95.6015625 73.84375 95.6015625 72.5 93.625 C55.99497872 71.10375993 30.63937701 58.493139 3.625 53.875 C2.75101563 53.74867188 1.87703125 53.62234375 0.9765625 53.4921875 C0.32429687 53.32976562 -0.32796875 53.16734375 -1 53 C-2.71042184 49.57915633 -2.1414372 45.661852 -2.1328125 41.8984375 C-2.13376923 40.9880069 -2.13472595 40.07757629 -2.13571167 39.13955688 C-2.13639323 37.20778332 -2.13454061 35.27600747 -2.13037109 33.34423828 C-2.12505938 30.40782408 -2.13029767 27.47156544 -2.13671875 24.53515625 C-2.13605724 22.65624967 -2.13477458 20.77734318 -2.1328125 18.8984375 C-2.13483673 18.02730316 -2.13686096 17.15616882 -2.13894653 16.25863647 C-2.08536559 2.08536559 -2.08536559 2.08536559 0 0 Z " fill="#21211F" transform="translate(262,127)"/>
<path d="M0 0 C0.66523682 0.39268066 1.33047363 0.78536133 2.01586914 1.18994141 C3.61205782 2.16997215 5.15593751 3.23426306 6.6875 4.3125 C6.6875 4.9725 6.6875 5.6325 6.6875 6.3125 C7.491875 6.6528125 7.491875 6.6528125 8.3125 7 C21.76980085 14.43692942 29.73812603 29.7831829 35.6875 43.3125 C36.03425781 44.09753906 36.38101563 44.88257813 36.73828125 45.69140625 C44.65961237 66.449356 43.10247568 90.51391057 34.44921875 110.67578125 C31.58514312 116.76754559 28.17786227 122.56314692 24.6875 128.3125 C24.0275 128.3125 23.3675 128.3125 22.6875 128.3125 C22.44644531 129.03953125 22.20539063 129.7665625 21.95703125 130.515625 C15.07049915 145.68718496 -5.18343315 154.53713386 -19.921875 160.33984375 C-39.89216227 167.07478962 -65.40142438 165.65226619 -84.27392578 156.34521484 C-105.86309192 145.06516783 -123.65601854 127.95759893 -131.46875 104.25 C-138.8188483 78.66076888 -136.35276702 53.83962964 -123.7578125 30.421875 C-111.23754928 9.45492702 -91.56934269 -3.7539935 -68.55078125 -10.890625 C-45.28875723 -16.61493489 -20.37494043 -12.0282606 0 0 Z M-59.3125 19.3125 C-60.21087289 24.08763516 -60.01947151 28.14234026 -57.5 32.3125 C-53.43270011 36.03117419 -50.94100538 36.8075727 -45.60546875 36.703125 C-41.69111958 36.03628528 -39.9887856 34.18950702 -37.3125 31.3125 C-36.06806631 27.57919892 -35.65389766 24.1836182 -36.3125 20.3125 C-38.33113643 16.6224326 -41.24208466 13.58450479 -45.3125 12.3125 C-51.04518865 11.40733863 -55.80713954 14.9739814 -59.3125 19.3125 Z M-107.3125 41.3125 C-109.60340772 45.10681591 -110.3125 47.51064842 -110.3125 51.9375 C-109.11888034 55.96596636 -107.51665439 57.65539636 -104.3125 60.3125 C-101.09518449 61.92115775 -97.8017388 61.77946133 -94.3125 61.3125 C-90.90102246 59.60676123 -88.92902505 58.27749573 -86.875 55.0625 C-85.8327537 49.96707363 -86.34981161 45.8940595 -89.0625 41.4375 C-94.87522596 35.94770326 -101.20900536 36.31204656 -107.3125 41.3125 Z M-7.75 42.5 C-9.78007504 46.15413507 -10.11099132 49.27260827 -9.3125 53.3125 C-7.29747111 57.06462276 -5.85783858 58.94894095 -2.3125 61.3125 C-0.16459071 61.62850189 -0.16459071 61.62850189 2.125 61.5625 C2.88683594 61.56765625 3.64867187 61.5728125 4.43359375 61.578125 C6.97500492 61.27861727 8.5303992 60.68108076 10.6875 59.3125 C13.42312901 55.61570405 15.07170294 52.90828331 14.875 48.25 C14.0817582 44.04663623 11.87293182 41.94282123 8.515625 39.4453125 C2.44231248 35.68193509 -2.64815366 37.92141995 -7.75 42.5 Z M-106.3125 91.3125 C-106.89 91.725 -107.4675 92.1375 -108.0625 92.5625 C-110.10523811 95.42233335 -110.19670692 97.83870753 -110.3125 101.3125 C-108.83516488 105.97776881 -107.52526491 108.79082722 -103.3125 111.3125 C-100.86315593 111.74688809 -100.86315593 111.74688809 -98.3125 111.625 C-97.0440625 111.61919922 -97.0440625 111.61919922 -95.75 111.61328125 C-93.14260593 111.29153551 -91.52461528 110.71366629 -89.3125 109.3125 C-86.25176864 104.98525912 -85.86440911 101.51789478 -86.6875 96.43359375 C-87.74478536 92.84543156 -89.22473966 91.3710069 -92.3125 89.3125 C-97.70510862 87.74942504 -101.81846834 87.61153275 -106.3125 91.3125 Z M-6.3125 91.3125 C-9.21538337 94.69919726 -9.89448247 97.84518079 -9.7421875 102.3125 C-8.96645507 105.92318185 -6.92197818 107.76515225 -4.3125 110.3125 C-0.60762168 112.16493916 3.64364188 111.7710162 7.6875 111.3125 C10.87157594 109.52145728 12.21471167 108.10764401 14.0625 105 C15.2552432 99.87120422 14.34671256 96.42492119 11.6875 91.9375 C8.25376952 88.93298583 6.35560129 88.3445944 1.90234375 88.14453125 C-1.4668204 88.40004105 -3.57609479 89.35792485 -6.3125 91.3125 Z M-55.3125 116.3125 C-56.075625 116.828125 -56.83875 117.34375 -57.625 117.875 C-60.27564255 121.7037059 -59.79313387 125.78981403 -59.3125 130.3125 C-58.9825 130.9725 -58.6525 131.6325 -58.3125 132.3125 C-57.6525 132.3125 -56.9925 132.3125 -56.3125 132.3125 C-56.3125 132.9725 -56.3125 133.6325 -56.3125 134.3125 C-51.13066111 136.95629535 -48.1676427 137.77628568 -42.3125 136.3125 C-41.3225 135.6525 -40.3325 134.9925 -39.3125 134.3125 C-39.3125 133.6525 -39.3125 132.9925 -39.3125 132.3125 C-38.6525 132.3125 -37.9925 132.3125 -37.3125 132.3125 C-35.65765375 127.34796125 -35.52587071 123.0287821 -37.6875 118.3125 C-38.22375 117.6525 -38.76 116.9925 -39.3125 116.3125 C-39.9725 116.3125 -40.6325 116.3125 -41.3125 116.3125 C-41.3125 115.6525 -41.3125 114.9925 -41.3125 114.3125 C-48.78141796 112.90407665 -48.78141796 112.90407665 -55.3125 116.3125 Z " fill="#21211F" transform="translate(296.3125,216.6875)"/>
<path d="M0 0 C0 25.41 0 50.82 0 77 C-3.6767119 78.22557063 -6.80208132 79.24995692 -10.51171875 79.97265625 C-28.39790898 83.68413177 -44.00491011 90.05752329 -58 102 C-58.88042969 102.7425 -59.76085937 103.485 -60.66796875 104.25 C-69.98579303 112.16365485 -69.98579303 112.16365485 -77 122 C-77.66 122 -78.32 122 -79 122 C-79.36351562 122.76570313 -79.36351562 122.76570313 -79.734375 123.546875 C-81.08579702 126.16629792 -82.57639754 128.68846118 -84.07177734 131.22753906 C-92.39252385 145.51039527 -97.80811532 160.56086492 -100 177 C-101.67062089 178.67062089 -103.70553826 178.12569043 -105.93637085 178.13552856 C-106.64186066 178.13350433 -107.34735046 178.1314801 -108.07421875 178.12939453 C-109.18393539 178.13202301 -109.18393539 178.13202301 -110.31607056 178.13470459 C-112.77323723 178.1391231 -115.23033253 178.13618513 -117.6875 178.1328125 C-119.38761407 178.13348554 -121.08772805 178.13445557 -122.7878418 178.13571167 C-126.35564081 178.13718864 -129.92341483 178.13503411 -133.49121094 178.13037109 C-138.07488494 178.1246738 -142.65850039 178.12795281 -147.24217224 178.13394356 C-150.75419561 178.13754919 -154.26620498 178.13641057 -157.77822876 178.13381577 C-159.46880093 178.1331465 -161.15937436 178.13397489 -162.84994507 178.13629532 C-165.20859157 178.13882189 -167.56714195 178.13498121 -169.92578125 178.12939453 C-170.63127106 178.13141876 -171.33676086 178.13344299 -172.06362915 178.13552856 C-176.88573729 178.11426271 -176.88573729 178.11426271 -178 177 C-179.84577982 144.41983997 -169.89681138 113.57108808 -155 85 C-154.34 85 -153.68 85 -153 85 C-152.92265625 84.30648437 -152.8453125 83.61296875 -152.765625 82.8984375 C-151.80198162 79.25035899 -149.95549922 76.61708478 -147.75 73.625 C-147.31252441 73.02357178 -146.87504883 72.42214355 -146.42431641 71.80249023 C-139.41056788 62.32818476 -131.8095473 52.84292153 -122.6484375 45.36328125 C-121.02095862 44.01733308 -119.58104245 42.59008211 -118.125 41.0625 C-116 39 -116 39 -114 39 C-114 38.34 -114 37.68 -114 37 C-112.50634766 35.76660156 -112.50634766 35.76660156 -110.4140625 34.390625 C-109.65327393 33.88619873 -108.89248535 33.38177246 -108.10864258 32.86206055 C-107.28904053 32.33008057 -106.46943848 31.79810059 -105.625 31.25 C-104.79444092 30.70577393 -103.96388184 30.16154785 -103.1081543 29.60083008 C-100.74443578 28.05824873 -98.37367987 26.52719354 -96 25 C-95.04480469 24.37996094 -94.08960938 23.75992188 -93.10546875 23.12109375 C-74.83756607 11.69976448 -54.13706391 5.41463376 -33 2 C-32.12472656 1.79632813 -31.24945313 1.59265625 -30.34765625 1.3828125 C-20.06680755 -0.9884417 -11.11382478 0 0 0 Z M-48 30 C-50.27892388 33.77446768 -50.98662778 36.22441098 -51.0625 40.625 C-49.63469428 45.16038286 -47.86752429 46.31641172 -44 49 C-41.13391871 50.43304064 -39.18699217 50.30644155 -36 50 C-31.71670402 47.73237272 -28.76952152 45.57993805 -27 41 C-26.793073 36.75799645 -27.54013883 33.75548621 -29.75 30.125 C-35.56272596 24.63520326 -41.89650536 24.99954656 -48 30 Z M-117 56 C-117.56332031 56.45761719 -118.12664062 56.91523438 -118.70703125 57.38671875 C-123.43834213 61.58849119 -125.50096429 66.18638143 -126.31640625 72.41796875 C-126.68333488 80.05245156 -124.17568112 85.73647832 -120 92 C-119.34 92 -118.68 92 -118 92 C-118 92.66 -118 93.32 -118 94 C-116.39125 94.9590625 -116.39125 94.9590625 -114.75 95.9375 C-114.14671875 96.29714844 -113.5434375 96.65679687 -112.921875 97.02734375 C-107.41348299 99.81512751 -100.72451143 99.83276928 -94.78125 98.50390625 C-86.04899106 95.53157965 -81.97095294 89.94190589 -78 82 C-77.32947441 73.62392621 -77.41837142 67.15879465 -82 60 C-82.66 60 -83.32 60 -84 60 C-84.495 58.515 -84.495 58.515 -85 57 C-91.22217524 51.42850976 -97.53900301 50.09861945 -105.7265625 50.48046875 C-110.46638912 51.2327324 -113.44021053 52.8551044 -117 56 Z M-149 131 C-150.75681722 133.91676705 -151.64544186 136.61454163 -152 140 C-150.9378341 144.04950749 -149.60737426 146.303306 -146.875 149.4375 C-142.86908407 151.61462822 -139.46581433 151.81859755 -135 151 C-131.66399633 148.94161475 -130.1737824 147.2606736 -128 144 C-127.68399811 141.85209071 -127.68399811 141.85209071 -127.75 139.5625 C-127.74484375 138.80066406 -127.7396875 138.03882813 -127.734375 137.25390625 C-128.11862169 133.99346008 -128.97980818 131.83259987 -131.55078125 129.734375 C-137.96671947 126.14941617 -143.14636449 125.63416745 -149 131 Z " fill="#232321" transform="translate(237,102)"/>
<path d="M0 0 C2 3 2 3 2 6 C-6.91 6 -15.82 6 -25 6 C-25 5.34 -25 4.68 -25 4 C-16.75 4 -8.5 4 0 4 C0 2.68 0 1.36 0 0 Z " fill="#4E4C4D" transform="translate(260,450)"/>
<path d="M0 0 C0 0.99 0 1.98 0 3 C1.32 2.34 2.64 1.68 4 1 C4.99 1.66 5.98 2.32 7 3 C5.42032193 3.67528223 3.83608097 4.33989694 2.25 5 C0.92742187 5.556875 0.92742187 5.556875 -0.421875 6.125 C-3 7 -3 7 -7 7 C-7.33 5.68 -7.66 4.36 -8 3 C-2.25 0 -2.25 0 0 0 Z " fill="#403C3C" transform="translate(305,441)"/>
<path d="M0 0 C-0.99 0 -1.98 0 -3 0 C-3.33 1.65 -3.66 3.3 -4 5 C-4.66 5 -5.32 5 -6 5 C-6 5.66 -6 6.32 -6 7 C-7.65 6.67 -9.3 6.34 -11 6 C-10.34 5.67 -9.68 5.34 -9 5 C-9 4.34 -9 3.68 -9 3 C-10.0725 3.350625 -11.145 3.70125 -12.25 4.0625 C-15.78720743 4.94680186 -16.74811124 5.02880551 -20 4 C-17.42032203 3.13310822 -14.83723873 2.28126211 -12.25 1.4375 C-11.52039063 1.19064453 -10.79078125 0.94378906 -10.0390625 0.68945312 C-9.33007812 0.46064453 -8.62109375 0.23183594 -7.890625 -0.00390625 C-6.91657715 -0.32597046 -6.91657715 -0.32597046 -5.92285156 -0.65454102 C-3.66555462 -1.06008636 -2.16526518 -0.69296911 0 0 Z " fill="#51504D" transform="translate(291,398)"/>
<path d="M0 0 C1.32 0.99 2.64 1.98 4 3 C1.47211993 5.79872437 -0.20411134 7.45773019 -4 8 C-4.66 6.35 -5.32 4.7 -6 3 C-4.02 2.01 -2.04 1.02 0 0 Z " fill="#1B1B1A" transform="translate(114,152)"/>
<path d="M0 0 C-3 2 -3 2 -6 2 C-6.33 3.32 -6.66 4.64 -7 6 C-7.66 5.67 -8.32 5.34 -9 5 C-9 4.34 -9 3.68 -9 3 C-9.70125 3.515625 -10.4025 4.03125 -11.125 4.5625 C-14.60887535 6.30443767 -16.2983569 5.94693195 -20 5 C-16.93138727 3.33933899 -13.92435277 2.29822725 -10.5625 1.375 C-9.63566406 1.11460938 -8.70882812 0.85421875 -7.75390625 0.5859375 C-5.07608341 0.01618796 -2.72741575 -0.10889863 0 0 Z " fill="#6D6A6C" transform="translate(201,105)"/>
<path d="M0 0 C4.2742558 1.5830577 6.26531794 4.50568404 9 8 C7.906875 7.62875 6.81375 7.2575 5.6875 6.875 C3.8621875 6.441875 3.8621875 6.441875 2 6 C1.01 6.66 0.02 7.32 -1 8 C-1.125 2.25 -1.125 2.25 0 0 Z " fill="#424241" transform="translate(364,176)"/>
<path d="M0 0 C0.671875 1.765625 0.671875 1.765625 1 4 C-0.109375 5.921875 -0.109375 5.921875 -1.75 7.75 C-2.54664063 8.67039063 -2.54664063 8.67039063 -3.359375 9.609375 C-5 11 -5 11 -8 11 C-6.63629701 8.00779732 -5.05091917 5.70973471 -2.875 3.25 C-2.33617187 2.63640625 -1.79734375 2.0228125 -1.2421875 1.390625 C-0.62730469 0.70226562 -0.62730469 0.70226562 0 0 Z " fill="#535351" transform="translate(185,231)"/>
<path d="M0 0 C0.99 1.32 1.98 2.64 3 4 C0.53846154 8.8 0.53846154 8.8 -2.1875 9.8125 C-2.785625 9.874375 -3.38375 9.93625 -4 10 C-2.8905928 6.51329166 -1.73662334 3.22515763 0 0 Z " fill="#514E4E" transform="translate(352,335)"/>
<path d="M0 0 C0.33 0.66 0.66 1.32 1 2 C2.65 2 4.3 2 6 2 C6 3.65 6 5.3 6 7 C0.25 5.25 0.25 5.25 -2 3 C-1.34 2.01 -0.68 1.02 0 0 Z " fill="#4A4A48" transform="translate(176,435)"/>
<path d="M0 0 C0.33 0 0.66 0 1 0 C1.19294408 4.82360189 0.75747614 8.49646738 -1 13 C-1.12375 12.360625 -1.2475 11.72125 -1.375 11.0625 C-1.58125 10.381875 -1.7875 9.70125 -2 9 C-2.66 8.67 -3.32 8.34 -4 8 C-2.68 5.36 -1.36 2.72 0 0 Z " fill="#464645" transform="translate(141,251)"/>
<path d="M0 0 C1.32 0.66 2.64 1.32 4 2 C4 4.31 4 6.62 4 9 C1.69 7.02 -0.62 5.04 -3 3 C-2.01 2.01 -1.02 1.02 0 0 Z " fill="#5B595B" transform="translate(256,228)"/>
<path d="M0 0 C0.33 0.99 0.66 1.98 1 3 C1.99 3.33 2.98 3.66 4 4 C1.03 5.32 -1.94 6.64 -5 8 C-5 7.01 -5 6.02 -5 5 C-4.01 4.67 -3.02 4.34 -2 4 C-0.79117904 1.99983534 -0.79117904 1.99983534 0 0 Z " fill="#4F4D4E" transform="translate(199,185)"/>
<path d="M0 0 C0.33 0.66 0.66 1.32 1 2 C0.67 2.66 0.34 3.32 0 4 C0.66 4.33 1.32 4.66 2 5 C1.01 5.33 0.02 5.66 -1 6 C-2.01187895 7.65948148 -3.0126546 9.32580562 -4 11 C-4.66 11 -5.32 11 -6 11 C-6 10.34 -6 9.68 -6 9 C-5.34 9 -4.68 9 -4 9 C-3.896875 8.2575 -3.79375 7.515 -3.6875 6.75 C-2.95746496 3.82985982 -1.93210602 2.26812446 0 0 Z " fill="#6F6E6D" transform="translate(88,178)"/>
<path d="M0 0 C3.96 0.33 7.92 0.66 12 1 C11 3 11 3 9.375 3.75 C5.96334563 4.10912151 3.22534792 3.05444067 0 2 C0 1.34 0 0.68 0 0 Z " fill="#191817" transform="translate(129,201)"/>
<path d="M0 0 C1.32 0.33 2.64 0.66 4 1 C4 1.66 4 2.32 4 3 C4.99 3.33 5.98 3.66 7 4 C6.67 4.99 6.34 5.98 6 7 C5.34 7 4.68 7 4 7 C3.67 6.01 3.34 5.02 3 4 C2.01 3.34 1.02 2.68 0 2 C0 1.34 0 0.68 0 0 Z M4 0 C4.99 0.33 5.98 0.66 7 1 C6.01 1 5.02 1 4 1 C4 0.67 4 0.34 4 0 Z " fill="#1B1A1A" transform="translate(311,194)"/>
<path d="M0 0 C3.65316671 1.24976756 4.78065836 1.67098753 7 5 C5.02 5 3.04 5 1 5 C0.34 3.68 -0.32 2.36 -1 1 C-0.67 0.67 -0.34 0.34 0 0 Z " fill="#6A6A69" transform="translate(182,383)"/>
<path d="M0 0 C0.99 0.66 1.98 1.32 3 2 C2.67 3.65 2.34 5.3 2 7 C0.35 5.35 -1.3 3.7 -3 2 C-2.01 1.34 -1.02 0.68 0 0 Z " fill="#585756" transform="translate(185,348)"/>
<path d="M0 0 C0.99 0 1.98 0 3 0 C2.5020163 3.73487777 2.12508244 5.81237635 0 9 C-0.87890625 2.84765625 -0.87890625 2.84765625 -1 1 C-0.67 0.67 -0.34 0.34 0 0 Z " fill="#504E4F" transform="translate(330,318)"/>
<path d="M0 0 C2.31 0.33 4.62 0.66 7 1 C5.68 2.32 4.36 3.64 3 5 C2.01 4.34 1.02 3.68 0 3 C0 2.01 0 1.02 0 0 Z " fill="#1B191A" transform="translate(273,209)"/>
<path d="M0 0 C1.30048841 2.60097682 1.56471422 5.13955062 2 8 C0.33333333 8 -1.33333333 8 -3 8 C-1.125 1.125 -1.125 1.125 0 0 Z " fill="#5C595B" transform="translate(78,195)"/>
<path d="M0 0 C0.66 0 1.32 0 2 0 C2.66 3.96 3.32 7.92 4 12 C1.7448078 9.7448078 1.02276532 7.9952413 0 5 C0 3.33333333 0 1.66666667 0 0 Z " fill="#1C1B19" transform="translate(108,177)"/>
<path d="M0 0 C0.99 0.66 1.98 1.32 3 2 C1.02 4.97 1.02 4.97 -1 8 C-1.93065133 5.39417629 -2.14917407 4.35801776 -1.0625 1.75 C-0.711875 1.1725 -0.36125 0.595 0 0 Z " fill="#535353" transform="translate(323,335)"/>
<path d="M0 0 C0.33 0 0.66 0 1 0 C1.12375 1.0725 1.2475 2.145 1.375 3.25 C1.89643936 6.37863615 2.40088254 8.33480424 4 11 C3.34 11 2.68 11 2 11 C-0.99481865 6.41968912 -0.99481865 6.41968912 -2 4 C-1.25 1.5625 -1.25 1.5625 0 0 Z " fill="#5E5C5D" transform="translate(236,239)"/>
<path d="M0 0 C-3 2 -3 2 -6 2 C-6.33 3.32 -6.66 4.64 -7 6 C-7.66 5.67 -8.32 5.34 -9 5 C-9 4.01 -9 3.02 -9 2 C-5.86501708 0.14223235 -3.62528568 -0.20140476 0 0 Z " fill="#555554" transform="translate(201,105)"/>
<path d="M0 0 C0.66 0.33 1.32 0.66 2 1 C1.67 3.64 1.34 6.28 1 9 C0.34 9 -0.32 9 -1 9 C-1.08886184 5.80097361 -0.91058531 3.07322544 0 0 Z " fill="#464644" transform="translate(137,263)"/>
<path d="M0 0 C2.475 0.99 2.475 0.99 5 2 C4.67 3.98 4.34 5.96 4 8 C1.53721199 5.53721199 1.00228745 3.29323018 0 0 Z " fill="#636362" transform="translate(348,239)"/>
<path d="M0 0 C0.33 0.99 0.66 1.98 1 3 C-0.32 4.32 -1.64 5.64 -3 7 C-3.99 6.67 -4.98 6.34 -6 6 C-4.02 4.02 -2.04 2.04 0 0 Z " fill="#737373" transform="translate(113,148)"/>
<path d="M0 0 C0 0.66 0 1.32 0 2 C-0.66 2 -1.32 2 -2 2 C-2.33 2.99 -2.66 3.98 -3 5 C-3.99 4.67 -4.98 4.34 -6 4 C-6 3.01 -6 2.02 -6 1 C-3 0 -3 0 0 0 Z " fill="#1B1B19" transform="translate(201,106)"/>
<path d="M0 0 C2.97 0.495 2.97 0.495 6 1 C3.37801226 3.15377564 1.35595828 4.40072174 -2 5 C-1.34 3.35 -0.68 1.7 0 0 Z " fill="#6C6969" transform="translate(315,438)"/>
<path d="M0 0 C1.32 0 2.64 0 4 0 C3.67 3.63 3.34 7.26 3 11 C2.67 11 2.34 11 2 11 C1.34 7.37 0.68 3.74 0 0 Z " fill="#767474" transform="translate(258,335)"/>
<path d="M0 0 C1.23076923 4.92307692 1.23076923 4.92307692 0 8 C-0.99 8.66 -1.98 9.32 -3 10 C-2.01 6.7 -1.02 3.4 0 0 Z " fill="#666465" transform="translate(356,324)"/>
<path d="M0 0 C2.9375 0.375 2.9375 0.375 6 1 C6.33 1.66 6.66 2.32 7 3 C5.02 3.33 3.04 3.66 1 4 C0.67 2.68 0.34 1.36 0 0 Z " fill="#363435" transform="translate(237,250)"/>
<path d="M0 0 C0.66 0.33 1.32 0.66 2 1 C0.8141763 4.37503669 -0.27573689 6.64722731 -3 9 C-3 7.68 -3 6.36 -3 5 C-2.34 5 -1.68 5 -1 5 C-0.67 3.35 -0.34 1.7 0 0 Z " fill="#666564" transform="translate(151,231)"/>
<path d="M0 0 C0.66 0.33 1.32 0.66 2 1 C0.515 3.475 0.515 3.475 -1 6 C-2.32 5.34 -3.64 4.68 -5 4 C-3.35 2.68 -1.7 1.36 0 0 Z " fill="#656564" transform="translate(196,221)"/>
<path d="M0 0 C1.41377341 2.63904371 2.37240135 5.07120629 3 8 C1.68 8 0.36 8 -1 8 C-0.67 5.36 -0.34 2.72 0 0 Z " fill="#595856" transform="translate(210,138)"/>
</svg>
