<svg id="artwork" xmlns="http://www.w3.org/2000/svg" viewBox="0 0 260 60"><defs><style>.cls-1{fill:#ed1c24;}.cls-2{fill:#6d6e71;}</style></defs><title>logo</title><path class="cls-1" d="M217.79,17.6a4.6,4.6,0,0,0,.31,1.73A5,5,0,0,0,225,22.09L247.55,13l-8.89,22.55a5,5,0,0,0,2.81,6.88,4.94,4.94,0,0,0,1.73.3A5.1,5.1,0,0,0,248,39c0.14-.37,10.86-29.81,11.1-30.52a8.43,8.43,0,0,0,.39-2.08A5.35,5.35,0,0,0,254.1,1a6.49,6.49,0,0,0-2.13.4c-0.52.17-28.16,10.45-30.52,11.34a5.17,5.17,0,0,0-3.66,4.84"/><path class="cls-2" d="M15.18,58.46L5.56,44.62l9.58-12.28h5.77l-9.77,12.1,10.43,14h-6.4ZM0.5,32.34h5V58.46h-5V32.34Z"/><path class="cls-2" d="M43.06,52.91C41.7,57.27,37.52,59,33.22,59c-4.14,0-8.21-1.62-9.68-5.81a14.58,14.58,0,0,1-.63-4.89V32.34h5v15c0,1.59-.08,3.64.74,5.07a5,5,0,0,0,4.59,2.22,5.09,5.09,0,0,0,4.47-2.08c0.86-1.43.82-3.32,0.82-5V32.34h5V48.65a13.39,13.39,0,0,1-.53,4.25"/><polygon class="cls-2" points="68.55 58.46 68.55 38.08 62.96 58.46 57.78 58.46 52.27 38.08 52.27 58.46 47.76 58.46 47.76 32.34 54.75 32.34 60.41 53.09 66.14 32.34 73.06 32.34 73.06 58.46 68.55 58.46"/><polygon class="cls-2" points="92.72 58.46 92.72 46.92 82.37 46.92 82.37 58.46 77.34 58.46 77.34 32.34 82.37 32.34 82.37 42.77 92.72 42.77 92.72 32.34 97.75 32.34 97.75 58.46 92.72 58.46"/><path class="cls-2" d="M112.87,36.12c-5.06,0-6.54,5.1-6.54,9.29s1.48,9.28,6.58,9.28,6.59-5.1,6.59-9.28-1.55-9.29-6.62-9.29m5.92,21.3A11.5,11.5,0,0,1,112.87,59a12.11,12.11,0,0,1-5.21-1.22c-4.82-2.48-6.55-7.22-6.55-12.35s1.59-9.59,6.15-12.17a11.53,11.53,0,0,1,5.65-1.41,11.34,11.34,0,0,1,8.21,3.33c2.64,2.7,3.59,6.59,3.59,10.25,0,4.88-1.55,9.39-5.91,12"/><polygon class="cls-2" points="144.23 36.64 144.23 58.46 139.2 58.46 139.2 36.64 132.32 36.64 132.32 32.34 151.15 32.34 151.15 36.64 144.23 36.64"/><rect class="cls-2" x="154.95" y="32.34" width="5.03" height="26.12"/><path class="cls-2" d="M175.48,37.11a9.89,9.89,0,0,0-3.88-.47h-2.4v7.54h3.29c2.66,0,5-.74,5-3.88a3.27,3.27,0,0,0-2-3.18m2.66,21.34-5.33-10H169.2v10h-5V32.34h7.06a18.25,18.25,0,0,1,6.34.67,7.42,7.42,0,0,1,5.06,7.36A7.53,7.53,0,0,1,178,47.62l6,10.84h-5.85Z"/><polygon class="cls-2" points="186.18 58.46 186.18 32.34 202.63 32.34 202.63 36.64 191.21 36.64 191.21 42.77 201.6 42.77 201.6 47.06 191.21 47.06 191.21 54.17 203.04 54.17 203.04 58.46 186.18 58.46"/><path class="cls-2" d="M223.41,54.87c-1.7,3.07-5,4.11-8.35,4.11-4.41,0-8.48-1.82-9.77-6.36a13.43,13.43,0,0,1-.4-3h4.85a7.2,7.2,0,0,0,.44,2,5,5,0,0,0,5,3c1.66,0,4.18-.7,4.18-2.77a2.67,2.67,0,0,0-.33-1.15c-0.56-1.1-2.59-1.88-3.66-2.33-2.22-.92-5-1.93-6.91-3.37a6.68,6.68,0,0,1-2.66-5.51c0-5,4.37-7.66,8.94-7.66,3.29,0,6.76,1.41,8.21,4.59a9.29,9.29,0,0,1,.78,3.59h-4.85c0-2.44-2-3.85-4.26-3.85-1.63,0-3.8.89-3.8,2.81s2.3,2.53,3.7,3.08c2.2,0.88,5.33,1.89,7.25,3.25a6.52,6.52,0,0,1,2.7,5.67,8.06,8.06,0,0,1-1,3.92"/></svg>