<?xml version="1.0" encoding="UTF-8"?>
<!DOCTYPE svg PUBLIC "-//W3C//DTD SVG 1.1//EN" "http://www.w3.org/Graphics/SVG/1.1/DTD/svg11.dtd">
<svg xmlns="http://www.w3.org/2000/svg" version="1.1" width="737px" height="720px" style="shape-rendering:geometricPrecision; text-rendering:geometricPrecision; image-rendering:optimizeQuality; fill-rule:evenodd; clip-rule:evenodd" xmlns:xlink="http://www.w3.org/1999/xlink">
<g><path style="opacity:1" fill="#414245" d="M 177.5,152.5 C 178.552,152.351 179.552,152.517 180.5,153C 189.696,162.53 199.196,171.697 209,180.5C 212.851,186.028 214.185,192.028 213,198.5C 257.68,243.347 302.514,288.014 347.5,332.5C 378.153,302.347 408.653,272.014 439,241.5C 431.182,212.29 439.349,188.456 463.5,170C 475.03,160.828 488.03,155.162 502.5,153C 506.833,157.333 511.167,161.667 515.5,166C 505.333,176.167 495.167,186.333 485,196.5C 472.32,215.781 474.486,233.281 491.5,249C 507.762,260.582 523.762,260.248 539.5,248C 549.014,238.319 558.681,228.819 568.5,219.5C 573.152,223.651 577.652,227.985 582,232.5C 576.738,256.758 563.904,275.924 543.5,290C 534.178,295.886 524.011,298.719 513,298.5C 506.063,298.05 499.23,297.217 492.5,296C 462.167,326.333 431.833,356.667 401.5,387C 414.667,400.167 427.833,413.333 441,426.5C 443.05,424.112 445.384,422.112 448,420.5C 449.49,421.317 450.99,422.15 452.5,423C 493.333,455.167 534.167,487.333 575,519.5C 582.778,530.923 584.445,543.256 580,556.5C 578.416,562.254 576.25,567.754 573.5,573C 560.242,580.12 546.242,582.453 531.5,580C 527.456,578.825 523.789,576.992 520.5,574.5C 486.976,532.143 453.643,489.643 420.5,447C 423.274,444.936 425.107,442.436 426,439.5C 413.319,426.653 400.486,413.986 387.5,401.5C 357.18,431.32 327.014,461.32 297,491.5C 304.328,524.344 293.828,549.844 265.5,568C 255.888,574.139 245.555,578.639 234.5,581.5C 229.5,577.167 224.833,572.5 220.5,567.5C 230.152,557.347 239.986,547.347 250,537.5C 262.699,518.532 260.866,501.032 244.5,485C 228.487,473.668 212.487,473.668 196.5,485C 186.667,494.833 176.833,504.667 167,514.5C 162.667,510.167 158.333,505.833 154,501.5C 158.671,476.665 171.504,457.165 192.5,443C 208.561,434.273 225.228,432.606 242.5,438C 272.833,407.667 303.167,377.333 333.5,347C 288.5,302 243.5,257 198.5,212C 192.345,213.045 186.678,211.712 181.5,208C 172.697,198.196 163.53,188.696 154,179.5C 153.333,178.5 153.333,177.5 154,176.5C 162.036,168.632 169.869,160.632 177.5,152.5 Z"/></g>
</svg>
