<?xml version="1.0" encoding="UTF-8"?>
<!DOCTYPE svg PUBLIC "-//W3C//DTD SVG 1.1//EN" "http://www.w3.org/Graphics/SVG/1.1/DTD/svg11.dtd">
<svg xmlns="http://www.w3.org/2000/svg" version="1.1" width="746px" height="738px" style="shape-rendering:geometricPrecision; text-rendering:geometricPrecision; image-rendering:optimizeQuality; fill-rule:evenodd; clip-rule:evenodd" xmlns:xlink="http://www.w3.org/1999/xlink">
<g><path style="opacity:1" fill="#fed231" d="M 370.5,100.5 C 459.914,135.704 549.247,171.204 638.5,207C 638.957,207.414 639.291,207.914 639.5,208.5C 631.181,217.319 622.681,225.986 614,234.5C 613.5,359.833 613.333,485.166 613.5,610.5C 604.167,610.5 594.833,610.5 585.5,610.5C 585.832,482.263 585.499,354.097 584.5,226C 513.708,202.292 442.875,178.792 372,155.5C 300.794,178.735 229.627,202.069 158.5,225.5C 158.667,353.5 158.5,481.5 158,609.5C 148.917,610.485 139.751,610.818 130.5,610.5C 130.667,485.166 130.5,359.833 130,234.5C 121.167,225.667 112.333,216.833 103.5,208C 192.589,172.113 281.589,136.28 370.5,100.5 Z M 454.5,537.5 C 436.116,561.486 417.616,561.486 399,537.5C 392.098,526.037 386.598,514.037 382.5,501.5C 368.611,446.308 369.277,391.308 384.5,336.5C 389.319,322.532 396.485,309.865 406,298.5C 422.218,284.473 437.218,285.806 451,302.5C 462.882,320.125 470.882,339.458 475,360.5C 484.607,408.572 482.94,456.239 470,503.5C 466.172,515.486 461.006,526.819 454.5,537.5 Z"/></g>
<g><path style="opacity:1" fill="#fed231" d="M 371.5,235.5 C 373.975,243.399 376.142,251.399 378,259.5C 379.673,274.214 381.673,288.881 384,303.5C 384.333,301.167 384.667,298.833 385,296.5C 385.629,299.311 386.129,302.144 386.5,305C 385.79,315.503 385.123,326.003 384.5,336.5C 369.277,391.308 368.611,446.308 382.5,501.5C 380.177,500.942 377.843,500.275 375.5,499.5C 364.627,475.79 347.627,458.957 324.5,449C 323.789,447.745 322.956,446.579 322,445.5C 321.667,446.167 321.333,446.833 321,447.5C 319.692,445.359 318.192,443.359 316.5,441.5C 315.201,442.09 314.368,443.09 314,444.5C 313.374,442.009 312.541,442.009 311.5,444.5C 310.201,443.91 309.368,442.91 309,441.5C 308.577,442.956 307.744,443.456 306.5,443C 303.563,440.08 304.23,438.58 308.5,438.5C 324.184,441.058 339.851,443.725 355.5,446.5C 357.921,446.771 358.587,446.105 357.5,444.5C 358.929,442.669 359.429,440.669 359,438.5C 358.333,439.833 357.667,441.167 357,442.5C 355.56,440.41 355.726,438.244 357.5,436C 356.754,430.342 355.587,430.175 354,435.5C 352.989,434.663 351.822,434.33 350.5,434.5C 350.664,431.813 350.497,429.146 350,426.5C 346.667,425.5 346.667,424.5 350,423.5C 350.667,422.167 350.667,420.833 350,419.5C 347.769,421.377 345.269,422.21 342.5,422C 344.746,420.961 346.913,419.794 349,418.5C 349.567,414.883 349.234,411.216 348,407.5C 346.274,410.778 344.108,412.945 341.5,414C 341.833,414.333 342.167,414.667 342.5,415C 340.919,415.707 339.419,416.54 338,417.5C 337.501,423.157 337.334,428.824 337.5,434.5C 336.5,434.5 335.5,434.5 334.5,434.5C 334.811,427.91 334.478,421.41 333.5,415C 335.591,413.325 337.758,412.825 340,413.5C 341.284,412.428 341.617,411.095 341,409.5C 342.364,410.258 343.531,409.758 344.5,408C 343.167,406.16 343.334,405.66 345,406.5C 346.976,405.457 347.476,404.123 346.5,402.5C 347.213,400.224 347.713,397.891 348,395.5C 348.536,401.589 349.536,407.589 351,413.5C 353.426,404.952 355.426,396.285 357,387.5C 359.667,380.841 361.5,374.008 362.5,367C 362.333,364.833 362.167,362.667 362,360.5C 361.667,361.167 361.333,361.833 361,362.5C 356.858,375.32 353.524,387.986 351,400.5C 347.202,376.248 343.869,351.915 341,327.5C 339.12,318.647 336.62,309.98 333.5,301.5C 323.219,310.944 314.219,321.444 306.5,333C 304.35,334.59 302.017,335.257 299.5,335C 299.833,334 300.167,333 300.5,332C 299,330.5 297.5,329 296,327.5C 286.079,338.322 278.413,350.655 273,364.5C 272.073,376.819 271.406,389.152 271,401.5C 270.085,400.672 269.419,399.672 269,398.5C 268.407,386.147 268.74,373.813 270,361.5C 274,353.5 278,345.5 282,337.5C 283.364,338.258 284.531,337.758 285.5,336C 284.167,334.16 284.334,333.66 286,334.5C 287.833,332.667 289.667,330.833 291.5,329C 290.167,327.16 290.334,326.66 292,327.5C 293.538,325.671 293.038,324.171 290.5,323C 290.833,322.667 291.167,322.333 291.5,322C 290.354,321.355 289.354,320.522 288.5,319.5C 284.843,323.327 281.343,327.327 278,331.5C 274,339.5 270,347.5 266,355.5C 265.073,367.819 264.406,380.152 264,392.5C 263.39,379.813 263.723,367.146 265,354.5C 270.491,340.834 277.991,328.501 287.5,317.5C 286.855,316.354 286.022,315.354 285,314.5C 275.659,325.165 268.326,337.165 263,350.5C 262.073,362.819 261.406,375.152 261,387.5C 251.64,371.06 247.473,353.393 248.5,334.5C 254.252,305.057 266.085,278.39 284,254.5C 291.197,245.967 300.03,239.8 310.5,236C 330.831,235.5 351.164,235.333 371.5,235.5 Z"/></g>
<g><path style="opacity:1" fill="#fdd231" d="M 371.5,235.5 C 391.836,235.333 412.169,235.5 432.5,236C 440.067,238.115 446.734,241.782 452.5,247C 467.602,263.022 478.769,281.522 486,302.5C 513.108,381.825 513.274,461.158 486.5,540.5C 475.616,540.241 464.949,539.241 454.5,537.5C 461.006,526.819 466.172,515.486 470,503.5C 482.94,456.239 484.607,408.572 475,360.5C 470.882,339.458 462.882,320.125 451,302.5C 437.218,285.806 422.218,284.473 406,298.5C 396.485,309.865 389.319,322.532 384.5,336.5C 385.123,326.003 385.79,315.503 386.5,305C 386.129,302.144 385.629,299.311 385,296.5C 384.667,298.833 384.333,301.167 384,303.5C 381.673,288.881 379.673,274.214 378,259.5C 376.142,251.399 373.975,243.399 371.5,235.5 Z"/></g>
<g><path style="opacity:1" fill="#fed231" d="M 382.5,501.5 C 386.598,514.037 392.098,526.037 399,537.5C 417.616,561.486 436.116,561.486 454.5,537.5C 464.949,539.241 475.616,540.241 486.5,540.5C 479.299,562.745 467.633,582.245 451.5,599C 445.027,605.069 437.36,608.736 428.5,610C 390.5,610.667 352.5,610.667 314.5,610C 301.673,606.858 291.173,600.024 283,589.5C 265.215,564.85 253.215,537.517 247,507.5C 243.001,489.669 240.167,471.669 238.5,453.5C 240.194,454.686 241.861,454.519 243.5,453C 240.253,450.261 239.753,447.094 242,443.5C 242.333,444.5 242.667,445.5 243,446.5C 244.281,446.381 245.448,446.881 246.5,448C 245.216,449.297 245.383,450.464 247,451.5C 248.419,450.54 249.919,449.707 251.5,449C 249.594,447.144 248.76,444.977 249,442.5C 251.043,444.208 252.71,446.208 254,448.5C 255.322,446.526 254.822,444.692 252.5,443C 253.653,431.91 253.82,420.743 253,409.5C 245.839,397.876 242.005,385.209 241.5,371.5C 242.444,358.785 244.778,346.452 248.5,334.5C 247.473,353.393 251.64,371.06 261,387.5C 261.406,375.152 262.073,362.819 263,350.5C 268.326,337.165 275.659,325.165 285,314.5C 286.022,315.354 286.855,316.354 287.5,317.5C 277.991,328.501 270.491,340.834 265,354.5C 263.723,367.146 263.39,379.813 264,392.5C 264.406,380.152 265.073,367.819 266,355.5C 270,347.5 274,339.5 278,331.5C 281.343,327.327 284.843,323.327 288.5,319.5C 289.354,320.522 290.354,321.355 291.5,322C 291.167,322.333 290.833,322.667 290.5,323C 293.038,324.171 293.538,325.671 292,327.5C 290.334,326.66 290.167,327.16 291.5,329C 289.667,330.833 287.833,332.667 286,334.5C 284.334,333.66 284.167,334.16 285.5,336C 284.531,337.758 283.364,338.258 282,337.5C 278,345.5 274,353.5 270,361.5C 268.74,373.813 268.407,386.147 269,398.5C 269.419,399.672 270.085,400.672 271,401.5C 271.406,389.152 272.073,376.819 273,364.5C 278.413,350.655 286.079,338.322 296,327.5C 297.5,329 299,330.5 300.5,332C 300.167,333 299.833,334 299.5,335C 302.017,335.257 304.35,334.59 306.5,333C 314.219,321.444 323.219,310.944 333.5,301.5C 336.62,309.98 339.12,318.647 341,327.5C 343.869,351.915 347.202,376.248 351,400.5C 353.524,387.986 356.858,375.32 361,362.5C 361.333,361.833 361.667,361.167 362,360.5C 362.167,362.667 362.333,364.833 362.5,367C 361.5,374.008 359.667,380.841 357,387.5C 355.426,396.285 353.426,404.952 351,413.5C 349.536,407.589 348.536,401.589 348,395.5C 347.713,397.891 347.213,400.224 346.5,402.5C 347.476,404.123 346.976,405.457 345,406.5C 343.334,405.66 343.167,406.16 344.5,408C 343.531,409.758 342.364,410.258 341,409.5C 341.617,411.095 341.284,412.428 340,413.5C 337.758,412.825 335.591,413.325 333.5,415C 334.478,421.41 334.811,427.91 334.5,434.5C 335.5,434.5 336.5,434.5 337.5,434.5C 337.334,428.824 337.501,423.157 338,417.5C 339.419,416.54 340.919,415.707 342.5,415C 342.167,414.667 341.833,414.333 341.5,414C 344.108,412.945 346.274,410.778 348,407.5C 349.234,411.216 349.567,414.883 349,418.5C 346.913,419.794 344.746,420.961 342.5,422C 345.269,422.21 347.769,421.377 350,419.5C 350.667,420.833 350.667,422.167 350,423.5C 346.667,424.5 346.667,425.5 350,426.5C 350.497,429.146 350.664,431.813 350.5,434.5C 351.822,434.33 352.989,434.663 354,435.5C 355.587,430.175 356.754,430.342 357.5,436C 355.726,438.244 355.56,440.41 357,442.5C 357.667,441.167 358.333,439.833 359,438.5C 359.429,440.669 358.929,442.669 357.5,444.5C 358.587,446.105 357.921,446.771 355.5,446.5C 339.851,443.725 324.184,441.058 308.5,438.5C 304.23,438.58 303.563,440.08 306.5,443C 307.744,443.456 308.577,442.956 309,441.5C 309.368,442.91 310.201,443.91 311.5,444.5C 312.541,442.009 313.374,442.009 314,444.5C 314.368,443.09 315.201,442.09 316.5,441.5C 318.192,443.359 319.692,445.359 321,447.5C 321.333,446.833 321.667,446.167 322,445.5C 322.956,446.579 323.789,447.745 324.5,449C 347.627,458.957 364.627,475.79 375.5,499.5C 377.843,500.275 380.177,500.942 382.5,501.5 Z"/></g>
<g><path style="opacity:1" fill="#fed130" d="M 241.5,371.5 C 242.005,385.209 245.839,397.876 253,409.5C 253.82,420.743 253.653,431.91 252.5,443C 254.822,444.692 255.322,446.526 254,448.5C 252.71,446.208 251.043,444.208 249,442.5C 248.76,444.977 249.594,447.144 251.5,449C 249.919,449.707 248.419,450.54 247,451.5C 245.383,450.464 245.216,449.297 246.5,448C 245.448,446.881 244.281,446.381 243,446.5C 242.667,445.5 242.333,444.5 242,443.5C 239.753,447.094 240.253,450.261 243.5,453C 241.861,454.519 240.194,454.686 238.5,453.5C 237.574,437.175 237.408,420.842 238,404.5C 238.367,393.267 239.534,382.267 241.5,371.5 Z"/></g>
</svg>
