<svg id="Ebene_1" data-name="Ebene 1" xmlns="http://www.w3.org/2000/svg" viewBox="0 0 649.1338 224.5435"><defs><style>.cls-1,.cls-2{fill:#181716;}.cls-2{fill-rule:evenodd;}</style></defs><path class="cls-1" d="M18.46,164.565a26.6461,26.6461,0,0,1,6.2422.6894,12.7849,12.7849,0,0,1,4.94,2.2969,10.605,10.605,0,0,1,3.2168,4.29,16.7393,16.7393,0,0,1,1.1484,6.587,13.6644,13.6644,0,0,1-2.0683,7.621,10.3849,10.3849,0,0,1-6.2041,4.3272v.1553a10.8374,10.8374,0,0,1,7.2763,3.9052q2.6807,3.2931,2.6807,8.81a21.9314,21.9314,0,0,1-.8418,6.126,12.4714,12.4714,0,0,1-2.8721,5.0928,14.3586,14.3586,0,0,1-5.2851,3.4843,21.8244,21.8244,0,0,1-8.0811,1.3037H0V164.565Zm-4.29,22.44q4.5968,0,6.7012-1.6455,2.108-1.6466,2.1074-5.5527t-1.915-5.5147q-1.9159-1.6069-6.0508-1.6084H11.0293v14.3213Zm1.1495,24.1289a10.7767,10.7767,0,0,0,6.4336-1.7617q2.4505-1.7607,2.4521-6.5108a10.3546,10.3546,0,0,0-.6523-3.9443,6.6079,6.6079,0,0,0-1.7627-2.5264,6.312,6.312,0,0,0-2.6416-1.3408,13.9007,13.9007,0,0,0-3.3692-.3838h-4.75v16.4678Z"/><path class="cls-1" d="M64.7988,164.565q6.895,0,10.7237,3.4863,3.8291,3.4835,3.8291,10.6055a16.5149,16.5149,0,0,1-2.22,9.0019,10.29,10.29,0,0,1-6.8946,4.48v.1553q4.1354.6138,6.0518,2.6807,1.9116,2.0669,2.373,6.6611.1524,1.5336.2305,3.333.0747,1.8.1533,4.0215.1539,4.3652.459,6.6631a4.2785,4.2785,0,0,0,1.9912,3.14v.4609H69.5488a5.9,5.9,0,0,1-1.0732-2.6435,29.0541,29.0541,0,0,1-.3057-3.1025l-.3066-10.4922a8.652,8.652,0,0,0-1.6084-5.0547q-1.4561-1.8369-4.9023-1.8379H55.4551v23.1308H44.4258V164.565Zm-4.748,23.8965a9.0168,9.0168,0,0,0,6.127-1.877q2.1444-1.875,2.1445-6.3184,0-7.5805-7.6582-7.582h-5.209v15.7774Z"/><path class="cls-1" d="M113.13,164.565l14.4756,54.6884H116.1172l-2.5283-11.5664H99.0371l-2.5283,11.5664H85.02L99.4961,164.565Zm-1.4561,34.084L106.39,174.062h-.1543l-5.2832,24.587Z"/><path class="cls-1" d="M144.3037,186.47h.1534l13.94-21.9052h11.9482l-14.8594,23.4384,16.544,31.25H159.6231l-11.26-22.4414-4.06,6.2032v16.2382H133.2744V164.565h11.0293Z"/><path class="cls-1" d="M206.8037,173.6031H187.2725V186.47h18.3818v9.0391H187.2725v14.7061h20.2969v9.038H176.2422V164.565h30.5615Z"/><path class="cls-1" d="M264.3252,173.6031H252.376v45.65H241.3477v-45.65H229.3985V164.565h34.9267Z"/><path class="cls-1" d="M301.4737,173.6031H281.9424V186.47h18.3828v9.0391H281.9424v14.7061h20.2969v9.038H270.9131V164.565h30.5606Z"/><path class="cls-1" d="M331.5381,174.3306q-1.4209-2.7172-5.1719-2.7188a5.155,5.155,0,0,0-3.4082,1.1114,7.3431,7.3431,0,0,0-2.1064,3.6,30.5605,30.5605,0,0,0-1.0723,6.5107q-.309,4.0211-.3076,9.8418a95.7913,95.7913,0,0,0,.4209,10.0342,22.2466,22.2466,0,0,0,1.3037,5.9356,5.4262,5.4262,0,0,0,2.2207,2.8339,6.38,6.38,0,0,0,3.1016.7266,7.3368,7.3368,0,0,0,2.7207-.4971,4.6086,4.6086,0,0,0,2.1826-1.9912,12.911,12.911,0,0,0,1.4541-4.2119,38.5039,38.5039,0,0,0,.5371-7.1621h11.0293a49.3194,49.3194,0,0,1-.6894,8.4248,19.0991,19.0991,0,0,1-2.5655,6.9707,12.7557,12.7557,0,0,1-5.2851,4.6719,20.0189,20.0189,0,0,1-8.8467,1.6855q-6.2051,0-9.8809-1.9912a13.4375,13.4375,0,0,1-5.6308-5.7461,25.3188,25.3188,0,0,1-2.5274-8.9619,114.832,114.832,0,0,1,0-22.9385,25.38,25.38,0,0,1,2.5274-8.999,14.1442,14.1442,0,0,1,5.6308-5.86q3.6753-2.1051,9.8809-2.1065,5.8974,0,9.3047,1.915a13.0567,13.0567,0,0,1,5.0957,4.8633,16.8892,16.8892,0,0,1,2.1045,6.3574,52.4215,52.4215,0,0,1,.4218,6.3956H332.9551Q332.9551,177.05,331.5381,174.3306Z"/><path class="cls-1" d="M363.5889,164.565v20.91h12.87v-20.91h11.0293v54.6884H376.459V194.9742h-12.87v24.2792H352.56V164.565Z"/><path class="cls-1" d="M423.0264,202.0191h.1553V164.565h10.11v54.6884H420.73L407.25,180.9556h-.1543v38.2978h-10.11V164.565H409.7Z"/><path class="cls-1" d="M442.2139,180.4585a25.34,25.34,0,0,1,2.5283-8.999,14.1445,14.1445,0,0,1,5.6309-5.86q3.6738-2.1051,9.8789-2.1065t9.8808,2.1065a14.1376,14.1376,0,0,1,5.628,5.86,25.34,25.34,0,0,1,2.53,8.999,114.8121,114.8121,0,0,1,0,22.9385,25.2792,25.2792,0,0,1-2.53,8.9619,13.4312,13.4312,0,0,1-5.628,5.7461q-3.6781,1.9893-9.8808,1.9912-6.2037,0-9.8789-1.9912a13.4377,13.4377,0,0,1-5.6309-5.7461,25.2793,25.2793,0,0,1-2.5283-8.9619,114.832,114.832,0,0,1,0-22.9385Zm10.7236,20.834a26.09,26.09,0,0,0,1.0723,6.28,6.9888,6.9888,0,0,0,2.2988,3.5244,7.5706,7.5706,0,0,0,7.8877,0,6.9952,6.9952,0,0,0,2.2988-3.5244,26.189,26.189,0,0,0,1.0723-6.28q.2681-3.8686.2686-9.3838t-.2686-9.3457a26.6809,26.6809,0,0,0-1.0723-6.2793,6.9909,6.9909,0,0,0-2.2988-3.5605,7.5532,7.5532,0,0,0-7.8877,0,6.9846,6.9846,0,0,0-2.2988,3.5605,26.5778,26.5778,0,0,0-1.0723,6.2793q-.27,3.8336-.2676,9.3457Q452.67,197.4239,452.9375,201.2925Z"/><path class="cls-1" d="M487.2119,164.565h11.0293v45.65h19.5332v9.038H487.2119Z"/><path class="cls-1" d="M523.9395,180.4585a25.34,25.34,0,0,1,2.5283-8.999,14.138,14.138,0,0,1,5.6279-5.86q3.6783-2.1051,9.8809-2.1065,6.2065,0,9.8818,2.1065a14.1368,14.1368,0,0,1,5.6279,5.86,25.3564,25.3564,0,0,1,2.53,8.999,115.2113,115.2113,0,0,1,0,22.9385,25.2958,25.2958,0,0,1-2.53,8.9619,13.43,13.43,0,0,1-5.6279,5.7461q-3.6781,1.9893-9.8818,1.9912-6.2022,0-9.8809-1.9912a13.4315,13.4315,0,0,1-5.6279-5.7461,25.2793,25.2793,0,0,1-2.5283-8.9619,114.832,114.832,0,0,1,0-22.9385Zm10.7236,20.834a26.0119,26.0119,0,0,0,1.07,6.28,6.9959,6.9959,0,0,0,2.2988,3.5244,7.5742,7.5742,0,0,0,7.89,0,7.0016,7.0016,0,0,0,2.2988-3.5244,26.189,26.189,0,0,0,1.0723-6.28q.2665-3.8686.2685-9.3838,0-5.5137-.2685-9.3457a26.6809,26.6809,0,0,0-1.0723-6.2793,6.9972,6.9972,0,0,0-2.2988-3.5605,7.5567,7.5567,0,0,0-7.89,0,6.9915,6.9915,0,0,0-2.2988,3.5605,26.4964,26.4964,0,0,0-1.07,6.2793q-.27,3.8336-.27,9.3457Q534.3926,197.4239,534.6631,201.2925Z"/><path class="cls-1" d="M592.8731,177.6636a10.2439,10.2439,0,0,0-1.1084-2.9512,7.1718,7.1718,0,0,0-1.9541-2.2207,4.6953,4.6953,0,0,0-2.8711-.88q-3.9829,0-5.7461,4.4405-1.7607,4.4457-1.7617,14.708,0,4.9014.3076,8.8857a34.1586,34.1586,0,0,0,1.1113,6.7764,9.7414,9.7414,0,0,0,2.2969,4.29,5.231,5.231,0,0,0,3.8681,1.4932,5.3514,5.3514,0,0,0,2.1836-.5361,7.1924,7.1924,0,0,0,2.22-1.6075,8.6573,8.6573,0,0,0,1.7226-2.72,9.9343,9.9343,0,0,0,.69-3.8672v-5.5908h-7.2764v-8.1191h17.8467v29.4882h-8.1211v-5.0566h-.15a11.621,11.621,0,0,1-4.7881,4.5586,15.4144,15.4144,0,0,1-6.7022,1.3408,16.8982,16.8982,0,0,1-8.2334-1.7617,12.0422,12.0422,0,0,1-4.9794-5.4385,27.7439,27.7439,0,0,1-2.4122-9.0781,112.2716,112.2716,0,0,1-.6132-12.5225,73.2977,73.2977,0,0,1,.88-12.1015,24.2237,24.2237,0,0,1,3.0254-8.6934,13.8328,13.8328,0,0,1,5.67-5.2461,19.6065,19.6065,0,0,1,8.8066-1.7617q9.04,0,13.02,4.48,3.9845,4.4825,3.9844,12.83h-10.57A14.84,14.84,0,0,0,592.8731,177.6636Z"/><path class="cls-1" d="M629.3721,185.7046h.1523l7.6612-21.14h11.9482l-14.1689,33.164v21.5244H623.9336V197.729l-14.1709-33.164h12.4092Z"/><path class="cls-1" d="M632.7617,107.3321h2.918c1.4893,0,3.1084.2915,3.1084,2.17,0,2.2353-1.7832,2.331-3.7266,2.331h-2.3v-4.5014Zm-2.2,12.372h2.2v-6.0893h2.335l3.8545,6.0893h2.3643l-4.0479-6.2495c2.1035-.227,3.7227-1.2964,3.7227-3.854,0-2.7222-1.5879-4.05-4.9551-4.05h-5.4737v14.1533Z"/><path class="cls-1" d="M625.2822,112.5786a9.98,9.98,0,1,1,19.9512,0c0,5.9268-4.3408,10.397-9.9433,10.397-5.6661,0-10.0079-4.47-10.0079-10.397Zm-2.2031,0a12.179,12.179,0,1,0,12.211-12.0473,12.11,12.11,0,0,0-12.211,12.0473Z"/><path class="cls-1" d="M116.3272,3.605,100.9219,41.61H77.4766l-32.6533,82.333H1.9248C1.7979,124.0723,34.32,41.61,34.32,41.61H11.1328L25.9238,3.605Z"/><polygon class="cls-1" points="412.598 41.769 389.279 41.769 356.37 123.943 313.47 123.943 345.738 41.769 322.549 41.769 337.471 3.605 427.52 3.605 412.598 41.769 412.598 41.769 412.598 41.769"/><path class="cls-1" d="M258.2412,3.605s3.1621,17.3916,3.7129,26.5371c0,.3872.3877.2559.6455.2539,5.2422-9.6811,20.5049-26.791,20.5049-26.791h49.5986L276.78,65.897l17.1074,58.0464H250.6006s-3.6914-21.47-4.5088-32.5459c-.2578-.3853-.6435-.127-.9013-.2544l-5.25,7.6226L219.041,123.9434H165.0635l65.4316-67.7827L215.2139,3.605Z"/><polygon class="cls-1" points="192.842 36.409 156.644 36.409 152.306 47.834 185.028 47.834 172.658 79.319 139.679 79.319 134.86 91.116 172.189 91.116 159.307 123.943 78.79 123.943 126.495 3.605 206.205 3.605 192.842 36.409 192.842 36.409 192.842 36.409"/><path class="cls-2" d="M611.0977,3.605c12.2392.4673,25.3994,5.7276,30.6006,17.8159,4.9492,13.3789-1.3106,26.6719-8.0957,37.5205-6.7891,9.9473-17.5909,14.7554-28.0127,18.0171-.77.52-.253,1.2906.2656,1.8032.6455.77.9033,1.1553,1.5527,1.9258l1.8184,3.729,10.333,39.5269H572.5391l-3.63-38.207a.4833.4833,0,0,0-.7734.0019l-15.4366,38.2051H508.6416L556.4112,3.605c.2539-.645,54.6865,0,54.6865,0Zm-9.9024,37.3A15.2533,15.2533,0,0,1,594.55,54.3306c-4.3711,2.4639-9.9062,3.1309-14.9355,2.5068L587.65,36.7085c4.8984.2383,11.4629-.8193,13.5449,4.1963Zm-97.1914,83.0386H458.6572l1.8711-14.7163-31.9472-.002-9.4737,14.7183H373.7608L461.9131,3.605h47.67l-5.5791,120.3384ZM470.7071,43.8711c-.628,3.9966-6.4258,36.355-6.4258,36.355l-16.6192.0645L469.6768,43.875l1.03-.0039Z"/></svg>